M48
;DRILL file {kicad (2014-jul-16 BZR unknown)-product} date mar. 06 oct. 2015 20:28:15 CEST
;FORMAT={-:-/ absolute / inch / decimal}
FMAT,2
INCH,TZ
T1C0.025
T2C0.030
T3C0.040
T4C0.060
T5C0.120
%
G90
G05
M72
T1
X5.Y-5.875
X5.05Y-5.9244
X5.1Y-3.55
X5.475Y-4.125
X5.55Y-3.55
X5.775Y-3.2
X5.825Y-3.15
X5.9747Y-4.1247
X5.975Y-4.75
X6.025Y-5.275
X6.075Y-4.75
X6.125Y-4.65
X6.125Y-5.7006
X6.2Y-3.6
X6.3Y-3.15
X6.3Y-3.2
X6.35Y-4.6
X6.35Y-4.7
X6.5Y-3.475
X6.55Y-3.45
X6.6Y-3.55
X6.65Y-3.45
X6.65Y-3.55
X6.7Y-3.1
X6.7Y-4.7
X6.725Y-3.55
X6.8Y-3.225
X6.95Y-4.6
T2
X4.725Y-4.1
X4.725Y-4.2
X4.725Y-4.3
X4.725Y-4.4
X4.725Y-4.5
X4.725Y-4.6
X4.725Y-4.7
X4.725Y-4.8
X4.725Y-5.1
X4.725Y-5.2
X4.725Y-5.3
X4.725Y-5.4
X4.725Y-5.5
X4.725Y-5.6
X4.725Y-5.7
X4.725Y-5.8
X5.225Y-4.1
X5.225Y-4.2
X5.225Y-4.3
X5.225Y-4.4
X5.225Y-4.5
X5.225Y-4.6
X5.225Y-4.7
X5.225Y-4.8
X5.225Y-5.1
X5.225Y-5.2
X5.225Y-5.3
X5.225Y-5.4
X5.225Y-5.5
X5.225Y-5.6
X5.225Y-5.7
X5.225Y-5.8
X5.625Y-4.4
X5.625Y-4.5
X5.625Y-4.6
X5.625Y-4.7
X5.625Y-4.8
X5.625Y-4.9
X5.625Y-5.
X5.625Y-5.1
X5.625Y-5.2
X5.625Y-5.3
X5.625Y-5.4
X5.625Y-5.5
X5.625Y-5.6
X5.625Y-5.7
X5.625Y-5.8
X6.225Y-4.4
X6.225Y-4.5
X6.225Y-4.6
X6.225Y-4.7
X6.225Y-4.8
X6.225Y-4.9
X6.225Y-5.
X6.225Y-5.1
X6.225Y-5.2
X6.225Y-5.3
X6.225Y-5.4
X6.225Y-5.5
X6.225Y-5.6
X6.225Y-5.7
X6.225Y-5.8
X6.7Y-5.
X6.8Y-5.
X6.9Y-5.
X7.Y-5.
X7.1Y-4.4
X7.1Y-4.6
X7.1Y-5.
X7.2Y-5.
X7.3Y-4.4
X7.3Y-4.6
T3
X4.4Y-4.3
X4.4Y-4.4
X4.4Y-4.5
X4.4Y-4.6
X4.4Y-5.1
X4.4Y-5.2
X4.4Y-5.3
X4.4Y-5.4
X4.6Y-2.6
X4.6Y-2.7
X4.6Y-2.8
X4.6Y-2.9
X4.6Y-3.
X4.6Y-3.1
X4.6Y-3.2
X4.7Y-2.6
X4.7Y-2.7
X4.7Y-2.8
X4.7Y-2.9
X4.7Y-3.
X4.7Y-3.1
X4.7Y-3.2
X4.8Y-2.6
X4.8Y-2.7
X4.8Y-2.8
X4.8Y-2.9
X4.8Y-3.
X4.8Y-3.1
X4.8Y-3.2
X4.9Y-2.6
X4.9Y-2.7
X4.9Y-2.8
X4.9Y-2.9
X4.9Y-3.
X4.9Y-3.1
X4.9Y-3.2
X5.Y-2.6
X5.Y-2.7
X5.Y-2.8
X5.Y-2.9
X5.Y-3.
X5.Y-3.1
X5.Y-3.2
X5.1Y-2.6
X5.1Y-2.7
X5.1Y-2.8
X5.1Y-2.9
X5.1Y-3.
X5.1Y-3.1
X5.1Y-3.2
X5.2Y-2.6
X5.2Y-2.7
X5.2Y-2.8
X5.2Y-2.9
X5.2Y-3.
X5.2Y-3.1
X5.2Y-3.2
X5.3Y-2.6
X5.3Y-2.7
X5.3Y-2.8
X5.3Y-2.9
X5.3Y-3.
X5.3Y-3.1
X5.3Y-3.2
X5.4Y-2.6
X5.4Y-2.7
X5.4Y-2.8
X5.4Y-2.9
X5.4Y-3.
X5.4Y-3.1
X5.4Y-3.2
X5.5Y-2.6
X5.5Y-2.7
X5.5Y-2.8
X5.5Y-2.9
X5.5Y-3.
X5.5Y-3.1
X5.5Y-3.2
X5.7Y-2.65
X5.7Y-2.8
X5.8Y-2.65
X5.8Y-2.8
X5.8Y-3.
X5.8Y-3.7
X5.9Y-2.65
X5.9Y-2.8
X5.9Y-3.
X5.9Y-3.7
X6.Y-2.65
X6.Y-2.8
X6.Y-3.
X6.Y-3.7
X6.1Y-3.
X6.1Y-3.7
X6.2Y-3.
X6.2Y-3.7
X6.3Y-3.
X6.3Y-3.7
X6.7Y-3.
X6.8Y-3.
X6.85Y-3.7
X6.85Y-3.95
X6.85Y-4.1
X6.9Y-3.
X6.95Y-3.7
X6.95Y-3.95
X6.95Y-4.1
X7.Y-3.
X7.05Y-3.7
X7.05Y-3.95
X7.05Y-4.1
X7.1Y-3.
X7.15Y-3.7
X7.15Y-3.95
X7.15Y-4.1
X7.2Y-3.
X7.3Y-3.
X7.35Y-3.7
X7.4Y-3.
X7.45Y-3.7
T4
X4.4Y-3.7
X4.4Y-3.9
T5
X4.3Y-2.7
X4.3Y-5.8
X7.5Y-2.7
X7.5Y-5.8
T0
M30
