%FSLAX46Y46*%
G04 Gerber Fmt 4.6, Leading zero omitted, Abs format (unit mm)*
G04 Created by KiCad (PCBNEW (2014-jul-16 BZR unknown)-product) date mar. 06 oct. 2015 20:27:54 CEST*
%MOMM*%
G01*
G04 APERTURE LIST*
%ADD10C,0.100000*%
%ADD11R,1.524000X1.524000*%
%ADD12C,1.524000*%
%ADD13R,2.540000X2.540000*%
%ADD14C,2.540000*%
%ADD15R,0.797560X0.797560*%
%ADD16R,1.727200X2.032000*%
%ADD17O,1.727200X2.032000*%
%ADD18R,2.032000X1.727200*%
%ADD19O,2.032000X1.727200*%
%ADD20R,0.900000X1.200000*%
%ADD21R,2.032000X2.032000*%
%ADD22O,2.032000X2.032000*%
%ADD23C,4.064000*%
%ADD24C,0.889000*%
%ADD25C,0.254000*%
%ADD26C,1.000000*%
%ADD27C,0.500000*%
G04 APERTURE END LIST*
D10*
D11*
X158115000Y-147320000D03*
D12*
X158115000Y-144780000D03*
X158115000Y-142240000D03*
X158115000Y-139700000D03*
X158115000Y-137160000D03*
X158115000Y-134620000D03*
X158115000Y-132080000D03*
X158115000Y-129540000D03*
X158115000Y-127000000D03*
X158115000Y-124460000D03*
X158115000Y-121920000D03*
X158115000Y-119380000D03*
X158115000Y-116840000D03*
X158115000Y-114300000D03*
X158115000Y-111760000D03*
X142875000Y-111760000D03*
X142875000Y-114300000D03*
X142875000Y-116840000D03*
X142875000Y-119380000D03*
X142875000Y-121920000D03*
X142875000Y-124460000D03*
X142875000Y-127000000D03*
X142875000Y-129540000D03*
X142875000Y-132080000D03*
X142875000Y-134620000D03*
X142875000Y-137160000D03*
X142875000Y-139700000D03*
X142875000Y-142240000D03*
X142875000Y-144780000D03*
X142875000Y-147320000D03*
D13*
X111760000Y-93980000D03*
D14*
X111760000Y-99060000D03*
D15*
X157480000Y-83070700D03*
X157480000Y-84569300D03*
D11*
X132715000Y-147320000D03*
D12*
X132715000Y-144780000D03*
X132715000Y-142240000D03*
X132715000Y-139700000D03*
X132715000Y-137160000D03*
X132715000Y-134620000D03*
X132715000Y-132080000D03*
X132715000Y-129540000D03*
X120015000Y-129540000D03*
X120015000Y-132080000D03*
X120015000Y-134620000D03*
X120015000Y-137160000D03*
X120015000Y-139700000D03*
X120015000Y-142240000D03*
X120015000Y-144780000D03*
X120015000Y-147320000D03*
D11*
X132715000Y-121920000D03*
D12*
X132715000Y-119380000D03*
X132715000Y-116840000D03*
X132715000Y-114300000D03*
X132715000Y-111760000D03*
X132715000Y-109220000D03*
X132715000Y-106680000D03*
X132715000Y-104140000D03*
X120015000Y-104140000D03*
X120015000Y-106680000D03*
X120015000Y-109220000D03*
X120015000Y-111760000D03*
X120015000Y-114300000D03*
X120015000Y-116840000D03*
X120015000Y-119380000D03*
X120015000Y-121920000D03*
D16*
X181610000Y-93980000D03*
D17*
X179070000Y-93980000D03*
X176530000Y-93980000D03*
X173990000Y-93980000D03*
D16*
X160020000Y-76200000D03*
D17*
X157480000Y-76200000D03*
X154940000Y-76200000D03*
X152400000Y-76200000D03*
X149860000Y-76200000D03*
X147320000Y-76200000D03*
D16*
X160020000Y-93980000D03*
D17*
X157480000Y-93980000D03*
X154940000Y-93980000D03*
X152400000Y-93980000D03*
X149860000Y-93980000D03*
X147320000Y-93980000D03*
D18*
X111760000Y-137160000D03*
D19*
X111760000Y-134620000D03*
X111760000Y-132080000D03*
X111760000Y-129540000D03*
D18*
X111760000Y-116840000D03*
D19*
X111760000Y-114300000D03*
X111760000Y-111760000D03*
X111760000Y-109220000D03*
D20*
X157480000Y-88730000D03*
X157480000Y-86530000D03*
D21*
X189230000Y-93980000D03*
D22*
X186690000Y-93980000D03*
D11*
X180340000Y-116840000D03*
D12*
X180340000Y-111760000D03*
X185420000Y-116840000D03*
X185420000Y-111760000D03*
D11*
X182880000Y-127000000D03*
D12*
X180340000Y-127000000D03*
X177800000Y-127000000D03*
X175260000Y-127000000D03*
X172720000Y-127000000D03*
X170180000Y-127000000D03*
D16*
X187960000Y-76200000D03*
D17*
X185420000Y-76200000D03*
X182880000Y-76200000D03*
X180340000Y-76200000D03*
X177800000Y-76200000D03*
X175260000Y-76200000D03*
X172720000Y-76200000D03*
X170180000Y-76200000D03*
D23*
X109220000Y-68580000D03*
X190500000Y-68580000D03*
X190500000Y-147320000D03*
X109220000Y-147320000D03*
D16*
X116840000Y-66040000D03*
D17*
X119380000Y-66040000D03*
X121920000Y-66040000D03*
X124460000Y-66040000D03*
X127000000Y-66040000D03*
X129540000Y-66040000D03*
X132080000Y-66040000D03*
X134620000Y-66040000D03*
X137160000Y-66040000D03*
X139700000Y-66040000D03*
D16*
X116840000Y-68580000D03*
D17*
X119380000Y-68580000D03*
X121920000Y-68580000D03*
X124460000Y-68580000D03*
X127000000Y-68580000D03*
X129540000Y-68580000D03*
X132080000Y-68580000D03*
X134620000Y-68580000D03*
X137160000Y-68580000D03*
X139700000Y-68580000D03*
D16*
X116840000Y-71120000D03*
D17*
X119380000Y-71120000D03*
X121920000Y-71120000D03*
X124460000Y-71120000D03*
X127000000Y-71120000D03*
X129540000Y-71120000D03*
X132080000Y-71120000D03*
X134620000Y-71120000D03*
X137160000Y-71120000D03*
X139700000Y-71120000D03*
D16*
X116840000Y-73660000D03*
D17*
X119380000Y-73660000D03*
X121920000Y-73660000D03*
X124460000Y-73660000D03*
X127000000Y-73660000D03*
X129540000Y-73660000D03*
X132080000Y-73660000D03*
X134620000Y-73660000D03*
X137160000Y-73660000D03*
X139700000Y-73660000D03*
D16*
X116840000Y-76200000D03*
D17*
X119380000Y-76200000D03*
X121920000Y-76200000D03*
X124460000Y-76200000D03*
X127000000Y-76200000D03*
X129540000Y-76200000D03*
X132080000Y-76200000D03*
X134620000Y-76200000D03*
X137160000Y-76200000D03*
X139700000Y-76200000D03*
D16*
X116840000Y-78740000D03*
D17*
X119380000Y-78740000D03*
X121920000Y-78740000D03*
X124460000Y-78740000D03*
X127000000Y-78740000D03*
X129540000Y-78740000D03*
X132080000Y-78740000D03*
X134620000Y-78740000D03*
X137160000Y-78740000D03*
X139700000Y-78740000D03*
D16*
X116840000Y-81280000D03*
D17*
X119380000Y-81280000D03*
X121920000Y-81280000D03*
X124460000Y-81280000D03*
X127000000Y-81280000D03*
X129540000Y-81280000D03*
X132080000Y-81280000D03*
X134620000Y-81280000D03*
X137160000Y-81280000D03*
X139700000Y-81280000D03*
D16*
X144780000Y-71120000D03*
D17*
X147320000Y-71120000D03*
X149860000Y-71120000D03*
X152400000Y-71120000D03*
D16*
X144780000Y-67310000D03*
D17*
X147320000Y-67310000D03*
X149860000Y-67310000D03*
X152400000Y-67310000D03*
D16*
X181610000Y-100330000D03*
D17*
X179070000Y-100330000D03*
X176530000Y-100330000D03*
X173990000Y-100330000D03*
D16*
X181610000Y-104140000D03*
D17*
X179070000Y-104140000D03*
X176530000Y-104140000D03*
X173990000Y-104140000D03*
D24*
X155575000Y-144795998D03*
X128270000Y-150479002D03*
X140970000Y-90170000D03*
X129540000Y-90170000D03*
X160020000Y-80010000D03*
X147955000Y-80010000D03*
X168910000Y-90170000D03*
X168910000Y-87630000D03*
X172720000Y-81915000D03*
X167640000Y-90170000D03*
X166370000Y-87630000D03*
X153035000Y-133985000D03*
X151765000Y-120650000D03*
X165100000Y-88265000D03*
X154305000Y-120650000D03*
X170815000Y-90170000D03*
X170180000Y-78740000D03*
X160020000Y-81280000D03*
X161290000Y-119380000D03*
X170180000Y-119380000D03*
X151757001Y-104767001D03*
X139065000Y-104775000D03*
X146685000Y-81280000D03*
X127000000Y-149225000D03*
X155575000Y-118110000D03*
X157480000Y-91440000D03*
X176530000Y-116840000D03*
X161290000Y-116840000D03*
D25*
X-118110000Y-117305000D02*
X-117940000Y-117475000D01*
D26*
X155575000Y-144795998D02*
X155559002Y-144780000D01*
X155559002Y-144780000D02*
X153035000Y-144780000D01*
X153035000Y-144780000D02*
X151765000Y-146050000D01*
X151765000Y-146050000D02*
X151765000Y-148590000D01*
X151765000Y-148590000D02*
X149875998Y-150479002D01*
X149875998Y-150479002D02*
X128270000Y-150479002D01*
X140970000Y-90170000D02*
X129540000Y-90170000D01*
X147955000Y-80010000D02*
X160020000Y-80010000D01*
X168910000Y-87630000D02*
X168910000Y-90170000D01*
X168910000Y-81915000D02*
X172720000Y-81915000D01*
X167640000Y-83185000D02*
X168910000Y-81915000D01*
X167640000Y-90170000D02*
X167640000Y-83185000D01*
X153035000Y-107315000D02*
X153035000Y-133985000D01*
X166370000Y-87630000D02*
X166370000Y-89535000D01*
X166370000Y-89535000D02*
X163830000Y-92075000D01*
X163830000Y-92075000D02*
X163830000Y-96520000D01*
X163830000Y-96520000D02*
X153035000Y-107315000D01*
X151765000Y-106680000D02*
X151765000Y-120650000D01*
X162560000Y-95885000D02*
X151765000Y-106680000D01*
X162560000Y-90805000D02*
X162560000Y-95885000D01*
X165100000Y-88265000D02*
X162560000Y-90805000D01*
X166370000Y-91440000D02*
X169545000Y-91440000D01*
X154305000Y-120650000D02*
X154305000Y-107950000D01*
X154305000Y-107950000D02*
X165084002Y-97170998D01*
X165084002Y-97170998D02*
X165084002Y-92725998D01*
X165084002Y-92725998D02*
X166370000Y-91440000D01*
X169545000Y-91440000D02*
X170815000Y-90170000D01*
X167640000Y-81280000D02*
X170180000Y-78740000D01*
X160020000Y-81280000D02*
X167640000Y-81280000D01*
X170180000Y-119380000D02*
X161290000Y-119380000D01*
X151757001Y-104767001D02*
X151749002Y-104775000D01*
X151749002Y-104775000D02*
X139065000Y-104775000D01*
D27*
X157480000Y-83070700D02*
X157480000Y-81915000D01*
X156845000Y-81280000D02*
X146685000Y-81280000D01*
X157480000Y-81915000D02*
X156845000Y-81280000D01*
D26*
X148590000Y-149225000D02*
X127000000Y-149225000D01*
X150495000Y-147320000D02*
X148590000Y-149225000D01*
X150495000Y-139700000D02*
X150495000Y-147320000D01*
X154305000Y-135890000D02*
X150495000Y-139700000D01*
X154305000Y-123190000D02*
X154305000Y-135890000D01*
X155575000Y-121920000D02*
X154305000Y-123190000D01*
X155575000Y-118110000D02*
X155575000Y-121920000D01*
D27*
X157480000Y-91440000D02*
X157480000Y-88730000D01*
X157480000Y-86530000D02*
X157480000Y-84569300D01*
D26*
X161290000Y-116840000D02*
X176530000Y-116840000D01*
D25*
G36*
X195505000Y-151690000D02*
X193167462Y-151690000D01*
X193167462Y-146791828D01*
X193167462Y-68051828D01*
X192762291Y-67071239D01*
X192012707Y-66320345D01*
X191032827Y-65913464D01*
X189971828Y-65912538D01*
X188991239Y-66317709D01*
X188240345Y-67067293D01*
X187833464Y-68047173D01*
X187832538Y-69108172D01*
X188237709Y-70088761D01*
X188987293Y-70839655D01*
X189967173Y-71246536D01*
X191028172Y-71247462D01*
X192008761Y-70842291D01*
X192759655Y-70092707D01*
X193166536Y-69112827D01*
X193167462Y-68051828D01*
X193167462Y-146791828D01*
X192762291Y-145811239D01*
X192012707Y-145060345D01*
X191032827Y-144653464D01*
X190881000Y-144653331D01*
X190881000Y-95122310D01*
X190881000Y-94869691D01*
X190881000Y-92837691D01*
X190784327Y-92604302D01*
X190605699Y-92425673D01*
X190372310Y-92329000D01*
X190119691Y-92329000D01*
X189458600Y-92329000D01*
X189458600Y-77342309D01*
X189458600Y-76485750D01*
X189458600Y-75914250D01*
X189458600Y-75057691D01*
X189361927Y-74824302D01*
X189183299Y-74645673D01*
X188949910Y-74549000D01*
X188697291Y-74549000D01*
X188245750Y-74549000D01*
X188087000Y-74707750D01*
X188087000Y-76073000D01*
X189299850Y-76073000D01*
X189458600Y-75914250D01*
X189458600Y-76485750D01*
X189299850Y-76327000D01*
X188087000Y-76327000D01*
X188087000Y-77692250D01*
X188245750Y-77851000D01*
X188697291Y-77851000D01*
X188949910Y-77851000D01*
X189183299Y-77754327D01*
X189361927Y-77575698D01*
X189458600Y-77342309D01*
X189458600Y-92329000D01*
X188087691Y-92329000D01*
X187854302Y-92425673D01*
X187833000Y-92446974D01*
X187833000Y-77692250D01*
X187833000Y-76327000D01*
X187813000Y-76327000D01*
X187813000Y-76073000D01*
X187833000Y-76073000D01*
X187833000Y-74707750D01*
X187674250Y-74549000D01*
X187222709Y-74549000D01*
X186970090Y-74549000D01*
X186736701Y-74645673D01*
X186558073Y-74824302D01*
X186494500Y-74977780D01*
X186479670Y-74955585D01*
X185993489Y-74630729D01*
X185420000Y-74516655D01*
X184846511Y-74630729D01*
X184360330Y-74955585D01*
X184150000Y-75270365D01*
X183939670Y-74955585D01*
X183453489Y-74630729D01*
X182880000Y-74516655D01*
X182306511Y-74630729D01*
X181820330Y-74955585D01*
X181610000Y-75270365D01*
X181399670Y-74955585D01*
X180913489Y-74630729D01*
X180340000Y-74516655D01*
X179766511Y-74630729D01*
X179280330Y-74955585D01*
X179070000Y-75270365D01*
X178859670Y-74955585D01*
X178373489Y-74630729D01*
X177800000Y-74516655D01*
X177226511Y-74630729D01*
X176740330Y-74955585D01*
X176530000Y-75270365D01*
X176319670Y-74955585D01*
X175833489Y-74630729D01*
X175260000Y-74516655D01*
X174686511Y-74630729D01*
X174200330Y-74955585D01*
X173990000Y-75270365D01*
X173779670Y-74955585D01*
X173293489Y-74630729D01*
X172720000Y-74516655D01*
X172146511Y-74630729D01*
X171660330Y-74955585D01*
X171450000Y-75270365D01*
X171239670Y-74955585D01*
X170753489Y-74630729D01*
X170180000Y-74516655D01*
X169606511Y-74630729D01*
X169120330Y-74955585D01*
X168795474Y-75441766D01*
X168681400Y-76015255D01*
X168681400Y-76384745D01*
X168795474Y-76958234D01*
X169120330Y-77444415D01*
X169606511Y-77769271D01*
X169623923Y-77772734D01*
X169377433Y-77937434D01*
X167169867Y-80145000D01*
X161518600Y-80145000D01*
X161518600Y-77342310D01*
X161518600Y-77089691D01*
X161518600Y-75057691D01*
X161421927Y-74824302D01*
X161243299Y-74645673D01*
X161009910Y-74549000D01*
X160757291Y-74549000D01*
X159030091Y-74549000D01*
X158796702Y-74645673D01*
X158618073Y-74824301D01*
X158536241Y-75021860D01*
X158382036Y-74849268D01*
X157854791Y-74595291D01*
X157839026Y-74592642D01*
X157607000Y-74713783D01*
X157607000Y-76073000D01*
X157627000Y-76073000D01*
X157627000Y-76327000D01*
X157607000Y-76327000D01*
X157607000Y-77686217D01*
X157839026Y-77807358D01*
X157854791Y-77804709D01*
X158382036Y-77550732D01*
X158536241Y-77378139D01*
X158618073Y-77575698D01*
X158796701Y-77754327D01*
X159030090Y-77851000D01*
X159282709Y-77851000D01*
X161009909Y-77851000D01*
X161243298Y-77754327D01*
X161421927Y-77575699D01*
X161518600Y-77342310D01*
X161518600Y-80145000D01*
X161128146Y-80145000D01*
X161155000Y-80010000D01*
X161068603Y-79575654D01*
X160822566Y-79207434D01*
X160454346Y-78961397D01*
X160020000Y-78875000D01*
X157353000Y-78875000D01*
X157353000Y-77686217D01*
X157353000Y-76327000D01*
X157333000Y-76327000D01*
X157333000Y-76073000D01*
X157353000Y-76073000D01*
X157353000Y-74713783D01*
X157120974Y-74592642D01*
X157105209Y-74595291D01*
X156577964Y-74849268D01*
X156206460Y-75265069D01*
X155999670Y-74955585D01*
X155513489Y-74630729D01*
X154940000Y-74516655D01*
X154366511Y-74630729D01*
X153898600Y-74943377D01*
X153898600Y-71304745D01*
X153898600Y-70935255D01*
X153885184Y-70867808D01*
X153885184Y-67671913D01*
X153885184Y-66948087D01*
X153691954Y-66395680D01*
X153302036Y-65959268D01*
X152774791Y-65705291D01*
X152759026Y-65702642D01*
X152527000Y-65823783D01*
X152527000Y-67183000D01*
X153740924Y-67183000D01*
X153885184Y-66948087D01*
X153885184Y-67671913D01*
X153740924Y-67437000D01*
X152527000Y-67437000D01*
X152527000Y-68796217D01*
X152759026Y-68917358D01*
X152774791Y-68914709D01*
X153302036Y-68660732D01*
X153691954Y-68224320D01*
X153885184Y-67671913D01*
X153885184Y-70867808D01*
X153784526Y-70361766D01*
X153459670Y-69875585D01*
X152973489Y-69550729D01*
X152400000Y-69436655D01*
X152273000Y-69461916D01*
X152273000Y-68796217D01*
X152273000Y-67437000D01*
X152273000Y-67183000D01*
X152273000Y-65823783D01*
X152040974Y-65702642D01*
X152025209Y-65705291D01*
X151497964Y-65959268D01*
X151130000Y-66371108D01*
X150762036Y-65959268D01*
X150234791Y-65705291D01*
X150219026Y-65702642D01*
X149987000Y-65823783D01*
X149987000Y-67183000D01*
X151059076Y-67183000D01*
X151200924Y-67183000D01*
X152273000Y-67183000D01*
X152273000Y-67437000D01*
X151200924Y-67437000D01*
X151059076Y-67437000D01*
X149987000Y-67437000D01*
X149987000Y-68796217D01*
X150219026Y-68917358D01*
X150234791Y-68914709D01*
X150762036Y-68660732D01*
X151130000Y-68248891D01*
X151497964Y-68660732D01*
X152025209Y-68914709D01*
X152040974Y-68917358D01*
X152273000Y-68796217D01*
X152273000Y-69461916D01*
X151826511Y-69550729D01*
X151340330Y-69875585D01*
X151130000Y-70190365D01*
X150919670Y-69875585D01*
X150433489Y-69550729D01*
X149860000Y-69436655D01*
X149733000Y-69461916D01*
X149733000Y-68796217D01*
X149733000Y-67437000D01*
X149733000Y-67183000D01*
X149733000Y-65823783D01*
X149500974Y-65702642D01*
X149485209Y-65705291D01*
X148957964Y-65959268D01*
X148590000Y-66371108D01*
X148222036Y-65959268D01*
X147694791Y-65705291D01*
X147679026Y-65702642D01*
X147447000Y-65823783D01*
X147447000Y-67183000D01*
X148519076Y-67183000D01*
X148660924Y-67183000D01*
X149733000Y-67183000D01*
X149733000Y-67437000D01*
X148660924Y-67437000D01*
X148519076Y-67437000D01*
X147447000Y-67437000D01*
X147447000Y-68796217D01*
X147679026Y-68917358D01*
X147694791Y-68914709D01*
X148222036Y-68660732D01*
X148590000Y-68248891D01*
X148957964Y-68660732D01*
X149485209Y-68914709D01*
X149500974Y-68917358D01*
X149733000Y-68796217D01*
X149733000Y-69461916D01*
X149286511Y-69550729D01*
X148800330Y-69875585D01*
X148590000Y-70190365D01*
X148379670Y-69875585D01*
X147893489Y-69550729D01*
X147320000Y-69436655D01*
X147193000Y-69461916D01*
X147193000Y-68796217D01*
X147193000Y-67437000D01*
X147193000Y-67183000D01*
X147193000Y-65823783D01*
X146960974Y-65702642D01*
X146945209Y-65705291D01*
X146417964Y-65959268D01*
X146263758Y-66131860D01*
X146181927Y-65934302D01*
X146003299Y-65755673D01*
X145769910Y-65659000D01*
X145517291Y-65659000D01*
X145065750Y-65659000D01*
X144907000Y-65817750D01*
X144907000Y-67183000D01*
X145979076Y-67183000D01*
X146119850Y-67183000D01*
X147193000Y-67183000D01*
X147193000Y-67437000D01*
X146119850Y-67437000D01*
X145979076Y-67437000D01*
X144907000Y-67437000D01*
X144907000Y-68802250D01*
X145065750Y-68961000D01*
X145517291Y-68961000D01*
X145769910Y-68961000D01*
X146003299Y-68864327D01*
X146181927Y-68685698D01*
X146263758Y-68488139D01*
X146417964Y-68660732D01*
X146945209Y-68914709D01*
X146960974Y-68917358D01*
X147193000Y-68796217D01*
X147193000Y-69461916D01*
X146746511Y-69550729D01*
X146260330Y-69875585D01*
X146245499Y-69897780D01*
X146181927Y-69744302D01*
X146003299Y-69565673D01*
X145769910Y-69469000D01*
X145517291Y-69469000D01*
X144653000Y-69469000D01*
X144653000Y-68802250D01*
X144653000Y-67437000D01*
X144653000Y-67183000D01*
X144653000Y-65817750D01*
X144494250Y-65659000D01*
X144042709Y-65659000D01*
X143790090Y-65659000D01*
X143556701Y-65755673D01*
X143378073Y-65934302D01*
X143281400Y-66167691D01*
X143281400Y-67024250D01*
X143440150Y-67183000D01*
X144653000Y-67183000D01*
X144653000Y-67437000D01*
X143440150Y-67437000D01*
X143281400Y-67595750D01*
X143281400Y-68452309D01*
X143378073Y-68685698D01*
X143556701Y-68864327D01*
X143790090Y-68961000D01*
X144042709Y-68961000D01*
X144494250Y-68961000D01*
X144653000Y-68802250D01*
X144653000Y-69469000D01*
X143790091Y-69469000D01*
X143556702Y-69565673D01*
X143378073Y-69744301D01*
X143281400Y-69977690D01*
X143281400Y-70230309D01*
X143281400Y-72262309D01*
X143378073Y-72495698D01*
X143556701Y-72674327D01*
X143790090Y-72771000D01*
X144042709Y-72771000D01*
X145769909Y-72771000D01*
X146003298Y-72674327D01*
X146181927Y-72495699D01*
X146245500Y-72342220D01*
X146260330Y-72364415D01*
X146746511Y-72689271D01*
X147320000Y-72803345D01*
X147893489Y-72689271D01*
X148379670Y-72364415D01*
X148590000Y-72049634D01*
X148800330Y-72364415D01*
X149286511Y-72689271D01*
X149860000Y-72803345D01*
X150433489Y-72689271D01*
X150919670Y-72364415D01*
X151130000Y-72049634D01*
X151340330Y-72364415D01*
X151826511Y-72689271D01*
X152400000Y-72803345D01*
X152973489Y-72689271D01*
X153459670Y-72364415D01*
X153784526Y-71878234D01*
X153898600Y-71304745D01*
X153898600Y-74943377D01*
X153880330Y-74955585D01*
X153670000Y-75270365D01*
X153459670Y-74955585D01*
X152973489Y-74630729D01*
X152400000Y-74516655D01*
X151826511Y-74630729D01*
X151340330Y-74955585D01*
X151130000Y-75270365D01*
X150919670Y-74955585D01*
X150433489Y-74630729D01*
X149860000Y-74516655D01*
X149286511Y-74630729D01*
X148800330Y-74955585D01*
X148593539Y-75265069D01*
X148222036Y-74849268D01*
X147694791Y-74595291D01*
X147679026Y-74592642D01*
X147447000Y-74713783D01*
X147447000Y-76073000D01*
X147467000Y-76073000D01*
X147467000Y-76327000D01*
X147447000Y-76327000D01*
X147447000Y-77686217D01*
X147679026Y-77807358D01*
X147694791Y-77804709D01*
X148222036Y-77550732D01*
X148593539Y-77134930D01*
X148800330Y-77444415D01*
X149286511Y-77769271D01*
X149860000Y-77883345D01*
X150433489Y-77769271D01*
X150919670Y-77444415D01*
X151130000Y-77129634D01*
X151340330Y-77444415D01*
X151826511Y-77769271D01*
X152400000Y-77883345D01*
X152973489Y-77769271D01*
X153459670Y-77444415D01*
X153670000Y-77129634D01*
X153880330Y-77444415D01*
X154366511Y-77769271D01*
X154940000Y-77883345D01*
X155513489Y-77769271D01*
X155999670Y-77444415D01*
X156206460Y-77134930D01*
X156577964Y-77550732D01*
X157105209Y-77804709D01*
X157120974Y-77807358D01*
X157353000Y-77686217D01*
X157353000Y-78875000D01*
X147955000Y-78875000D01*
X147520654Y-78961397D01*
X147193000Y-79180328D01*
X147193000Y-77686217D01*
X147193000Y-76327000D01*
X147193000Y-76073000D01*
X147193000Y-74713783D01*
X146960974Y-74592642D01*
X146945209Y-74595291D01*
X146417964Y-74849268D01*
X146028046Y-75285680D01*
X145834816Y-75838087D01*
X145979076Y-76073000D01*
X147193000Y-76073000D01*
X147193000Y-76327000D01*
X145979076Y-76327000D01*
X145834816Y-76561913D01*
X146028046Y-77114320D01*
X146417964Y-77550732D01*
X146945209Y-77804709D01*
X146960974Y-77807358D01*
X147193000Y-77686217D01*
X147193000Y-79180328D01*
X147152434Y-79207434D01*
X146906397Y-79575654D01*
X146820000Y-80010000D01*
X146906397Y-80444346D01*
X147152434Y-80812566D01*
X147520654Y-81058603D01*
X147955000Y-81145000D01*
X158911853Y-81145000D01*
X158885000Y-81280000D01*
X158971397Y-81714346D01*
X159217434Y-82082566D01*
X159585654Y-82328603D01*
X160020000Y-82415000D01*
X166815674Y-82415000D01*
X166591397Y-82750654D01*
X166505000Y-83185000D01*
X166505000Y-86521853D01*
X166370000Y-86495000D01*
X165935654Y-86581397D01*
X165567434Y-86827434D01*
X165334145Y-87176575D01*
X165100000Y-87130001D01*
X164665654Y-87216397D01*
X164297433Y-87462434D01*
X161757434Y-90002434D01*
X161511397Y-90370654D01*
X161425000Y-90805000D01*
X161425000Y-92611720D01*
X161421927Y-92604302D01*
X161243299Y-92425673D01*
X161009910Y-92329000D01*
X160757291Y-92329000D01*
X159030091Y-92329000D01*
X158796702Y-92425673D01*
X158618073Y-92604301D01*
X158554499Y-92757779D01*
X158539670Y-92735585D01*
X158053489Y-92410729D01*
X157988681Y-92397837D01*
X158090689Y-92355689D01*
X158394622Y-92052286D01*
X158559313Y-91655668D01*
X158559687Y-91226216D01*
X158395689Y-90829311D01*
X158365000Y-90798568D01*
X158365000Y-89793025D01*
X158468327Y-89689699D01*
X158565000Y-89456310D01*
X158565000Y-89203691D01*
X158565000Y-88003691D01*
X158468327Y-87770302D01*
X158328025Y-87629999D01*
X158468327Y-87489699D01*
X158565000Y-87256310D01*
X158565000Y-87003691D01*
X158565000Y-85803691D01*
X158468327Y-85570302D01*
X158365000Y-85466974D01*
X158365000Y-85379885D01*
X158417107Y-85327779D01*
X158513780Y-85094390D01*
X158513780Y-84841771D01*
X158513780Y-84044211D01*
X158420908Y-83820000D01*
X158513780Y-83595789D01*
X158513780Y-83356450D01*
X158513780Y-82784950D01*
X158513780Y-82545611D01*
X158417107Y-82312222D01*
X158238479Y-82133593D01*
X158005090Y-82036920D01*
X157765750Y-82036920D01*
X157607000Y-82195670D01*
X157607000Y-82943700D01*
X158355030Y-82943700D01*
X158513780Y-82784950D01*
X158513780Y-83356450D01*
X158355030Y-83197700D01*
X157607000Y-83197700D01*
X157607000Y-83217700D01*
X157353000Y-83217700D01*
X157353000Y-83197700D01*
X157353000Y-82943700D01*
X157353000Y-82195670D01*
X157194250Y-82036920D01*
X156954910Y-82036920D01*
X156721521Y-82133593D01*
X156542893Y-82312222D01*
X156446220Y-82545611D01*
X156446220Y-82784950D01*
X156604970Y-82943700D01*
X157353000Y-82943700D01*
X157353000Y-83197700D01*
X156604970Y-83197700D01*
X156446220Y-83356450D01*
X156446220Y-83595789D01*
X156539091Y-83819999D01*
X156446220Y-84044210D01*
X156446220Y-84296829D01*
X156446220Y-85094389D01*
X156542893Y-85327778D01*
X156595000Y-85379885D01*
X156595000Y-85466974D01*
X156491673Y-85570301D01*
X156395000Y-85803690D01*
X156395000Y-86056309D01*
X156395000Y-87256309D01*
X156491673Y-87489698D01*
X156631974Y-87630000D01*
X156491673Y-87770301D01*
X156395000Y-88003690D01*
X156395000Y-88256309D01*
X156395000Y-89456309D01*
X156491673Y-89689698D01*
X156595000Y-89793025D01*
X156595000Y-90798143D01*
X156565378Y-90827714D01*
X156400687Y-91224332D01*
X156400313Y-91653784D01*
X156564311Y-92050689D01*
X156867714Y-92354622D01*
X156971636Y-92397774D01*
X156906511Y-92410729D01*
X156420330Y-92735585D01*
X156210000Y-93050365D01*
X155999670Y-92735585D01*
X155513489Y-92410729D01*
X154940000Y-92296655D01*
X154366511Y-92410729D01*
X153880330Y-92735585D01*
X153670000Y-93050365D01*
X153459670Y-92735585D01*
X152973489Y-92410729D01*
X152400000Y-92296655D01*
X151826511Y-92410729D01*
X151340330Y-92735585D01*
X151130000Y-93050365D01*
X150919670Y-92735585D01*
X150433489Y-92410729D01*
X149860000Y-92296655D01*
X149286511Y-92410729D01*
X148800330Y-92735585D01*
X148593539Y-93045069D01*
X148222036Y-92629268D01*
X147694791Y-92375291D01*
X147679026Y-92372642D01*
X147447000Y-92493783D01*
X147447000Y-93853000D01*
X147467000Y-93853000D01*
X147467000Y-94107000D01*
X147447000Y-94107000D01*
X147447000Y-95466217D01*
X147679026Y-95587358D01*
X147694791Y-95584709D01*
X148222036Y-95330732D01*
X148593539Y-94914930D01*
X148800330Y-95224415D01*
X149286511Y-95549271D01*
X149860000Y-95663345D01*
X150433489Y-95549271D01*
X150919670Y-95224415D01*
X151130000Y-94909634D01*
X151340330Y-95224415D01*
X151826511Y-95549271D01*
X152400000Y-95663345D01*
X152973489Y-95549271D01*
X153459670Y-95224415D01*
X153670000Y-94909634D01*
X153880330Y-95224415D01*
X154366511Y-95549271D01*
X154940000Y-95663345D01*
X155513489Y-95549271D01*
X155999670Y-95224415D01*
X156210000Y-94909634D01*
X156420330Y-95224415D01*
X156906511Y-95549271D01*
X157480000Y-95663345D01*
X158053489Y-95549271D01*
X158539670Y-95224415D01*
X158554500Y-95202219D01*
X158618073Y-95355698D01*
X158796701Y-95534327D01*
X159030090Y-95631000D01*
X159282709Y-95631000D01*
X161009909Y-95631000D01*
X161243298Y-95534327D01*
X161421927Y-95355699D01*
X161425000Y-95348280D01*
X161425000Y-95414868D01*
X152686085Y-104153782D01*
X152559567Y-103964435D01*
X152191346Y-103718398D01*
X151757001Y-103632001D01*
X151716787Y-103640000D01*
X147193000Y-103640000D01*
X147193000Y-95466217D01*
X147193000Y-94107000D01*
X147193000Y-93853000D01*
X147193000Y-92493783D01*
X146960974Y-92372642D01*
X146945209Y-92375291D01*
X146417964Y-92629268D01*
X146028046Y-93065680D01*
X145834816Y-93618087D01*
X145979076Y-93853000D01*
X147193000Y-93853000D01*
X147193000Y-94107000D01*
X145979076Y-94107000D01*
X145834816Y-94341913D01*
X146028046Y-94894320D01*
X146417964Y-95330732D01*
X146945209Y-95584709D01*
X146960974Y-95587358D01*
X147193000Y-95466217D01*
X147193000Y-103640000D01*
X142105000Y-103640000D01*
X142105000Y-90170000D01*
X142018603Y-89735654D01*
X141772566Y-89367434D01*
X141404346Y-89121397D01*
X141198600Y-89080471D01*
X141198600Y-81464745D01*
X141198600Y-81095255D01*
X141084526Y-80521766D01*
X140759670Y-80035585D01*
X140721379Y-80010000D01*
X140759670Y-79984415D01*
X141084526Y-79498234D01*
X141198600Y-78924745D01*
X141198600Y-78555255D01*
X141084526Y-77981766D01*
X140759670Y-77495585D01*
X140721379Y-77470000D01*
X140759670Y-77444415D01*
X141084526Y-76958234D01*
X141198600Y-76384745D01*
X141198600Y-76015255D01*
X141084526Y-75441766D01*
X140759670Y-74955585D01*
X140721379Y-74930000D01*
X140759670Y-74904415D01*
X141084526Y-74418234D01*
X141198600Y-73844745D01*
X141198600Y-73475255D01*
X141084526Y-72901766D01*
X140759670Y-72415585D01*
X140721379Y-72390000D01*
X140759670Y-72364415D01*
X141084526Y-71878234D01*
X141198600Y-71304745D01*
X141198600Y-70935255D01*
X141084526Y-70361766D01*
X140759670Y-69875585D01*
X140721379Y-69850000D01*
X140759670Y-69824415D01*
X141084526Y-69338234D01*
X141198600Y-68764745D01*
X141198600Y-68395255D01*
X141084526Y-67821766D01*
X140759670Y-67335585D01*
X140721379Y-67310000D01*
X140759670Y-67284415D01*
X141084526Y-66798234D01*
X141198600Y-66224745D01*
X141198600Y-65855255D01*
X141084526Y-65281766D01*
X140759670Y-64795585D01*
X140273489Y-64470729D01*
X139700000Y-64356655D01*
X139126511Y-64470729D01*
X138640330Y-64795585D01*
X138430000Y-65110365D01*
X138219670Y-64795585D01*
X137733489Y-64470729D01*
X137160000Y-64356655D01*
X136586511Y-64470729D01*
X136100330Y-64795585D01*
X135890000Y-65110365D01*
X135679670Y-64795585D01*
X135193489Y-64470729D01*
X134620000Y-64356655D01*
X134046511Y-64470729D01*
X133560330Y-64795585D01*
X133350000Y-65110365D01*
X133139670Y-64795585D01*
X132653489Y-64470729D01*
X132080000Y-64356655D01*
X131506511Y-64470729D01*
X131020330Y-64795585D01*
X130810000Y-65110365D01*
X130599670Y-64795585D01*
X130113489Y-64470729D01*
X129540000Y-64356655D01*
X128966511Y-64470729D01*
X128480330Y-64795585D01*
X128270000Y-65110365D01*
X128059670Y-64795585D01*
X127573489Y-64470729D01*
X127000000Y-64356655D01*
X126426511Y-64470729D01*
X125940330Y-64795585D01*
X125730000Y-65110365D01*
X125519670Y-64795585D01*
X125033489Y-64470729D01*
X124460000Y-64356655D01*
X123886511Y-64470729D01*
X123400330Y-64795585D01*
X123190000Y-65110365D01*
X122979670Y-64795585D01*
X122493489Y-64470729D01*
X121920000Y-64356655D01*
X121346511Y-64470729D01*
X120860330Y-64795585D01*
X120650000Y-65110365D01*
X120439670Y-64795585D01*
X119953489Y-64470729D01*
X119380000Y-64356655D01*
X118806511Y-64470729D01*
X118320330Y-64795585D01*
X118305499Y-64817780D01*
X118241927Y-64664302D01*
X118063299Y-64485673D01*
X117829910Y-64389000D01*
X117577291Y-64389000D01*
X115850091Y-64389000D01*
X115616702Y-64485673D01*
X115438073Y-64664301D01*
X115341400Y-64897690D01*
X115341400Y-65150309D01*
X115341400Y-67182309D01*
X115394291Y-67309999D01*
X115341400Y-67437690D01*
X115341400Y-67690309D01*
X115341400Y-69722309D01*
X115394291Y-69849999D01*
X115341400Y-69977690D01*
X115341400Y-70230309D01*
X115341400Y-72262309D01*
X115394291Y-72389999D01*
X115341400Y-72517690D01*
X115341400Y-72770309D01*
X115341400Y-74802309D01*
X115394291Y-74929999D01*
X115341400Y-75057690D01*
X115341400Y-75310309D01*
X115341400Y-77342309D01*
X115394291Y-77469999D01*
X115341400Y-77597690D01*
X115341400Y-77850309D01*
X115341400Y-79882309D01*
X115394291Y-80009999D01*
X115341400Y-80137690D01*
X115341400Y-80390309D01*
X115341400Y-82422309D01*
X115438073Y-82655698D01*
X115616701Y-82834327D01*
X115850090Y-82931000D01*
X116102709Y-82931000D01*
X117829909Y-82931000D01*
X118063298Y-82834327D01*
X118241927Y-82655699D01*
X118305500Y-82502220D01*
X118320330Y-82524415D01*
X118806511Y-82849271D01*
X119380000Y-82963345D01*
X119953489Y-82849271D01*
X120439670Y-82524415D01*
X120650000Y-82209634D01*
X120860330Y-82524415D01*
X121346511Y-82849271D01*
X121920000Y-82963345D01*
X122493489Y-82849271D01*
X122979670Y-82524415D01*
X123190000Y-82209634D01*
X123400330Y-82524415D01*
X123886511Y-82849271D01*
X124460000Y-82963345D01*
X125033489Y-82849271D01*
X125519670Y-82524415D01*
X125730000Y-82209634D01*
X125940330Y-82524415D01*
X126426511Y-82849271D01*
X127000000Y-82963345D01*
X127573489Y-82849271D01*
X128059670Y-82524415D01*
X128270000Y-82209634D01*
X128480330Y-82524415D01*
X128966511Y-82849271D01*
X129540000Y-82963345D01*
X130113489Y-82849271D01*
X130599670Y-82524415D01*
X130810000Y-82209634D01*
X131020330Y-82524415D01*
X131506511Y-82849271D01*
X132080000Y-82963345D01*
X132653489Y-82849271D01*
X133139670Y-82524415D01*
X133350000Y-82209634D01*
X133560330Y-82524415D01*
X134046511Y-82849271D01*
X134620000Y-82963345D01*
X135193489Y-82849271D01*
X135679670Y-82524415D01*
X135890000Y-82209634D01*
X136100330Y-82524415D01*
X136586511Y-82849271D01*
X137160000Y-82963345D01*
X137733489Y-82849271D01*
X138219670Y-82524415D01*
X138430000Y-82209634D01*
X138640330Y-82524415D01*
X139126511Y-82849271D01*
X139700000Y-82963345D01*
X140273489Y-82849271D01*
X140759670Y-82524415D01*
X141084526Y-82038234D01*
X141198600Y-81464745D01*
X141198600Y-89080471D01*
X140970000Y-89035000D01*
X129540000Y-89035000D01*
X129105654Y-89121397D01*
X128737434Y-89367434D01*
X128491397Y-89735654D01*
X128405000Y-90170000D01*
X128491397Y-90604346D01*
X128737434Y-90972566D01*
X129105654Y-91218603D01*
X129540000Y-91305000D01*
X140970000Y-91305000D01*
X141404346Y-91218603D01*
X141772566Y-90972566D01*
X142018603Y-90604346D01*
X142105000Y-90170000D01*
X142105000Y-103640000D01*
X139065000Y-103640000D01*
X138630654Y-103726397D01*
X138262434Y-103972434D01*
X138016397Y-104340654D01*
X137930000Y-104775000D01*
X138016397Y-105209346D01*
X138262434Y-105577566D01*
X138630654Y-105823603D01*
X139065000Y-105910000D01*
X150940674Y-105910000D01*
X150716397Y-106245654D01*
X150630000Y-106680000D01*
X150630000Y-120650000D01*
X150716397Y-121084346D01*
X150962434Y-121452566D01*
X151330654Y-121698603D01*
X151765000Y-121785000D01*
X151900000Y-121758146D01*
X151900000Y-133985000D01*
X151986397Y-134419346D01*
X152232434Y-134787566D01*
X152600654Y-135033603D01*
X153035000Y-135120000D01*
X153170000Y-135093146D01*
X153170000Y-135419868D01*
X149692434Y-138897434D01*
X149446397Y-139265654D01*
X149360000Y-139700000D01*
X149360000Y-146849868D01*
X148119868Y-148090000D01*
X144284144Y-148090000D01*
X144284144Y-119587698D01*
X144272242Y-119349903D01*
X144272242Y-116563339D01*
X144060010Y-116049697D01*
X143667370Y-115656371D01*
X143459487Y-115570050D01*
X143665303Y-115485010D01*
X144058629Y-115092370D01*
X144271757Y-114579100D01*
X144272242Y-114023339D01*
X144060010Y-113509697D01*
X143667370Y-113116371D01*
X143459487Y-113030050D01*
X143665303Y-112945010D01*
X144058629Y-112552370D01*
X144271757Y-112039100D01*
X144272242Y-111483339D01*
X144060010Y-110969697D01*
X143667370Y-110576371D01*
X143154100Y-110363243D01*
X142598339Y-110362758D01*
X142084697Y-110574990D01*
X141691371Y-110967630D01*
X141478243Y-111480900D01*
X141477758Y-112036661D01*
X141689990Y-112550303D01*
X142082630Y-112943629D01*
X142290512Y-113029949D01*
X142084697Y-113114990D01*
X141691371Y-113507630D01*
X141478243Y-114020900D01*
X141477758Y-114576661D01*
X141689990Y-115090303D01*
X142082630Y-115483629D01*
X142290512Y-115569949D01*
X142084697Y-115654990D01*
X141691371Y-116047630D01*
X141478243Y-116560900D01*
X141477758Y-117116661D01*
X141689990Y-117630303D01*
X142082630Y-118023629D01*
X142274727Y-118103394D01*
X142143857Y-118157603D01*
X142074392Y-118399787D01*
X142875000Y-119200395D01*
X143675608Y-118399787D01*
X143606143Y-118157603D01*
X143465682Y-118107491D01*
X143665303Y-118025010D01*
X144058629Y-117632370D01*
X144271757Y-117119100D01*
X144272242Y-116563339D01*
X144272242Y-119349903D01*
X144256362Y-119032632D01*
X144097397Y-118648857D01*
X143855213Y-118579392D01*
X143054605Y-119380000D01*
X143855213Y-120180608D01*
X144097397Y-120111143D01*
X144284144Y-119587698D01*
X144284144Y-148090000D01*
X144067917Y-148090000D01*
X144271757Y-147599100D01*
X144272242Y-147043339D01*
X144060010Y-146529697D01*
X143667370Y-146136371D01*
X143459487Y-146050050D01*
X143665303Y-145965010D01*
X144058629Y-145572370D01*
X144271757Y-145059100D01*
X144272242Y-144503339D01*
X144060010Y-143989697D01*
X143667370Y-143596371D01*
X143459487Y-143510050D01*
X143665303Y-143425010D01*
X144058629Y-143032370D01*
X144271757Y-142519100D01*
X144272242Y-141963339D01*
X144060010Y-141449697D01*
X143667370Y-141056371D01*
X143459487Y-140970050D01*
X143665303Y-140885010D01*
X144058629Y-140492370D01*
X144271757Y-139979100D01*
X144272242Y-139423339D01*
X144060010Y-138909697D01*
X143667370Y-138516371D01*
X143459487Y-138430050D01*
X143665303Y-138345010D01*
X144058629Y-137952370D01*
X144271757Y-137439100D01*
X144272242Y-136883339D01*
X144060010Y-136369697D01*
X143667370Y-135976371D01*
X143459487Y-135890050D01*
X143665303Y-135805010D01*
X144058629Y-135412370D01*
X144271757Y-134899100D01*
X144272242Y-134343339D01*
X144060010Y-133829697D01*
X143667370Y-133436371D01*
X143459487Y-133350050D01*
X143665303Y-133265010D01*
X144058629Y-132872370D01*
X144271757Y-132359100D01*
X144272242Y-131803339D01*
X144060010Y-131289697D01*
X143667370Y-130896371D01*
X143459487Y-130810050D01*
X143665303Y-130725010D01*
X144058629Y-130332370D01*
X144271757Y-129819100D01*
X144272242Y-129263339D01*
X144060010Y-128749697D01*
X143667370Y-128356371D01*
X143459487Y-128270050D01*
X143665303Y-128185010D01*
X144058629Y-127792370D01*
X144271757Y-127279100D01*
X144272242Y-126723339D01*
X144060010Y-126209697D01*
X143667370Y-125816371D01*
X143459487Y-125730050D01*
X143665303Y-125645010D01*
X144058629Y-125252370D01*
X144271757Y-124739100D01*
X144272242Y-124183339D01*
X144060010Y-123669697D01*
X143667370Y-123276371D01*
X143459487Y-123190050D01*
X143665303Y-123105010D01*
X144058629Y-122712370D01*
X144271757Y-122199100D01*
X144272242Y-121643339D01*
X144060010Y-121129697D01*
X143667370Y-120736371D01*
X143475272Y-120656605D01*
X143606143Y-120602397D01*
X143675608Y-120360213D01*
X142875000Y-119559605D01*
X142695395Y-119739210D01*
X142695395Y-119380000D01*
X141894787Y-118579392D01*
X141652603Y-118648857D01*
X141465856Y-119172302D01*
X141493638Y-119727368D01*
X141652603Y-120111143D01*
X141894787Y-120180608D01*
X142695395Y-119380000D01*
X142695395Y-119739210D01*
X142074392Y-120360213D01*
X142143857Y-120602397D01*
X142284317Y-120652508D01*
X142084697Y-120734990D01*
X141691371Y-121127630D01*
X141478243Y-121640900D01*
X141477758Y-122196661D01*
X141689990Y-122710303D01*
X142082630Y-123103629D01*
X142290512Y-123189949D01*
X142084697Y-123274990D01*
X141691371Y-123667630D01*
X141478243Y-124180900D01*
X141477758Y-124736661D01*
X141689990Y-125250303D01*
X142082630Y-125643629D01*
X142290512Y-125729949D01*
X142084697Y-125814990D01*
X141691371Y-126207630D01*
X141478243Y-126720900D01*
X141477758Y-127276661D01*
X141689990Y-127790303D01*
X142082630Y-128183629D01*
X142290512Y-128269949D01*
X142084697Y-128354990D01*
X141691371Y-128747630D01*
X141478243Y-129260900D01*
X141477758Y-129816661D01*
X141689990Y-130330303D01*
X142082630Y-130723629D01*
X142290512Y-130809949D01*
X142084697Y-130894990D01*
X141691371Y-131287630D01*
X141478243Y-131800900D01*
X141477758Y-132356661D01*
X141689990Y-132870303D01*
X142082630Y-133263629D01*
X142290512Y-133349949D01*
X142084697Y-133434990D01*
X141691371Y-133827630D01*
X141478243Y-134340900D01*
X141477758Y-134896661D01*
X141689990Y-135410303D01*
X142082630Y-135803629D01*
X142290512Y-135889949D01*
X142084697Y-135974990D01*
X141691371Y-136367630D01*
X141478243Y-136880900D01*
X141477758Y-137436661D01*
X141689990Y-137950303D01*
X142082630Y-138343629D01*
X142290512Y-138429949D01*
X142084697Y-138514990D01*
X141691371Y-138907630D01*
X141478243Y-139420900D01*
X141477758Y-139976661D01*
X141689990Y-140490303D01*
X142082630Y-140883629D01*
X142290512Y-140969949D01*
X142084697Y-141054990D01*
X141691371Y-141447630D01*
X141478243Y-141960900D01*
X141477758Y-142516661D01*
X141689990Y-143030303D01*
X142082630Y-143423629D01*
X142290512Y-143509949D01*
X142084697Y-143594990D01*
X141691371Y-143987630D01*
X141478243Y-144500900D01*
X141477758Y-145056661D01*
X141689990Y-145570303D01*
X142082630Y-145963629D01*
X142290512Y-146049949D01*
X142084697Y-146134990D01*
X141691371Y-146527630D01*
X141478243Y-147040900D01*
X141477758Y-147596661D01*
X141681600Y-148090000D01*
X134112000Y-148090000D01*
X134112000Y-147955691D01*
X134112000Y-146431691D01*
X134015327Y-146198302D01*
X133836699Y-146019673D01*
X133603310Y-145923000D01*
X133547386Y-145923000D01*
X133898629Y-145572370D01*
X134111757Y-145059100D01*
X134112242Y-144503339D01*
X133900010Y-143989697D01*
X133507370Y-143596371D01*
X133299487Y-143510050D01*
X133505303Y-143425010D01*
X133898629Y-143032370D01*
X134111757Y-142519100D01*
X134112242Y-141963339D01*
X133900010Y-141449697D01*
X133507370Y-141056371D01*
X133299487Y-140970050D01*
X133505303Y-140885010D01*
X133898629Y-140492370D01*
X134111757Y-139979100D01*
X134112242Y-139423339D01*
X133900010Y-138909697D01*
X133507370Y-138516371D01*
X133299487Y-138430050D01*
X133505303Y-138345010D01*
X133898629Y-137952370D01*
X134111757Y-137439100D01*
X134112242Y-136883339D01*
X133900010Y-136369697D01*
X133507370Y-135976371D01*
X133299487Y-135890050D01*
X133505303Y-135805010D01*
X133898629Y-135412370D01*
X134111757Y-134899100D01*
X134112242Y-134343339D01*
X133900010Y-133829697D01*
X133507370Y-133436371D01*
X133299487Y-133350050D01*
X133505303Y-133265010D01*
X133898629Y-132872370D01*
X134111757Y-132359100D01*
X134112242Y-131803339D01*
X133900010Y-131289697D01*
X133507370Y-130896371D01*
X133299487Y-130810050D01*
X133505303Y-130725010D01*
X133898629Y-130332370D01*
X134111757Y-129819100D01*
X134112242Y-129263339D01*
X134112242Y-119103339D01*
X133900010Y-118589697D01*
X133507370Y-118196371D01*
X133299487Y-118110050D01*
X133505303Y-118025010D01*
X133898629Y-117632370D01*
X134111757Y-117119100D01*
X134112242Y-116563339D01*
X133900010Y-116049697D01*
X133507370Y-115656371D01*
X133299487Y-115570050D01*
X133505303Y-115485010D01*
X133898629Y-115092370D01*
X134111757Y-114579100D01*
X134112242Y-114023339D01*
X133900010Y-113509697D01*
X133507370Y-113116371D01*
X133299487Y-113030050D01*
X133505303Y-112945010D01*
X133898629Y-112552370D01*
X134111757Y-112039100D01*
X134112242Y-111483339D01*
X133900010Y-110969697D01*
X133507370Y-110576371D01*
X133299487Y-110490050D01*
X133505303Y-110405010D01*
X133898629Y-110012370D01*
X134111757Y-109499100D01*
X134112242Y-108943339D01*
X133900010Y-108429697D01*
X133507370Y-108036371D01*
X133299487Y-107950050D01*
X133505303Y-107865010D01*
X133898629Y-107472370D01*
X134111757Y-106959100D01*
X134112242Y-106403339D01*
X133900010Y-105889697D01*
X133507370Y-105496371D01*
X133299487Y-105410050D01*
X133505303Y-105325010D01*
X133898629Y-104932370D01*
X134111757Y-104419100D01*
X134112242Y-103863339D01*
X133900010Y-103349697D01*
X133507370Y-102956371D01*
X132994100Y-102743243D01*
X132438339Y-102742758D01*
X131924697Y-102954990D01*
X131531371Y-103347630D01*
X131318243Y-103860900D01*
X131317758Y-104416661D01*
X131529990Y-104930303D01*
X131922630Y-105323629D01*
X132130512Y-105409949D01*
X131924697Y-105494990D01*
X131531371Y-105887630D01*
X131318243Y-106400900D01*
X131317758Y-106956661D01*
X131529990Y-107470303D01*
X131922630Y-107863629D01*
X132130512Y-107949949D01*
X131924697Y-108034990D01*
X131531371Y-108427630D01*
X131318243Y-108940900D01*
X131317758Y-109496661D01*
X131529990Y-110010303D01*
X131922630Y-110403629D01*
X132130512Y-110489949D01*
X131924697Y-110574990D01*
X131531371Y-110967630D01*
X131318243Y-111480900D01*
X131317758Y-112036661D01*
X131529990Y-112550303D01*
X131922630Y-112943629D01*
X132130512Y-113029949D01*
X131924697Y-113114990D01*
X131531371Y-113507630D01*
X131318243Y-114020900D01*
X131317758Y-114576661D01*
X131529990Y-115090303D01*
X131922630Y-115483629D01*
X132130512Y-115569949D01*
X131924697Y-115654990D01*
X131531371Y-116047630D01*
X131318243Y-116560900D01*
X131317758Y-117116661D01*
X131529990Y-117630303D01*
X131922630Y-118023629D01*
X132130512Y-118109949D01*
X131924697Y-118194990D01*
X131531371Y-118587630D01*
X131318243Y-119100900D01*
X131317758Y-119656661D01*
X131529990Y-120170303D01*
X131882071Y-120523000D01*
X131826691Y-120523000D01*
X131593302Y-120619673D01*
X131414673Y-120798301D01*
X131318000Y-121031690D01*
X131318000Y-121284309D01*
X131318000Y-122808309D01*
X131414673Y-123041698D01*
X131593301Y-123220327D01*
X131826690Y-123317000D01*
X132079309Y-123317000D01*
X133603309Y-123317000D01*
X133836698Y-123220327D01*
X134015327Y-123041699D01*
X134112000Y-122808310D01*
X134112000Y-122555691D01*
X134112000Y-121031691D01*
X134015327Y-120798302D01*
X133836699Y-120619673D01*
X133603310Y-120523000D01*
X133547386Y-120523000D01*
X133898629Y-120172370D01*
X134111757Y-119659100D01*
X134112242Y-119103339D01*
X134112242Y-129263339D01*
X133900010Y-128749697D01*
X133507370Y-128356371D01*
X132994100Y-128143243D01*
X132438339Y-128142758D01*
X131924697Y-128354990D01*
X131531371Y-128747630D01*
X131318243Y-129260900D01*
X131317758Y-129816661D01*
X131529990Y-130330303D01*
X131922630Y-130723629D01*
X132130512Y-130809949D01*
X131924697Y-130894990D01*
X131531371Y-131287630D01*
X131318243Y-131800900D01*
X131317758Y-132356661D01*
X131529990Y-132870303D01*
X131922630Y-133263629D01*
X132130512Y-133349949D01*
X131924697Y-133434990D01*
X131531371Y-133827630D01*
X131318243Y-134340900D01*
X131317758Y-134896661D01*
X131529990Y-135410303D01*
X131922630Y-135803629D01*
X132130512Y-135889949D01*
X131924697Y-135974990D01*
X131531371Y-136367630D01*
X131318243Y-136880900D01*
X131317758Y-137436661D01*
X131529990Y-137950303D01*
X131922630Y-138343629D01*
X132130512Y-138429949D01*
X131924697Y-138514990D01*
X131531371Y-138907630D01*
X131318243Y-139420900D01*
X131317758Y-139976661D01*
X131529990Y-140490303D01*
X131922630Y-140883629D01*
X132130512Y-140969949D01*
X131924697Y-141054990D01*
X131531371Y-141447630D01*
X131318243Y-141960900D01*
X131317758Y-142516661D01*
X131529990Y-143030303D01*
X131922630Y-143423629D01*
X132130512Y-143509949D01*
X131924697Y-143594990D01*
X131531371Y-143987630D01*
X131318243Y-144500900D01*
X131317758Y-145056661D01*
X131529990Y-145570303D01*
X131882071Y-145923000D01*
X131826691Y-145923000D01*
X131593302Y-146019673D01*
X131414673Y-146198301D01*
X131318000Y-146431690D01*
X131318000Y-146684309D01*
X131318000Y-148090000D01*
X127000000Y-148090000D01*
X126565654Y-148176397D01*
X126197434Y-148422434D01*
X125951397Y-148790654D01*
X125865000Y-149225000D01*
X125951397Y-149659346D01*
X126197434Y-150027566D01*
X126565654Y-150273603D01*
X127000000Y-150360000D01*
X127158671Y-150360000D01*
X127135000Y-150479002D01*
X127221397Y-150913348D01*
X127467434Y-151281568D01*
X127835654Y-151527605D01*
X128270000Y-151614002D01*
X149875998Y-151614002D01*
X150310343Y-151527605D01*
X150310344Y-151527605D01*
X150678564Y-151281568D01*
X152567566Y-149392566D01*
X152813603Y-149024346D01*
X152813603Y-149024345D01*
X152900000Y-148590000D01*
X152900000Y-146520132D01*
X153505132Y-145915000D01*
X155494572Y-145915000D01*
X155575000Y-145930998D01*
X156009346Y-145844602D01*
X156377566Y-145598564D01*
X156623604Y-145230344D01*
X156710000Y-144795998D01*
X156623604Y-144361653D01*
X156377566Y-143993432D01*
X156361568Y-143977434D01*
X155993348Y-143731397D01*
X155559002Y-143645000D01*
X153035000Y-143645000D01*
X152600654Y-143731397D01*
X152232434Y-143977434D01*
X151630000Y-144579868D01*
X151630000Y-140170132D01*
X155107566Y-136692566D01*
X155353603Y-136324346D01*
X155353604Y-136324345D01*
X155440000Y-135890000D01*
X155440000Y-123660132D01*
X156377566Y-122722566D01*
X156623603Y-122354346D01*
X156623603Y-122354345D01*
X156710000Y-121920000D01*
X156710000Y-118110000D01*
X156623603Y-117675654D01*
X156377566Y-117307434D01*
X156009346Y-117061397D01*
X155575000Y-116975000D01*
X155440000Y-117001853D01*
X155440000Y-108420132D01*
X165886568Y-97973564D01*
X166132605Y-97605344D01*
X166132605Y-97605343D01*
X166219002Y-97170998D01*
X166219002Y-93196130D01*
X166840132Y-92575000D01*
X169545000Y-92575000D01*
X169979345Y-92488603D01*
X169979346Y-92488603D01*
X170347566Y-92242566D01*
X171617566Y-90972566D01*
X171863603Y-90604345D01*
X171950000Y-90170000D01*
X171863603Y-89735655D01*
X171617566Y-89367434D01*
X171249345Y-89121397D01*
X170815000Y-89035000D01*
X170380655Y-89121397D01*
X170045000Y-89345674D01*
X170045000Y-87630000D01*
X169958603Y-87195654D01*
X169712566Y-86827434D01*
X169344346Y-86581397D01*
X168910000Y-86495000D01*
X168775000Y-86521853D01*
X168775000Y-83655132D01*
X169380132Y-83050000D01*
X172720000Y-83050000D01*
X173154346Y-82963603D01*
X173522566Y-82717566D01*
X173768603Y-82349346D01*
X173855000Y-81915000D01*
X173768603Y-81480654D01*
X173522566Y-81112434D01*
X173154346Y-80866397D01*
X172720000Y-80780000D01*
X169745132Y-80780000D01*
X170982566Y-79542567D01*
X171228603Y-79174346D01*
X171314999Y-78740000D01*
X171228603Y-78305655D01*
X170982566Y-77937434D01*
X170736075Y-77772734D01*
X170753489Y-77769271D01*
X171239670Y-77444415D01*
X171450000Y-77129634D01*
X171660330Y-77444415D01*
X172146511Y-77769271D01*
X172720000Y-77883345D01*
X173293489Y-77769271D01*
X173779670Y-77444415D01*
X173990000Y-77129634D01*
X174200330Y-77444415D01*
X174686511Y-77769271D01*
X175260000Y-77883345D01*
X175833489Y-77769271D01*
X176319670Y-77444415D01*
X176530000Y-77129634D01*
X176740330Y-77444415D01*
X177226511Y-77769271D01*
X177800000Y-77883345D01*
X178373489Y-77769271D01*
X178859670Y-77444415D01*
X179070000Y-77129634D01*
X179280330Y-77444415D01*
X179766511Y-77769271D01*
X180340000Y-77883345D01*
X180913489Y-77769271D01*
X181399670Y-77444415D01*
X181610000Y-77129634D01*
X181820330Y-77444415D01*
X182306511Y-77769271D01*
X182880000Y-77883345D01*
X183453489Y-77769271D01*
X183939670Y-77444415D01*
X184150000Y-77129634D01*
X184360330Y-77444415D01*
X184846511Y-77769271D01*
X185420000Y-77883345D01*
X185993489Y-77769271D01*
X186479670Y-77444415D01*
X186494500Y-77422219D01*
X186558073Y-77575698D01*
X186736701Y-77754327D01*
X186970090Y-77851000D01*
X187222709Y-77851000D01*
X187674250Y-77851000D01*
X187833000Y-77692250D01*
X187833000Y-92446974D01*
X187675673Y-92604301D01*
X187651319Y-92663096D01*
X187554818Y-92573615D01*
X187072944Y-92374025D01*
X186817000Y-92493164D01*
X186817000Y-93853000D01*
X186837000Y-93853000D01*
X186837000Y-94107000D01*
X186817000Y-94107000D01*
X186817000Y-95466836D01*
X187072944Y-95585975D01*
X187554818Y-95386385D01*
X187651319Y-95296903D01*
X187675673Y-95355698D01*
X187854301Y-95534327D01*
X188087690Y-95631000D01*
X188340309Y-95631000D01*
X190372309Y-95631000D01*
X190605698Y-95534327D01*
X190784327Y-95355699D01*
X190881000Y-95122310D01*
X190881000Y-144653331D01*
X189971828Y-144652538D01*
X188991239Y-145057709D01*
X188240345Y-145807293D01*
X187833464Y-146787173D01*
X187832538Y-147848172D01*
X188237709Y-148828761D01*
X188987293Y-149579655D01*
X189967173Y-149986536D01*
X191028172Y-149987462D01*
X192008761Y-149582291D01*
X192759655Y-148832707D01*
X193166536Y-147852827D01*
X193167462Y-146791828D01*
X193167462Y-151690000D01*
X186829144Y-151690000D01*
X186829144Y-111967698D01*
X186801362Y-111412632D01*
X186642397Y-111028857D01*
X186563000Y-111006083D01*
X186563000Y-95466836D01*
X186563000Y-94107000D01*
X186563000Y-93853000D01*
X186563000Y-92493164D01*
X186307056Y-92374025D01*
X185825182Y-92573615D01*
X185352812Y-93011621D01*
X185084017Y-93597054D01*
X185202633Y-93853000D01*
X186563000Y-93853000D01*
X186563000Y-94107000D01*
X185202633Y-94107000D01*
X185084017Y-94362946D01*
X185352812Y-94948379D01*
X185825182Y-95386385D01*
X186307056Y-95585975D01*
X186563000Y-95466836D01*
X186563000Y-111006083D01*
X186400213Y-110959392D01*
X186220608Y-111138997D01*
X186220608Y-110779787D01*
X186151143Y-110537603D01*
X185627698Y-110350856D01*
X185072632Y-110378638D01*
X184688857Y-110537603D01*
X184619392Y-110779787D01*
X185420000Y-111580395D01*
X186220608Y-110779787D01*
X186220608Y-111138997D01*
X185599605Y-111760000D01*
X186400213Y-112560608D01*
X186642397Y-112491143D01*
X186829144Y-111967698D01*
X186829144Y-151690000D01*
X186817242Y-151690000D01*
X186817242Y-116563339D01*
X186605010Y-116049697D01*
X186220608Y-115664623D01*
X186220608Y-112740213D01*
X185420000Y-111939605D01*
X185240395Y-112119210D01*
X185240395Y-111760000D01*
X184439787Y-110959392D01*
X184197603Y-111028857D01*
X184010856Y-111552302D01*
X184038638Y-112107368D01*
X184197603Y-112491143D01*
X184439787Y-112560608D01*
X185240395Y-111760000D01*
X185240395Y-112119210D01*
X184619392Y-112740213D01*
X184688857Y-112982397D01*
X185212302Y-113169144D01*
X185767368Y-113141362D01*
X186151143Y-112982397D01*
X186220608Y-112740213D01*
X186220608Y-115664623D01*
X186212370Y-115656371D01*
X185699100Y-115443243D01*
X185143339Y-115442758D01*
X184629697Y-115654990D01*
X184236371Y-116047630D01*
X184023243Y-116560900D01*
X184022758Y-117116661D01*
X184234990Y-117630303D01*
X184627630Y-118023629D01*
X185140900Y-118236757D01*
X185696661Y-118237242D01*
X186210303Y-118025010D01*
X186603629Y-117632370D01*
X186816757Y-117119100D01*
X186817242Y-116563339D01*
X186817242Y-151690000D01*
X184277000Y-151690000D01*
X184277000Y-127888310D01*
X184277000Y-127635691D01*
X184277000Y-126111691D01*
X184180327Y-125878302D01*
X184001699Y-125699673D01*
X183768310Y-125603000D01*
X183515691Y-125603000D01*
X183108600Y-125603000D01*
X183108600Y-105282309D01*
X183108600Y-104425750D01*
X183108600Y-103854250D01*
X183108600Y-102997691D01*
X183108600Y-101472310D01*
X183108600Y-101219691D01*
X183108600Y-99187691D01*
X183108600Y-95122310D01*
X183108600Y-94869691D01*
X183108600Y-92837691D01*
X183011927Y-92604302D01*
X182833299Y-92425673D01*
X182599910Y-92329000D01*
X182347291Y-92329000D01*
X180620091Y-92329000D01*
X180386702Y-92425673D01*
X180208073Y-92604301D01*
X180144499Y-92757779D01*
X180129670Y-92735585D01*
X179643489Y-92410729D01*
X179070000Y-92296655D01*
X178496511Y-92410729D01*
X178010330Y-92735585D01*
X177800000Y-93050365D01*
X177589670Y-92735585D01*
X177103489Y-92410729D01*
X176530000Y-92296655D01*
X175956511Y-92410729D01*
X175470330Y-92735585D01*
X175263539Y-93045069D01*
X174892036Y-92629268D01*
X174364791Y-92375291D01*
X174349026Y-92372642D01*
X174117000Y-92493783D01*
X174117000Y-93853000D01*
X174137000Y-93853000D01*
X174137000Y-94107000D01*
X174117000Y-94107000D01*
X174117000Y-95466217D01*
X174349026Y-95587358D01*
X174364791Y-95584709D01*
X174892036Y-95330732D01*
X175263539Y-94914930D01*
X175470330Y-95224415D01*
X175956511Y-95549271D01*
X176530000Y-95663345D01*
X177103489Y-95549271D01*
X177589670Y-95224415D01*
X177800000Y-94909634D01*
X178010330Y-95224415D01*
X178496511Y-95549271D01*
X179070000Y-95663345D01*
X179643489Y-95549271D01*
X180129670Y-95224415D01*
X180144500Y-95202219D01*
X180208073Y-95355698D01*
X180386701Y-95534327D01*
X180620090Y-95631000D01*
X180872709Y-95631000D01*
X182599909Y-95631000D01*
X182833298Y-95534327D01*
X183011927Y-95355699D01*
X183108600Y-95122310D01*
X183108600Y-99187691D01*
X183011927Y-98954302D01*
X182833299Y-98775673D01*
X182599910Y-98679000D01*
X182347291Y-98679000D01*
X180620091Y-98679000D01*
X180386702Y-98775673D01*
X180208073Y-98954301D01*
X180144499Y-99107779D01*
X180129670Y-99085585D01*
X179643489Y-98760729D01*
X179070000Y-98646655D01*
X178496511Y-98760729D01*
X178010330Y-99085585D01*
X177800000Y-99400365D01*
X177589670Y-99085585D01*
X177103489Y-98760729D01*
X176530000Y-98646655D01*
X175956511Y-98760729D01*
X175470330Y-99085585D01*
X175260000Y-99400365D01*
X175049670Y-99085585D01*
X174563489Y-98760729D01*
X173990000Y-98646655D01*
X173863000Y-98671916D01*
X173863000Y-95466217D01*
X173863000Y-94107000D01*
X173863000Y-93853000D01*
X173863000Y-92493783D01*
X173630974Y-92372642D01*
X173615209Y-92375291D01*
X173087964Y-92629268D01*
X172698046Y-93065680D01*
X172504816Y-93618087D01*
X172649076Y-93853000D01*
X173863000Y-93853000D01*
X173863000Y-94107000D01*
X172649076Y-94107000D01*
X172504816Y-94341913D01*
X172698046Y-94894320D01*
X173087964Y-95330732D01*
X173615209Y-95584709D01*
X173630974Y-95587358D01*
X173863000Y-95466217D01*
X173863000Y-98671916D01*
X173416511Y-98760729D01*
X172930330Y-99085585D01*
X172605474Y-99571766D01*
X172491400Y-100145255D01*
X172491400Y-100514745D01*
X172605474Y-101088234D01*
X172930330Y-101574415D01*
X173416511Y-101899271D01*
X173990000Y-102013345D01*
X174563489Y-101899271D01*
X175049670Y-101574415D01*
X175260000Y-101259634D01*
X175470330Y-101574415D01*
X175956511Y-101899271D01*
X176530000Y-102013345D01*
X177103489Y-101899271D01*
X177589670Y-101574415D01*
X177800000Y-101259634D01*
X178010330Y-101574415D01*
X178496511Y-101899271D01*
X179070000Y-102013345D01*
X179643489Y-101899271D01*
X180129670Y-101574415D01*
X180144500Y-101552219D01*
X180208073Y-101705698D01*
X180386701Y-101884327D01*
X180620090Y-101981000D01*
X180872709Y-101981000D01*
X182599909Y-101981000D01*
X182833298Y-101884327D01*
X183011927Y-101705699D01*
X183108600Y-101472310D01*
X183108600Y-102997691D01*
X183011927Y-102764302D01*
X182833299Y-102585673D01*
X182599910Y-102489000D01*
X182347291Y-102489000D01*
X181895750Y-102489000D01*
X181737000Y-102647750D01*
X181737000Y-104013000D01*
X182949850Y-104013000D01*
X183108600Y-103854250D01*
X183108600Y-104425750D01*
X182949850Y-104267000D01*
X181737000Y-104267000D01*
X181737000Y-105632250D01*
X181895750Y-105791000D01*
X182347291Y-105791000D01*
X182599910Y-105791000D01*
X182833299Y-105694327D01*
X183011927Y-105515698D01*
X183108600Y-105282309D01*
X183108600Y-125603000D01*
X181991691Y-125603000D01*
X181758302Y-125699673D01*
X181749144Y-125708830D01*
X181749144Y-111967698D01*
X181721362Y-111412632D01*
X181562397Y-111028857D01*
X181483000Y-111006083D01*
X181483000Y-105632250D01*
X181483000Y-104267000D01*
X181483000Y-104013000D01*
X181483000Y-102647750D01*
X181324250Y-102489000D01*
X180872709Y-102489000D01*
X180620090Y-102489000D01*
X180386701Y-102585673D01*
X180208073Y-102764302D01*
X180126241Y-102961860D01*
X179972036Y-102789268D01*
X179444791Y-102535291D01*
X179429026Y-102532642D01*
X179197000Y-102653783D01*
X179197000Y-104013000D01*
X180270150Y-104013000D01*
X180410924Y-104013000D01*
X181483000Y-104013000D01*
X181483000Y-104267000D01*
X180410924Y-104267000D01*
X180270150Y-104267000D01*
X179197000Y-104267000D01*
X179197000Y-105626217D01*
X179429026Y-105747358D01*
X179444791Y-105744709D01*
X179972036Y-105490732D01*
X180126241Y-105318139D01*
X180208073Y-105515698D01*
X180386701Y-105694327D01*
X180620090Y-105791000D01*
X180872709Y-105791000D01*
X181324250Y-105791000D01*
X181483000Y-105632250D01*
X181483000Y-111006083D01*
X181320213Y-110959392D01*
X181140608Y-111138997D01*
X181140608Y-110779787D01*
X181071143Y-110537603D01*
X180547698Y-110350856D01*
X179992632Y-110378638D01*
X179608857Y-110537603D01*
X179539392Y-110779787D01*
X180340000Y-111580395D01*
X181140608Y-110779787D01*
X181140608Y-111138997D01*
X180519605Y-111760000D01*
X181320213Y-112560608D01*
X181562397Y-112491143D01*
X181749144Y-111967698D01*
X181749144Y-125708830D01*
X181737000Y-125720974D01*
X181737000Y-117728310D01*
X181737000Y-117475691D01*
X181737000Y-115951691D01*
X181640327Y-115718302D01*
X181461699Y-115539673D01*
X181228310Y-115443000D01*
X181140608Y-115443000D01*
X181140608Y-112740213D01*
X180340000Y-111939605D01*
X180160395Y-112119210D01*
X180160395Y-111760000D01*
X179359787Y-110959392D01*
X179117603Y-111028857D01*
X178943000Y-111518262D01*
X178943000Y-105626217D01*
X178943000Y-104267000D01*
X178943000Y-104013000D01*
X178943000Y-102653783D01*
X178710974Y-102532642D01*
X178695209Y-102535291D01*
X178167964Y-102789268D01*
X177800000Y-103201108D01*
X177432036Y-102789268D01*
X176904791Y-102535291D01*
X176889026Y-102532642D01*
X176657000Y-102653783D01*
X176657000Y-104013000D01*
X177729076Y-104013000D01*
X177870924Y-104013000D01*
X178943000Y-104013000D01*
X178943000Y-104267000D01*
X177870924Y-104267000D01*
X177729076Y-104267000D01*
X176657000Y-104267000D01*
X176657000Y-105626217D01*
X176889026Y-105747358D01*
X176904791Y-105744709D01*
X177432036Y-105490732D01*
X177800000Y-105078891D01*
X178167964Y-105490732D01*
X178695209Y-105744709D01*
X178710974Y-105747358D01*
X178943000Y-105626217D01*
X178943000Y-111518262D01*
X178930856Y-111552302D01*
X178958638Y-112107368D01*
X179117603Y-112491143D01*
X179359787Y-112560608D01*
X180160395Y-111760000D01*
X180160395Y-112119210D01*
X179539392Y-112740213D01*
X179608857Y-112982397D01*
X180132302Y-113169144D01*
X180687368Y-113141362D01*
X181071143Y-112982397D01*
X181140608Y-112740213D01*
X181140608Y-115443000D01*
X180975691Y-115443000D01*
X179451691Y-115443000D01*
X179218302Y-115539673D01*
X179039673Y-115718301D01*
X178943000Y-115951690D01*
X178943000Y-116204309D01*
X178943000Y-117728309D01*
X179039673Y-117961698D01*
X179218301Y-118140327D01*
X179451690Y-118237000D01*
X179704309Y-118237000D01*
X181228309Y-118237000D01*
X181461698Y-118140327D01*
X181640327Y-117961699D01*
X181737000Y-117728310D01*
X181737000Y-125720974D01*
X181579673Y-125878301D01*
X181483000Y-126111690D01*
X181483000Y-126167613D01*
X181132370Y-125816371D01*
X180619100Y-125603243D01*
X180063339Y-125602758D01*
X179549697Y-125814990D01*
X179156371Y-126207630D01*
X179070050Y-126415512D01*
X178985010Y-126209697D01*
X178592370Y-125816371D01*
X178079100Y-125603243D01*
X177665000Y-125602881D01*
X177665000Y-116840000D01*
X177578603Y-116405654D01*
X177332566Y-116037434D01*
X176964346Y-115791397D01*
X176530000Y-115705000D01*
X176403000Y-115705000D01*
X176403000Y-105626217D01*
X176403000Y-104267000D01*
X176403000Y-104013000D01*
X176403000Y-102653783D01*
X176170974Y-102532642D01*
X176155209Y-102535291D01*
X175627964Y-102789268D01*
X175260000Y-103201108D01*
X174892036Y-102789268D01*
X174364791Y-102535291D01*
X174349026Y-102532642D01*
X174117000Y-102653783D01*
X174117000Y-104013000D01*
X175189076Y-104013000D01*
X175330924Y-104013000D01*
X176403000Y-104013000D01*
X176403000Y-104267000D01*
X175330924Y-104267000D01*
X175189076Y-104267000D01*
X174117000Y-104267000D01*
X174117000Y-105626217D01*
X174349026Y-105747358D01*
X174364791Y-105744709D01*
X174892036Y-105490732D01*
X175260000Y-105078891D01*
X175627964Y-105490732D01*
X176155209Y-105744709D01*
X176170974Y-105747358D01*
X176403000Y-105626217D01*
X176403000Y-115705000D01*
X173863000Y-115705000D01*
X173863000Y-105626217D01*
X173863000Y-104267000D01*
X173863000Y-104013000D01*
X173863000Y-102653783D01*
X173630974Y-102532642D01*
X173615209Y-102535291D01*
X173087964Y-102789268D01*
X172698046Y-103225680D01*
X172504816Y-103778087D01*
X172649076Y-104013000D01*
X173863000Y-104013000D01*
X173863000Y-104267000D01*
X172649076Y-104267000D01*
X172504816Y-104501913D01*
X172698046Y-105054320D01*
X173087964Y-105490732D01*
X173615209Y-105744709D01*
X173630974Y-105747358D01*
X173863000Y-105626217D01*
X173863000Y-115705000D01*
X161290000Y-115705000D01*
X160855654Y-115791397D01*
X160487434Y-116037434D01*
X160241397Y-116405654D01*
X160155000Y-116840000D01*
X160241397Y-117274346D01*
X160487434Y-117642566D01*
X160855654Y-117888603D01*
X161290000Y-117975000D01*
X176530000Y-117975000D01*
X176964346Y-117888603D01*
X177332566Y-117642566D01*
X177578603Y-117274346D01*
X177665000Y-116840000D01*
X177665000Y-125602881D01*
X177523339Y-125602758D01*
X177009697Y-125814990D01*
X176616371Y-126207630D01*
X176530050Y-126415512D01*
X176445010Y-126209697D01*
X176052370Y-125816371D01*
X175539100Y-125603243D01*
X174983339Y-125602758D01*
X174469697Y-125814990D01*
X174076371Y-126207630D01*
X173996605Y-126399727D01*
X173942397Y-126268857D01*
X173700213Y-126199392D01*
X173520608Y-126378997D01*
X173520608Y-126019787D01*
X173451143Y-125777603D01*
X172927698Y-125590856D01*
X172372632Y-125618638D01*
X171988857Y-125777603D01*
X171919392Y-126019787D01*
X172720000Y-126820395D01*
X173520608Y-126019787D01*
X173520608Y-126378997D01*
X172899605Y-127000000D01*
X173700213Y-127800608D01*
X173942397Y-127731143D01*
X173992508Y-127590682D01*
X174074990Y-127790303D01*
X174467630Y-128183629D01*
X174980900Y-128396757D01*
X175536661Y-128397242D01*
X176050303Y-128185010D01*
X176443629Y-127792370D01*
X176529949Y-127584487D01*
X176614990Y-127790303D01*
X177007630Y-128183629D01*
X177520900Y-128396757D01*
X178076661Y-128397242D01*
X178590303Y-128185010D01*
X178983629Y-127792370D01*
X179069949Y-127584487D01*
X179154990Y-127790303D01*
X179547630Y-128183629D01*
X180060900Y-128396757D01*
X180616661Y-128397242D01*
X181130303Y-128185010D01*
X181483000Y-127832928D01*
X181483000Y-127888309D01*
X181579673Y-128121698D01*
X181758301Y-128300327D01*
X181991690Y-128397000D01*
X182244309Y-128397000D01*
X183768309Y-128397000D01*
X184001698Y-128300327D01*
X184180327Y-128121699D01*
X184277000Y-127888310D01*
X184277000Y-151690000D01*
X173520608Y-151690000D01*
X173520608Y-127980213D01*
X172720000Y-127179605D01*
X172540395Y-127359210D01*
X172540395Y-127000000D01*
X171739787Y-126199392D01*
X171497603Y-126268857D01*
X171447491Y-126409317D01*
X171365010Y-126209697D01*
X171315000Y-126159599D01*
X171315000Y-119380000D01*
X171228603Y-118945654D01*
X170982566Y-118577434D01*
X170614346Y-118331397D01*
X170180000Y-118245000D01*
X161290000Y-118245000D01*
X160855654Y-118331397D01*
X160487434Y-118577434D01*
X160241397Y-118945654D01*
X160155000Y-119380000D01*
X160241397Y-119814346D01*
X160487434Y-120182566D01*
X160855654Y-120428603D01*
X161290000Y-120515000D01*
X170180000Y-120515000D01*
X170614346Y-120428603D01*
X170982566Y-120182566D01*
X171228603Y-119814346D01*
X171315000Y-119380000D01*
X171315000Y-126159599D01*
X170972370Y-125816371D01*
X170459100Y-125603243D01*
X169903339Y-125602758D01*
X169389697Y-125814990D01*
X168996371Y-126207630D01*
X168783243Y-126720900D01*
X168782758Y-127276661D01*
X168994990Y-127790303D01*
X169387630Y-128183629D01*
X169900900Y-128396757D01*
X170456661Y-128397242D01*
X170970303Y-128185010D01*
X171363629Y-127792370D01*
X171443394Y-127600272D01*
X171497603Y-127731143D01*
X171739787Y-127800608D01*
X172540395Y-127000000D01*
X172540395Y-127359210D01*
X171919392Y-127980213D01*
X171988857Y-128222397D01*
X172512302Y-128409144D01*
X173067368Y-128381362D01*
X173451143Y-128222397D01*
X173520608Y-127980213D01*
X173520608Y-151690000D01*
X159524144Y-151690000D01*
X159524144Y-114507698D01*
X159512242Y-114269903D01*
X159512242Y-111483339D01*
X159300010Y-110969697D01*
X158907370Y-110576371D01*
X158394100Y-110363243D01*
X157838339Y-110362758D01*
X157324697Y-110574990D01*
X156931371Y-110967630D01*
X156718243Y-111480900D01*
X156717758Y-112036661D01*
X156929990Y-112550303D01*
X157322630Y-112943629D01*
X157514727Y-113023394D01*
X157383857Y-113077603D01*
X157314392Y-113319787D01*
X158115000Y-114120395D01*
X158915608Y-113319787D01*
X158846143Y-113077603D01*
X158705682Y-113027491D01*
X158905303Y-112945010D01*
X159298629Y-112552370D01*
X159511757Y-112039100D01*
X159512242Y-111483339D01*
X159512242Y-114269903D01*
X159496362Y-113952632D01*
X159337397Y-113568857D01*
X159095213Y-113499392D01*
X158294605Y-114300000D01*
X159095213Y-115100608D01*
X159337397Y-115031143D01*
X159524144Y-114507698D01*
X159524144Y-151690000D01*
X159512242Y-151690000D01*
X159512242Y-144503339D01*
X159300010Y-143989697D01*
X158907370Y-143596371D01*
X158699487Y-143510050D01*
X158905303Y-143425010D01*
X159298629Y-143032370D01*
X159511757Y-142519100D01*
X159512242Y-141963339D01*
X159300010Y-141449697D01*
X158907370Y-141056371D01*
X158699487Y-140970050D01*
X158905303Y-140885010D01*
X159298629Y-140492370D01*
X159511757Y-139979100D01*
X159512242Y-139423339D01*
X159300010Y-138909697D01*
X158907370Y-138516371D01*
X158699487Y-138430050D01*
X158905303Y-138345010D01*
X159298629Y-137952370D01*
X159511757Y-137439100D01*
X159512242Y-136883339D01*
X159300010Y-136369697D01*
X158907370Y-135976371D01*
X158699487Y-135890050D01*
X158905303Y-135805010D01*
X159298629Y-135412370D01*
X159511757Y-134899100D01*
X159512242Y-134343339D01*
X159300010Y-133829697D01*
X158907370Y-133436371D01*
X158699487Y-133350050D01*
X158905303Y-133265010D01*
X159298629Y-132872370D01*
X159511757Y-132359100D01*
X159512242Y-131803339D01*
X159300010Y-131289697D01*
X158907370Y-130896371D01*
X158699487Y-130810050D01*
X158905303Y-130725010D01*
X159298629Y-130332370D01*
X159511757Y-129819100D01*
X159512242Y-129263339D01*
X159300010Y-128749697D01*
X158907370Y-128356371D01*
X158699487Y-128270050D01*
X158905303Y-128185010D01*
X159298629Y-127792370D01*
X159511757Y-127279100D01*
X159512242Y-126723339D01*
X159300010Y-126209697D01*
X158907370Y-125816371D01*
X158699487Y-125730050D01*
X158905303Y-125645010D01*
X159298629Y-125252370D01*
X159511757Y-124739100D01*
X159512242Y-124183339D01*
X159300010Y-123669697D01*
X158907370Y-123276371D01*
X158699487Y-123190050D01*
X158905303Y-123105010D01*
X159298629Y-122712370D01*
X159511757Y-122199100D01*
X159512242Y-121643339D01*
X159300010Y-121129697D01*
X158907370Y-120736371D01*
X158699487Y-120650050D01*
X158905303Y-120565010D01*
X159298629Y-120172370D01*
X159511757Y-119659100D01*
X159512242Y-119103339D01*
X159300010Y-118589697D01*
X158907370Y-118196371D01*
X158699487Y-118110050D01*
X158905303Y-118025010D01*
X159298629Y-117632370D01*
X159511757Y-117119100D01*
X159512242Y-116563339D01*
X159300010Y-116049697D01*
X158907370Y-115656371D01*
X158715272Y-115576605D01*
X158846143Y-115522397D01*
X158915608Y-115280213D01*
X158115000Y-114479605D01*
X157935395Y-114659210D01*
X157935395Y-114300000D01*
X157134787Y-113499392D01*
X156892603Y-113568857D01*
X156705856Y-114092302D01*
X156733638Y-114647368D01*
X156892603Y-115031143D01*
X157134787Y-115100608D01*
X157935395Y-114300000D01*
X157935395Y-114659210D01*
X157314392Y-115280213D01*
X157383857Y-115522397D01*
X157524317Y-115572508D01*
X157324697Y-115654990D01*
X156931371Y-116047630D01*
X156718243Y-116560900D01*
X156717758Y-117116661D01*
X156929990Y-117630303D01*
X157322630Y-118023629D01*
X157530512Y-118109949D01*
X157324697Y-118194990D01*
X156931371Y-118587630D01*
X156718243Y-119100900D01*
X156717758Y-119656661D01*
X156929990Y-120170303D01*
X157322630Y-120563629D01*
X157530512Y-120649949D01*
X157324697Y-120734990D01*
X156931371Y-121127630D01*
X156718243Y-121640900D01*
X156717758Y-122196661D01*
X156929990Y-122710303D01*
X157322630Y-123103629D01*
X157530512Y-123189949D01*
X157324697Y-123274990D01*
X156931371Y-123667630D01*
X156718243Y-124180900D01*
X156717758Y-124736661D01*
X156929990Y-125250303D01*
X157322630Y-125643629D01*
X157530512Y-125729949D01*
X157324697Y-125814990D01*
X156931371Y-126207630D01*
X156718243Y-126720900D01*
X156717758Y-127276661D01*
X156929990Y-127790303D01*
X157322630Y-128183629D01*
X157530512Y-128269949D01*
X157324697Y-128354990D01*
X156931371Y-128747630D01*
X156718243Y-129260900D01*
X156717758Y-129816661D01*
X156929990Y-130330303D01*
X157322630Y-130723629D01*
X157530512Y-130809949D01*
X157324697Y-130894990D01*
X156931371Y-131287630D01*
X156718243Y-131800900D01*
X156717758Y-132356661D01*
X156929990Y-132870303D01*
X157322630Y-133263629D01*
X157530512Y-133349949D01*
X157324697Y-133434990D01*
X156931371Y-133827630D01*
X156718243Y-134340900D01*
X156717758Y-134896661D01*
X156929990Y-135410303D01*
X157322630Y-135803629D01*
X157530512Y-135889949D01*
X157324697Y-135974990D01*
X156931371Y-136367630D01*
X156718243Y-136880900D01*
X156717758Y-137436661D01*
X156929990Y-137950303D01*
X157322630Y-138343629D01*
X157530512Y-138429949D01*
X157324697Y-138514990D01*
X156931371Y-138907630D01*
X156718243Y-139420900D01*
X156717758Y-139976661D01*
X156929990Y-140490303D01*
X157322630Y-140883629D01*
X157530512Y-140969949D01*
X157324697Y-141054990D01*
X156931371Y-141447630D01*
X156718243Y-141960900D01*
X156717758Y-142516661D01*
X156929990Y-143030303D01*
X157322630Y-143423629D01*
X157530512Y-143509949D01*
X157324697Y-143594990D01*
X156931371Y-143987630D01*
X156718243Y-144500900D01*
X156717758Y-145056661D01*
X156929990Y-145570303D01*
X157282071Y-145923000D01*
X157226691Y-145923000D01*
X156993302Y-146019673D01*
X156814673Y-146198301D01*
X156718000Y-146431690D01*
X156718000Y-146684309D01*
X156718000Y-148208309D01*
X156814673Y-148441698D01*
X156993301Y-148620327D01*
X157226690Y-148717000D01*
X157479309Y-148717000D01*
X159003309Y-148717000D01*
X159236698Y-148620327D01*
X159415327Y-148441699D01*
X159512000Y-148208310D01*
X159512000Y-147955691D01*
X159512000Y-146431691D01*
X159415327Y-146198302D01*
X159236699Y-146019673D01*
X159003310Y-145923000D01*
X158947386Y-145923000D01*
X159298629Y-145572370D01*
X159511757Y-145059100D01*
X159512242Y-144503339D01*
X159512242Y-151690000D01*
X121424144Y-151690000D01*
X121424144Y-144987698D01*
X121424144Y-129747698D01*
X121424144Y-119587698D01*
X121424144Y-104347698D01*
X121396362Y-103792632D01*
X121237397Y-103408857D01*
X120995213Y-103339392D01*
X120815608Y-103518997D01*
X120815608Y-103159787D01*
X120746143Y-102917603D01*
X120222698Y-102730856D01*
X119667632Y-102758638D01*
X119283857Y-102917603D01*
X119214392Y-103159787D01*
X120015000Y-103960395D01*
X120815608Y-103159787D01*
X120815608Y-103518997D01*
X120194605Y-104140000D01*
X120995213Y-104940608D01*
X121237397Y-104871143D01*
X121424144Y-104347698D01*
X121424144Y-119587698D01*
X121412242Y-119349903D01*
X121412242Y-116563339D01*
X121200010Y-116049697D01*
X120807370Y-115656371D01*
X120599487Y-115570050D01*
X120805303Y-115485010D01*
X121198629Y-115092370D01*
X121411757Y-114579100D01*
X121412242Y-114023339D01*
X121200010Y-113509697D01*
X120807370Y-113116371D01*
X120599487Y-113030050D01*
X120805303Y-112945010D01*
X121198629Y-112552370D01*
X121411757Y-112039100D01*
X121412242Y-111483339D01*
X121200010Y-110969697D01*
X120807370Y-110576371D01*
X120599487Y-110490050D01*
X120805303Y-110405010D01*
X121198629Y-110012370D01*
X121411757Y-109499100D01*
X121412242Y-108943339D01*
X121200010Y-108429697D01*
X120807370Y-108036371D01*
X120599487Y-107950050D01*
X120805303Y-107865010D01*
X121198629Y-107472370D01*
X121411757Y-106959100D01*
X121412242Y-106403339D01*
X121200010Y-105889697D01*
X120807370Y-105496371D01*
X120615272Y-105416605D01*
X120746143Y-105362397D01*
X120815608Y-105120213D01*
X120015000Y-104319605D01*
X119835395Y-104499210D01*
X119835395Y-104140000D01*
X119034787Y-103339392D01*
X118792603Y-103408857D01*
X118605856Y-103932302D01*
X118633638Y-104487368D01*
X118792603Y-104871143D01*
X119034787Y-104940608D01*
X119835395Y-104140000D01*
X119835395Y-104499210D01*
X119214392Y-105120213D01*
X119283857Y-105362397D01*
X119424317Y-105412508D01*
X119224697Y-105494990D01*
X118831371Y-105887630D01*
X118618243Y-106400900D01*
X118617758Y-106956661D01*
X118829990Y-107470303D01*
X119222630Y-107863629D01*
X119430512Y-107949949D01*
X119224697Y-108034990D01*
X118831371Y-108427630D01*
X118618243Y-108940900D01*
X118617758Y-109496661D01*
X118829990Y-110010303D01*
X119222630Y-110403629D01*
X119430512Y-110489949D01*
X119224697Y-110574990D01*
X118831371Y-110967630D01*
X118618243Y-111480900D01*
X118617758Y-112036661D01*
X118829990Y-112550303D01*
X119222630Y-112943629D01*
X119430512Y-113029949D01*
X119224697Y-113114990D01*
X118831371Y-113507630D01*
X118618243Y-114020900D01*
X118617758Y-114576661D01*
X118829990Y-115090303D01*
X119222630Y-115483629D01*
X119430512Y-115569949D01*
X119224697Y-115654990D01*
X118831371Y-116047630D01*
X118618243Y-116560900D01*
X118617758Y-117116661D01*
X118829990Y-117630303D01*
X119222630Y-118023629D01*
X119414727Y-118103394D01*
X119283857Y-118157603D01*
X119214392Y-118399787D01*
X120015000Y-119200395D01*
X120815608Y-118399787D01*
X120746143Y-118157603D01*
X120605682Y-118107491D01*
X120805303Y-118025010D01*
X121198629Y-117632370D01*
X121411757Y-117119100D01*
X121412242Y-116563339D01*
X121412242Y-119349903D01*
X121396362Y-119032632D01*
X121237397Y-118648857D01*
X120995213Y-118579392D01*
X120194605Y-119380000D01*
X120995213Y-120180608D01*
X121237397Y-120111143D01*
X121424144Y-119587698D01*
X121424144Y-129747698D01*
X121412242Y-129509903D01*
X121412242Y-121643339D01*
X121200010Y-121129697D01*
X120807370Y-120736371D01*
X120615272Y-120656605D01*
X120746143Y-120602397D01*
X120815608Y-120360213D01*
X120015000Y-119559605D01*
X119835395Y-119739210D01*
X119835395Y-119380000D01*
X119034787Y-118579392D01*
X118792603Y-118648857D01*
X118605856Y-119172302D01*
X118633638Y-119727368D01*
X118792603Y-120111143D01*
X119034787Y-120180608D01*
X119835395Y-119380000D01*
X119835395Y-119739210D01*
X119214392Y-120360213D01*
X119283857Y-120602397D01*
X119424317Y-120652508D01*
X119224697Y-120734990D01*
X118831371Y-121127630D01*
X118618243Y-121640900D01*
X118617758Y-122196661D01*
X118829990Y-122710303D01*
X119222630Y-123103629D01*
X119735900Y-123316757D01*
X120291661Y-123317242D01*
X120805303Y-123105010D01*
X121198629Y-122712370D01*
X121411757Y-122199100D01*
X121412242Y-121643339D01*
X121412242Y-129509903D01*
X121396362Y-129192632D01*
X121237397Y-128808857D01*
X120995213Y-128739392D01*
X120815608Y-128918997D01*
X120815608Y-128559787D01*
X120746143Y-128317603D01*
X120222698Y-128130856D01*
X119667632Y-128158638D01*
X119283857Y-128317603D01*
X119214392Y-128559787D01*
X120015000Y-129360395D01*
X120815608Y-128559787D01*
X120815608Y-128918997D01*
X120194605Y-129540000D01*
X120995213Y-130340608D01*
X121237397Y-130271143D01*
X121424144Y-129747698D01*
X121424144Y-144987698D01*
X121412242Y-144749903D01*
X121412242Y-141963339D01*
X121200010Y-141449697D01*
X120807370Y-141056371D01*
X120599487Y-140970050D01*
X120805303Y-140885010D01*
X121198629Y-140492370D01*
X121411757Y-139979100D01*
X121412242Y-139423339D01*
X121200010Y-138909697D01*
X120807370Y-138516371D01*
X120599487Y-138430050D01*
X120805303Y-138345010D01*
X121198629Y-137952370D01*
X121411757Y-137439100D01*
X121412242Y-136883339D01*
X121200010Y-136369697D01*
X120807370Y-135976371D01*
X120599487Y-135890050D01*
X120805303Y-135805010D01*
X121198629Y-135412370D01*
X121411757Y-134899100D01*
X121412242Y-134343339D01*
X121200010Y-133829697D01*
X120807370Y-133436371D01*
X120599487Y-133350050D01*
X120805303Y-133265010D01*
X121198629Y-132872370D01*
X121411757Y-132359100D01*
X121412242Y-131803339D01*
X121200010Y-131289697D01*
X120807370Y-130896371D01*
X120615272Y-130816605D01*
X120746143Y-130762397D01*
X120815608Y-130520213D01*
X120015000Y-129719605D01*
X119835395Y-129899210D01*
X119835395Y-129540000D01*
X119034787Y-128739392D01*
X118792603Y-128808857D01*
X118605856Y-129332302D01*
X118633638Y-129887368D01*
X118792603Y-130271143D01*
X119034787Y-130340608D01*
X119835395Y-129540000D01*
X119835395Y-129899210D01*
X119214392Y-130520213D01*
X119283857Y-130762397D01*
X119424317Y-130812508D01*
X119224697Y-130894990D01*
X118831371Y-131287630D01*
X118618243Y-131800900D01*
X118617758Y-132356661D01*
X118829990Y-132870303D01*
X119222630Y-133263629D01*
X119430512Y-133349949D01*
X119224697Y-133434990D01*
X118831371Y-133827630D01*
X118618243Y-134340900D01*
X118617758Y-134896661D01*
X118829990Y-135410303D01*
X119222630Y-135803629D01*
X119430512Y-135889949D01*
X119224697Y-135974990D01*
X118831371Y-136367630D01*
X118618243Y-136880900D01*
X118617758Y-137436661D01*
X118829990Y-137950303D01*
X119222630Y-138343629D01*
X119430512Y-138429949D01*
X119224697Y-138514990D01*
X118831371Y-138907630D01*
X118618243Y-139420900D01*
X118617758Y-139976661D01*
X118829990Y-140490303D01*
X119222630Y-140883629D01*
X119430512Y-140969949D01*
X119224697Y-141054990D01*
X118831371Y-141447630D01*
X118618243Y-141960900D01*
X118617758Y-142516661D01*
X118829990Y-143030303D01*
X119222630Y-143423629D01*
X119414727Y-143503394D01*
X119283857Y-143557603D01*
X119214392Y-143799787D01*
X120015000Y-144600395D01*
X120815608Y-143799787D01*
X120746143Y-143557603D01*
X120605682Y-143507491D01*
X120805303Y-143425010D01*
X121198629Y-143032370D01*
X121411757Y-142519100D01*
X121412242Y-141963339D01*
X121412242Y-144749903D01*
X121396362Y-144432632D01*
X121237397Y-144048857D01*
X120995213Y-143979392D01*
X120194605Y-144780000D01*
X120995213Y-145580608D01*
X121237397Y-145511143D01*
X121424144Y-144987698D01*
X121424144Y-151690000D01*
X121412242Y-151690000D01*
X121412242Y-147043339D01*
X121200010Y-146529697D01*
X120807370Y-146136371D01*
X120615272Y-146056605D01*
X120746143Y-146002397D01*
X120815608Y-145760213D01*
X120015000Y-144959605D01*
X119835395Y-145139210D01*
X119835395Y-144780000D01*
X119034787Y-143979392D01*
X118792603Y-144048857D01*
X118605856Y-144572302D01*
X118633638Y-145127368D01*
X118792603Y-145511143D01*
X119034787Y-145580608D01*
X119835395Y-144780000D01*
X119835395Y-145139210D01*
X119214392Y-145760213D01*
X119283857Y-146002397D01*
X119424317Y-146052508D01*
X119224697Y-146134990D01*
X118831371Y-146527630D01*
X118618243Y-147040900D01*
X118617758Y-147596661D01*
X118829990Y-148110303D01*
X119222630Y-148503629D01*
X119735900Y-148716757D01*
X120291661Y-148717242D01*
X120805303Y-148505010D01*
X121198629Y-148112370D01*
X121411757Y-147599100D01*
X121412242Y-147043339D01*
X121412242Y-151690000D01*
X113674261Y-151690000D01*
X113674261Y-99388964D01*
X113665000Y-99035062D01*
X113665000Y-95376310D01*
X113665000Y-95123691D01*
X113665000Y-92583691D01*
X113568327Y-92350302D01*
X113389699Y-92171673D01*
X113156310Y-92075000D01*
X112903691Y-92075000D01*
X111887462Y-92075000D01*
X111887462Y-68051828D01*
X111482291Y-67071239D01*
X110732707Y-66320345D01*
X109752827Y-65913464D01*
X108691828Y-65912538D01*
X107711239Y-66317709D01*
X106960345Y-67067293D01*
X106553464Y-68047173D01*
X106552538Y-69108172D01*
X106957709Y-70088761D01*
X107707293Y-70839655D01*
X108687173Y-71246536D01*
X109748172Y-71247462D01*
X110728761Y-70842291D01*
X111479655Y-70092707D01*
X111886536Y-69112827D01*
X111887462Y-68051828D01*
X111887462Y-92075000D01*
X110363691Y-92075000D01*
X110130302Y-92171673D01*
X109951673Y-92350301D01*
X109855000Y-92583690D01*
X109855000Y-92836309D01*
X109855000Y-95376309D01*
X109951673Y-95609698D01*
X110130301Y-95788327D01*
X110363690Y-95885000D01*
X110616309Y-95885000D01*
X113156309Y-95885000D01*
X113389698Y-95788327D01*
X113568327Y-95609699D01*
X113665000Y-95376310D01*
X113665000Y-99035062D01*
X113654436Y-98631368D01*
X113402657Y-98023520D01*
X113107777Y-97891828D01*
X112928172Y-98071433D01*
X112928172Y-97712223D01*
X112796480Y-97417343D01*
X112088964Y-97145739D01*
X111331368Y-97165564D01*
X110723520Y-97417343D01*
X110591828Y-97712223D01*
X111760000Y-98880395D01*
X112928172Y-97712223D01*
X112928172Y-98071433D01*
X111939605Y-99060000D01*
X113107777Y-100228172D01*
X113402657Y-100096480D01*
X113674261Y-99388964D01*
X113674261Y-151690000D01*
X113443345Y-151690000D01*
X113443345Y-134620000D01*
X113329271Y-134046511D01*
X113004415Y-133560330D01*
X112689634Y-133350000D01*
X113004415Y-133139670D01*
X113329271Y-132653489D01*
X113443345Y-132080000D01*
X113329271Y-131506511D01*
X113004415Y-131020330D01*
X112689634Y-130810000D01*
X113004415Y-130599670D01*
X113329271Y-130113489D01*
X113443345Y-129540000D01*
X113443345Y-114300000D01*
X113329271Y-113726511D01*
X113004415Y-113240330D01*
X112689634Y-113030000D01*
X113004415Y-112819670D01*
X113329271Y-112333489D01*
X113443345Y-111760000D01*
X113329271Y-111186511D01*
X113004415Y-110700330D01*
X112689634Y-110490000D01*
X113004415Y-110279670D01*
X113329271Y-109793489D01*
X113443345Y-109220000D01*
X113329271Y-108646511D01*
X113004415Y-108160330D01*
X112928172Y-108109386D01*
X112928172Y-100407777D01*
X111760000Y-99239605D01*
X111580395Y-99419210D01*
X111580395Y-99060000D01*
X110412223Y-97891828D01*
X110117343Y-98023520D01*
X109845739Y-98731036D01*
X109865564Y-99488632D01*
X110117343Y-100096480D01*
X110412223Y-100228172D01*
X111580395Y-99060000D01*
X111580395Y-99419210D01*
X110591828Y-100407777D01*
X110723520Y-100702657D01*
X111431036Y-100974261D01*
X112188632Y-100954436D01*
X112796480Y-100702657D01*
X112928172Y-100407777D01*
X112928172Y-108109386D01*
X112518234Y-107835474D01*
X111944745Y-107721400D01*
X111575255Y-107721400D01*
X111001766Y-107835474D01*
X110515585Y-108160330D01*
X110190729Y-108646511D01*
X110076655Y-109220000D01*
X110190729Y-109793489D01*
X110515585Y-110279670D01*
X110830365Y-110490000D01*
X110515585Y-110700330D01*
X110190729Y-111186511D01*
X110076655Y-111760000D01*
X110190729Y-112333489D01*
X110515585Y-112819670D01*
X110830365Y-113030000D01*
X110515585Y-113240330D01*
X110190729Y-113726511D01*
X110076655Y-114300000D01*
X110190729Y-114873489D01*
X110515585Y-115359670D01*
X110537780Y-115374500D01*
X110384302Y-115438073D01*
X110205673Y-115616701D01*
X110109000Y-115850090D01*
X110109000Y-116102709D01*
X110109000Y-117829909D01*
X110205673Y-118063298D01*
X110384301Y-118241927D01*
X110617690Y-118338600D01*
X110870309Y-118338600D01*
X112902309Y-118338600D01*
X113135698Y-118241927D01*
X113314327Y-118063299D01*
X113411000Y-117829910D01*
X113411000Y-117577291D01*
X113411000Y-115850091D01*
X113314327Y-115616702D01*
X113135699Y-115438073D01*
X112982220Y-115374499D01*
X113004415Y-115359670D01*
X113329271Y-114873489D01*
X113443345Y-114300000D01*
X113443345Y-129540000D01*
X113329271Y-128966511D01*
X113004415Y-128480330D01*
X112518234Y-128155474D01*
X111944745Y-128041400D01*
X111575255Y-128041400D01*
X111001766Y-128155474D01*
X110515585Y-128480330D01*
X110190729Y-128966511D01*
X110076655Y-129540000D01*
X110190729Y-130113489D01*
X110515585Y-130599670D01*
X110830365Y-130810000D01*
X110515585Y-131020330D01*
X110190729Y-131506511D01*
X110076655Y-132080000D01*
X110190729Y-132653489D01*
X110515585Y-133139670D01*
X110830365Y-133350000D01*
X110515585Y-133560330D01*
X110190729Y-134046511D01*
X110076655Y-134620000D01*
X110190729Y-135193489D01*
X110515585Y-135679670D01*
X110537780Y-135694500D01*
X110384302Y-135758073D01*
X110205673Y-135936701D01*
X110109000Y-136170090D01*
X110109000Y-136422709D01*
X110109000Y-138149909D01*
X110205673Y-138383298D01*
X110384301Y-138561927D01*
X110617690Y-138658600D01*
X110870309Y-138658600D01*
X112902309Y-138658600D01*
X113135698Y-138561927D01*
X113314327Y-138383299D01*
X113411000Y-138149910D01*
X113411000Y-137897291D01*
X113411000Y-136170091D01*
X113314327Y-135936702D01*
X113135699Y-135758073D01*
X112982220Y-135694499D01*
X113004415Y-135679670D01*
X113329271Y-135193489D01*
X113443345Y-134620000D01*
X113443345Y-151690000D01*
X111887462Y-151690000D01*
X111887462Y-146791828D01*
X111482291Y-145811239D01*
X110732707Y-145060345D01*
X109752827Y-144653464D01*
X108691828Y-144652538D01*
X107711239Y-145057709D01*
X106960345Y-145807293D01*
X106553464Y-146787173D01*
X106552538Y-147848172D01*
X106957709Y-148828761D01*
X107707293Y-149579655D01*
X108687173Y-149986536D01*
X109748172Y-149987462D01*
X110728761Y-149582291D01*
X111479655Y-148832707D01*
X111886536Y-147852827D01*
X111887462Y-146791828D01*
X111887462Y-151690000D01*
X105485000Y-151690000D01*
X105485000Y-64210000D01*
X195505000Y-64210000D01*
X195505000Y-151690000D01*
X195505000Y-151690000D01*
G37*
X195505000Y-151690000D02*
X193167462Y-151690000D01*
X193167462Y-146791828D01*
X193167462Y-68051828D01*
X192762291Y-67071239D01*
X192012707Y-66320345D01*
X191032827Y-65913464D01*
X189971828Y-65912538D01*
X188991239Y-66317709D01*
X188240345Y-67067293D01*
X187833464Y-68047173D01*
X187832538Y-69108172D01*
X188237709Y-70088761D01*
X188987293Y-70839655D01*
X189967173Y-71246536D01*
X191028172Y-71247462D01*
X192008761Y-70842291D01*
X192759655Y-70092707D01*
X193166536Y-69112827D01*
X193167462Y-68051828D01*
X193167462Y-146791828D01*
X192762291Y-145811239D01*
X192012707Y-145060345D01*
X191032827Y-144653464D01*
X190881000Y-144653331D01*
X190881000Y-95122310D01*
X190881000Y-94869691D01*
X190881000Y-92837691D01*
X190784327Y-92604302D01*
X190605699Y-92425673D01*
X190372310Y-92329000D01*
X190119691Y-92329000D01*
X189458600Y-92329000D01*
X189458600Y-77342309D01*
X189458600Y-76485750D01*
X189458600Y-75914250D01*
X189458600Y-75057691D01*
X189361927Y-74824302D01*
X189183299Y-74645673D01*
X188949910Y-74549000D01*
X188697291Y-74549000D01*
X188245750Y-74549000D01*
X188087000Y-74707750D01*
X188087000Y-76073000D01*
X189299850Y-76073000D01*
X189458600Y-75914250D01*
X189458600Y-76485750D01*
X189299850Y-76327000D01*
X188087000Y-76327000D01*
X188087000Y-77692250D01*
X188245750Y-77851000D01*
X188697291Y-77851000D01*
X188949910Y-77851000D01*
X189183299Y-77754327D01*
X189361927Y-77575698D01*
X189458600Y-77342309D01*
X189458600Y-92329000D01*
X188087691Y-92329000D01*
X187854302Y-92425673D01*
X187833000Y-92446974D01*
X187833000Y-77692250D01*
X187833000Y-76327000D01*
X187813000Y-76327000D01*
X187813000Y-76073000D01*
X187833000Y-76073000D01*
X187833000Y-74707750D01*
X187674250Y-74549000D01*
X187222709Y-74549000D01*
X186970090Y-74549000D01*
X186736701Y-74645673D01*
X186558073Y-74824302D01*
X186494500Y-74977780D01*
X186479670Y-74955585D01*
X185993489Y-74630729D01*
X185420000Y-74516655D01*
X184846511Y-74630729D01*
X184360330Y-74955585D01*
X184150000Y-75270365D01*
X183939670Y-74955585D01*
X183453489Y-74630729D01*
X182880000Y-74516655D01*
X182306511Y-74630729D01*
X181820330Y-74955585D01*
X181610000Y-75270365D01*
X181399670Y-74955585D01*
X180913489Y-74630729D01*
X180340000Y-74516655D01*
X179766511Y-74630729D01*
X179280330Y-74955585D01*
X179070000Y-75270365D01*
X178859670Y-74955585D01*
X178373489Y-74630729D01*
X177800000Y-74516655D01*
X177226511Y-74630729D01*
X176740330Y-74955585D01*
X176530000Y-75270365D01*
X176319670Y-74955585D01*
X175833489Y-74630729D01*
X175260000Y-74516655D01*
X174686511Y-74630729D01*
X174200330Y-74955585D01*
X173990000Y-75270365D01*
X173779670Y-74955585D01*
X173293489Y-74630729D01*
X172720000Y-74516655D01*
X172146511Y-74630729D01*
X171660330Y-74955585D01*
X171450000Y-75270365D01*
X171239670Y-74955585D01*
X170753489Y-74630729D01*
X170180000Y-74516655D01*
X169606511Y-74630729D01*
X169120330Y-74955585D01*
X168795474Y-75441766D01*
X168681400Y-76015255D01*
X168681400Y-76384745D01*
X168795474Y-76958234D01*
X169120330Y-77444415D01*
X169606511Y-77769271D01*
X169623923Y-77772734D01*
X169377433Y-77937434D01*
X167169867Y-80145000D01*
X161518600Y-80145000D01*
X161518600Y-77342310D01*
X161518600Y-77089691D01*
X161518600Y-75057691D01*
X161421927Y-74824302D01*
X161243299Y-74645673D01*
X161009910Y-74549000D01*
X160757291Y-74549000D01*
X159030091Y-74549000D01*
X158796702Y-74645673D01*
X158618073Y-74824301D01*
X158536241Y-75021860D01*
X158382036Y-74849268D01*
X157854791Y-74595291D01*
X157839026Y-74592642D01*
X157607000Y-74713783D01*
X157607000Y-76073000D01*
X157627000Y-76073000D01*
X157627000Y-76327000D01*
X157607000Y-76327000D01*
X157607000Y-77686217D01*
X157839026Y-77807358D01*
X157854791Y-77804709D01*
X158382036Y-77550732D01*
X158536241Y-77378139D01*
X158618073Y-77575698D01*
X158796701Y-77754327D01*
X159030090Y-77851000D01*
X159282709Y-77851000D01*
X161009909Y-77851000D01*
X161243298Y-77754327D01*
X161421927Y-77575699D01*
X161518600Y-77342310D01*
X161518600Y-80145000D01*
X161128146Y-80145000D01*
X161155000Y-80010000D01*
X161068603Y-79575654D01*
X160822566Y-79207434D01*
X160454346Y-78961397D01*
X160020000Y-78875000D01*
X157353000Y-78875000D01*
X157353000Y-77686217D01*
X157353000Y-76327000D01*
X157333000Y-76327000D01*
X157333000Y-76073000D01*
X157353000Y-76073000D01*
X157353000Y-74713783D01*
X157120974Y-74592642D01*
X157105209Y-74595291D01*
X156577964Y-74849268D01*
X156206460Y-75265069D01*
X155999670Y-74955585D01*
X155513489Y-74630729D01*
X154940000Y-74516655D01*
X154366511Y-74630729D01*
X153898600Y-74943377D01*
X153898600Y-71304745D01*
X153898600Y-70935255D01*
X153885184Y-70867808D01*
X153885184Y-67671913D01*
X153885184Y-66948087D01*
X153691954Y-66395680D01*
X153302036Y-65959268D01*
X152774791Y-65705291D01*
X152759026Y-65702642D01*
X152527000Y-65823783D01*
X152527000Y-67183000D01*
X153740924Y-67183000D01*
X153885184Y-66948087D01*
X153885184Y-67671913D01*
X153740924Y-67437000D01*
X152527000Y-67437000D01*
X152527000Y-68796217D01*
X152759026Y-68917358D01*
X152774791Y-68914709D01*
X153302036Y-68660732D01*
X153691954Y-68224320D01*
X153885184Y-67671913D01*
X153885184Y-70867808D01*
X153784526Y-70361766D01*
X153459670Y-69875585D01*
X152973489Y-69550729D01*
X152400000Y-69436655D01*
X152273000Y-69461916D01*
X152273000Y-68796217D01*
X152273000Y-67437000D01*
X152273000Y-67183000D01*
X152273000Y-65823783D01*
X152040974Y-65702642D01*
X152025209Y-65705291D01*
X151497964Y-65959268D01*
X151130000Y-66371108D01*
X150762036Y-65959268D01*
X150234791Y-65705291D01*
X150219026Y-65702642D01*
X149987000Y-65823783D01*
X149987000Y-67183000D01*
X151059076Y-67183000D01*
X151200924Y-67183000D01*
X152273000Y-67183000D01*
X152273000Y-67437000D01*
X151200924Y-67437000D01*
X151059076Y-67437000D01*
X149987000Y-67437000D01*
X149987000Y-68796217D01*
X150219026Y-68917358D01*
X150234791Y-68914709D01*
X150762036Y-68660732D01*
X151130000Y-68248891D01*
X151497964Y-68660732D01*
X152025209Y-68914709D01*
X152040974Y-68917358D01*
X152273000Y-68796217D01*
X152273000Y-69461916D01*
X151826511Y-69550729D01*
X151340330Y-69875585D01*
X151130000Y-70190365D01*
X150919670Y-69875585D01*
X150433489Y-69550729D01*
X149860000Y-69436655D01*
X149733000Y-69461916D01*
X149733000Y-68796217D01*
X149733000Y-67437000D01*
X149733000Y-67183000D01*
X149733000Y-65823783D01*
X149500974Y-65702642D01*
X149485209Y-65705291D01*
X148957964Y-65959268D01*
X148590000Y-66371108D01*
X148222036Y-65959268D01*
X147694791Y-65705291D01*
X147679026Y-65702642D01*
X147447000Y-65823783D01*
X147447000Y-67183000D01*
X148519076Y-67183000D01*
X148660924Y-67183000D01*
X149733000Y-67183000D01*
X149733000Y-67437000D01*
X148660924Y-67437000D01*
X148519076Y-67437000D01*
X147447000Y-67437000D01*
X147447000Y-68796217D01*
X147679026Y-68917358D01*
X147694791Y-68914709D01*
X148222036Y-68660732D01*
X148590000Y-68248891D01*
X148957964Y-68660732D01*
X149485209Y-68914709D01*
X149500974Y-68917358D01*
X149733000Y-68796217D01*
X149733000Y-69461916D01*
X149286511Y-69550729D01*
X148800330Y-69875585D01*
X148590000Y-70190365D01*
X148379670Y-69875585D01*
X147893489Y-69550729D01*
X147320000Y-69436655D01*
X147193000Y-69461916D01*
X147193000Y-68796217D01*
X147193000Y-67437000D01*
X147193000Y-67183000D01*
X147193000Y-65823783D01*
X146960974Y-65702642D01*
X146945209Y-65705291D01*
X146417964Y-65959268D01*
X146263758Y-66131860D01*
X146181927Y-65934302D01*
X146003299Y-65755673D01*
X145769910Y-65659000D01*
X145517291Y-65659000D01*
X145065750Y-65659000D01*
X144907000Y-65817750D01*
X144907000Y-67183000D01*
X145979076Y-67183000D01*
X146119850Y-67183000D01*
X147193000Y-67183000D01*
X147193000Y-67437000D01*
X146119850Y-67437000D01*
X145979076Y-67437000D01*
X144907000Y-67437000D01*
X144907000Y-68802250D01*
X145065750Y-68961000D01*
X145517291Y-68961000D01*
X145769910Y-68961000D01*
X146003299Y-68864327D01*
X146181927Y-68685698D01*
X146263758Y-68488139D01*
X146417964Y-68660732D01*
X146945209Y-68914709D01*
X146960974Y-68917358D01*
X147193000Y-68796217D01*
X147193000Y-69461916D01*
X146746511Y-69550729D01*
X146260330Y-69875585D01*
X146245499Y-69897780D01*
X146181927Y-69744302D01*
X146003299Y-69565673D01*
X145769910Y-69469000D01*
X145517291Y-69469000D01*
X144653000Y-69469000D01*
X144653000Y-68802250D01*
X144653000Y-67437000D01*
X144653000Y-67183000D01*
X144653000Y-65817750D01*
X144494250Y-65659000D01*
X144042709Y-65659000D01*
X143790090Y-65659000D01*
X143556701Y-65755673D01*
X143378073Y-65934302D01*
X143281400Y-66167691D01*
X143281400Y-67024250D01*
X143440150Y-67183000D01*
X144653000Y-67183000D01*
X144653000Y-67437000D01*
X143440150Y-67437000D01*
X143281400Y-67595750D01*
X143281400Y-68452309D01*
X143378073Y-68685698D01*
X143556701Y-68864327D01*
X143790090Y-68961000D01*
X144042709Y-68961000D01*
X144494250Y-68961000D01*
X144653000Y-68802250D01*
X144653000Y-69469000D01*
X143790091Y-69469000D01*
X143556702Y-69565673D01*
X143378073Y-69744301D01*
X143281400Y-69977690D01*
X143281400Y-70230309D01*
X143281400Y-72262309D01*
X143378073Y-72495698D01*
X143556701Y-72674327D01*
X143790090Y-72771000D01*
X144042709Y-72771000D01*
X145769909Y-72771000D01*
X146003298Y-72674327D01*
X146181927Y-72495699D01*
X146245500Y-72342220D01*
X146260330Y-72364415D01*
X146746511Y-72689271D01*
X147320000Y-72803345D01*
X147893489Y-72689271D01*
X148379670Y-72364415D01*
X148590000Y-72049634D01*
X148800330Y-72364415D01*
X149286511Y-72689271D01*
X149860000Y-72803345D01*
X150433489Y-72689271D01*
X150919670Y-72364415D01*
X151130000Y-72049634D01*
X151340330Y-72364415D01*
X151826511Y-72689271D01*
X152400000Y-72803345D01*
X152973489Y-72689271D01*
X153459670Y-72364415D01*
X153784526Y-71878234D01*
X153898600Y-71304745D01*
X153898600Y-74943377D01*
X153880330Y-74955585D01*
X153670000Y-75270365D01*
X153459670Y-74955585D01*
X152973489Y-74630729D01*
X152400000Y-74516655D01*
X151826511Y-74630729D01*
X151340330Y-74955585D01*
X151130000Y-75270365D01*
X150919670Y-74955585D01*
X150433489Y-74630729D01*
X149860000Y-74516655D01*
X149286511Y-74630729D01*
X148800330Y-74955585D01*
X148593539Y-75265069D01*
X148222036Y-74849268D01*
X147694791Y-74595291D01*
X147679026Y-74592642D01*
X147447000Y-74713783D01*
X147447000Y-76073000D01*
X147467000Y-76073000D01*
X147467000Y-76327000D01*
X147447000Y-76327000D01*
X147447000Y-77686217D01*
X147679026Y-77807358D01*
X147694791Y-77804709D01*
X148222036Y-77550732D01*
X148593539Y-77134930D01*
X148800330Y-77444415D01*
X149286511Y-77769271D01*
X149860000Y-77883345D01*
X150433489Y-77769271D01*
X150919670Y-77444415D01*
X151130000Y-77129634D01*
X151340330Y-77444415D01*
X151826511Y-77769271D01*
X152400000Y-77883345D01*
X152973489Y-77769271D01*
X153459670Y-77444415D01*
X153670000Y-77129634D01*
X153880330Y-77444415D01*
X154366511Y-77769271D01*
X154940000Y-77883345D01*
X155513489Y-77769271D01*
X155999670Y-77444415D01*
X156206460Y-77134930D01*
X156577964Y-77550732D01*
X157105209Y-77804709D01*
X157120974Y-77807358D01*
X157353000Y-77686217D01*
X157353000Y-78875000D01*
X147955000Y-78875000D01*
X147520654Y-78961397D01*
X147193000Y-79180328D01*
X147193000Y-77686217D01*
X147193000Y-76327000D01*
X147193000Y-76073000D01*
X147193000Y-74713783D01*
X146960974Y-74592642D01*
X146945209Y-74595291D01*
X146417964Y-74849268D01*
X146028046Y-75285680D01*
X145834816Y-75838087D01*
X145979076Y-76073000D01*
X147193000Y-76073000D01*
X147193000Y-76327000D01*
X145979076Y-76327000D01*
X145834816Y-76561913D01*
X146028046Y-77114320D01*
X146417964Y-77550732D01*
X146945209Y-77804709D01*
X146960974Y-77807358D01*
X147193000Y-77686217D01*
X147193000Y-79180328D01*
X147152434Y-79207434D01*
X146906397Y-79575654D01*
X146820000Y-80010000D01*
X146906397Y-80444346D01*
X147152434Y-80812566D01*
X147520654Y-81058603D01*
X147955000Y-81145000D01*
X158911853Y-81145000D01*
X158885000Y-81280000D01*
X158971397Y-81714346D01*
X159217434Y-82082566D01*
X159585654Y-82328603D01*
X160020000Y-82415000D01*
X166815674Y-82415000D01*
X166591397Y-82750654D01*
X166505000Y-83185000D01*
X166505000Y-86521853D01*
X166370000Y-86495000D01*
X165935654Y-86581397D01*
X165567434Y-86827434D01*
X165334145Y-87176575D01*
X165100000Y-87130001D01*
X164665654Y-87216397D01*
X164297433Y-87462434D01*
X161757434Y-90002434D01*
X161511397Y-90370654D01*
X161425000Y-90805000D01*
X161425000Y-92611720D01*
X161421927Y-92604302D01*
X161243299Y-92425673D01*
X161009910Y-92329000D01*
X160757291Y-92329000D01*
X159030091Y-92329000D01*
X158796702Y-92425673D01*
X158618073Y-92604301D01*
X158554499Y-92757779D01*
X158539670Y-92735585D01*
X158053489Y-92410729D01*
X157988681Y-92397837D01*
X158090689Y-92355689D01*
X158394622Y-92052286D01*
X158559313Y-91655668D01*
X158559687Y-91226216D01*
X158395689Y-90829311D01*
X158365000Y-90798568D01*
X158365000Y-89793025D01*
X158468327Y-89689699D01*
X158565000Y-89456310D01*
X158565000Y-89203691D01*
X158565000Y-88003691D01*
X158468327Y-87770302D01*
X158328025Y-87629999D01*
X158468327Y-87489699D01*
X158565000Y-87256310D01*
X158565000Y-87003691D01*
X158565000Y-85803691D01*
X158468327Y-85570302D01*
X158365000Y-85466974D01*
X158365000Y-85379885D01*
X158417107Y-85327779D01*
X158513780Y-85094390D01*
X158513780Y-84841771D01*
X158513780Y-84044211D01*
X158420908Y-83820000D01*
X158513780Y-83595789D01*
X158513780Y-83356450D01*
X158513780Y-82784950D01*
X158513780Y-82545611D01*
X158417107Y-82312222D01*
X158238479Y-82133593D01*
X158005090Y-82036920D01*
X157765750Y-82036920D01*
X157607000Y-82195670D01*
X157607000Y-82943700D01*
X158355030Y-82943700D01*
X158513780Y-82784950D01*
X158513780Y-83356450D01*
X158355030Y-83197700D01*
X157607000Y-83197700D01*
X157607000Y-83217700D01*
X157353000Y-83217700D01*
X157353000Y-83197700D01*
X157353000Y-82943700D01*
X157353000Y-82195670D01*
X157194250Y-82036920D01*
X156954910Y-82036920D01*
X156721521Y-82133593D01*
X156542893Y-82312222D01*
X156446220Y-82545611D01*
X156446220Y-82784950D01*
X156604970Y-82943700D01*
X157353000Y-82943700D01*
X157353000Y-83197700D01*
X156604970Y-83197700D01*
X156446220Y-83356450D01*
X156446220Y-83595789D01*
X156539091Y-83819999D01*
X156446220Y-84044210D01*
X156446220Y-84296829D01*
X156446220Y-85094389D01*
X156542893Y-85327778D01*
X156595000Y-85379885D01*
X156595000Y-85466974D01*
X156491673Y-85570301D01*
X156395000Y-85803690D01*
X156395000Y-86056309D01*
X156395000Y-87256309D01*
X156491673Y-87489698D01*
X156631974Y-87630000D01*
X156491673Y-87770301D01*
X156395000Y-88003690D01*
X156395000Y-88256309D01*
X156395000Y-89456309D01*
X156491673Y-89689698D01*
X156595000Y-89793025D01*
X156595000Y-90798143D01*
X156565378Y-90827714D01*
X156400687Y-91224332D01*
X156400313Y-91653784D01*
X156564311Y-92050689D01*
X156867714Y-92354622D01*
X156971636Y-92397774D01*
X156906511Y-92410729D01*
X156420330Y-92735585D01*
X156210000Y-93050365D01*
X155999670Y-92735585D01*
X155513489Y-92410729D01*
X154940000Y-92296655D01*
X154366511Y-92410729D01*
X153880330Y-92735585D01*
X153670000Y-93050365D01*
X153459670Y-92735585D01*
X152973489Y-92410729D01*
X152400000Y-92296655D01*
X151826511Y-92410729D01*
X151340330Y-92735585D01*
X151130000Y-93050365D01*
X150919670Y-92735585D01*
X150433489Y-92410729D01*
X149860000Y-92296655D01*
X149286511Y-92410729D01*
X148800330Y-92735585D01*
X148593539Y-93045069D01*
X148222036Y-92629268D01*
X147694791Y-92375291D01*
X147679026Y-92372642D01*
X147447000Y-92493783D01*
X147447000Y-93853000D01*
X147467000Y-93853000D01*
X147467000Y-94107000D01*
X147447000Y-94107000D01*
X147447000Y-95466217D01*
X147679026Y-95587358D01*
X147694791Y-95584709D01*
X148222036Y-95330732D01*
X148593539Y-94914930D01*
X148800330Y-95224415D01*
X149286511Y-95549271D01*
X149860000Y-95663345D01*
X150433489Y-95549271D01*
X150919670Y-95224415D01*
X151130000Y-94909634D01*
X151340330Y-95224415D01*
X151826511Y-95549271D01*
X152400000Y-95663345D01*
X152973489Y-95549271D01*
X153459670Y-95224415D01*
X153670000Y-94909634D01*
X153880330Y-95224415D01*
X154366511Y-95549271D01*
X154940000Y-95663345D01*
X155513489Y-95549271D01*
X155999670Y-95224415D01*
X156210000Y-94909634D01*
X156420330Y-95224415D01*
X156906511Y-95549271D01*
X157480000Y-95663345D01*
X158053489Y-95549271D01*
X158539670Y-95224415D01*
X158554500Y-95202219D01*
X158618073Y-95355698D01*
X158796701Y-95534327D01*
X159030090Y-95631000D01*
X159282709Y-95631000D01*
X161009909Y-95631000D01*
X161243298Y-95534327D01*
X161421927Y-95355699D01*
X161425000Y-95348280D01*
X161425000Y-95414868D01*
X152686085Y-104153782D01*
X152559567Y-103964435D01*
X152191346Y-103718398D01*
X151757001Y-103632001D01*
X151716787Y-103640000D01*
X147193000Y-103640000D01*
X147193000Y-95466217D01*
X147193000Y-94107000D01*
X147193000Y-93853000D01*
X147193000Y-92493783D01*
X146960974Y-92372642D01*
X146945209Y-92375291D01*
X146417964Y-92629268D01*
X146028046Y-93065680D01*
X145834816Y-93618087D01*
X145979076Y-93853000D01*
X147193000Y-93853000D01*
X147193000Y-94107000D01*
X145979076Y-94107000D01*
X145834816Y-94341913D01*
X146028046Y-94894320D01*
X146417964Y-95330732D01*
X146945209Y-95584709D01*
X146960974Y-95587358D01*
X147193000Y-95466217D01*
X147193000Y-103640000D01*
X142105000Y-103640000D01*
X142105000Y-90170000D01*
X142018603Y-89735654D01*
X141772566Y-89367434D01*
X141404346Y-89121397D01*
X141198600Y-89080471D01*
X141198600Y-81464745D01*
X141198600Y-81095255D01*
X141084526Y-80521766D01*
X140759670Y-80035585D01*
X140721379Y-80010000D01*
X140759670Y-79984415D01*
X141084526Y-79498234D01*
X141198600Y-78924745D01*
X141198600Y-78555255D01*
X141084526Y-77981766D01*
X140759670Y-77495585D01*
X140721379Y-77470000D01*
X140759670Y-77444415D01*
X141084526Y-76958234D01*
X141198600Y-76384745D01*
X141198600Y-76015255D01*
X141084526Y-75441766D01*
X140759670Y-74955585D01*
X140721379Y-74930000D01*
X140759670Y-74904415D01*
X141084526Y-74418234D01*
X141198600Y-73844745D01*
X141198600Y-73475255D01*
X141084526Y-72901766D01*
X140759670Y-72415585D01*
X140721379Y-72390000D01*
X140759670Y-72364415D01*
X141084526Y-71878234D01*
X141198600Y-71304745D01*
X141198600Y-70935255D01*
X141084526Y-70361766D01*
X140759670Y-69875585D01*
X140721379Y-69850000D01*
X140759670Y-69824415D01*
X141084526Y-69338234D01*
X141198600Y-68764745D01*
X141198600Y-68395255D01*
X141084526Y-67821766D01*
X140759670Y-67335585D01*
X140721379Y-67310000D01*
X140759670Y-67284415D01*
X141084526Y-66798234D01*
X141198600Y-66224745D01*
X141198600Y-65855255D01*
X141084526Y-65281766D01*
X140759670Y-64795585D01*
X140273489Y-64470729D01*
X139700000Y-64356655D01*
X139126511Y-64470729D01*
X138640330Y-64795585D01*
X138430000Y-65110365D01*
X138219670Y-64795585D01*
X137733489Y-64470729D01*
X137160000Y-64356655D01*
X136586511Y-64470729D01*
X136100330Y-64795585D01*
X135890000Y-65110365D01*
X135679670Y-64795585D01*
X135193489Y-64470729D01*
X134620000Y-64356655D01*
X134046511Y-64470729D01*
X133560330Y-64795585D01*
X133350000Y-65110365D01*
X133139670Y-64795585D01*
X132653489Y-64470729D01*
X132080000Y-64356655D01*
X131506511Y-64470729D01*
X131020330Y-64795585D01*
X130810000Y-65110365D01*
X130599670Y-64795585D01*
X130113489Y-64470729D01*
X129540000Y-64356655D01*
X128966511Y-64470729D01*
X128480330Y-64795585D01*
X128270000Y-65110365D01*
X128059670Y-64795585D01*
X127573489Y-64470729D01*
X127000000Y-64356655D01*
X126426511Y-64470729D01*
X125940330Y-64795585D01*
X125730000Y-65110365D01*
X125519670Y-64795585D01*
X125033489Y-64470729D01*
X124460000Y-64356655D01*
X123886511Y-64470729D01*
X123400330Y-64795585D01*
X123190000Y-65110365D01*
X122979670Y-64795585D01*
X122493489Y-64470729D01*
X121920000Y-64356655D01*
X121346511Y-64470729D01*
X120860330Y-64795585D01*
X120650000Y-65110365D01*
X120439670Y-64795585D01*
X119953489Y-64470729D01*
X119380000Y-64356655D01*
X118806511Y-64470729D01*
X118320330Y-64795585D01*
X118305499Y-64817780D01*
X118241927Y-64664302D01*
X118063299Y-64485673D01*
X117829910Y-64389000D01*
X117577291Y-64389000D01*
X115850091Y-64389000D01*
X115616702Y-64485673D01*
X115438073Y-64664301D01*
X115341400Y-64897690D01*
X115341400Y-65150309D01*
X115341400Y-67182309D01*
X115394291Y-67309999D01*
X115341400Y-67437690D01*
X115341400Y-67690309D01*
X115341400Y-69722309D01*
X115394291Y-69849999D01*
X115341400Y-69977690D01*
X115341400Y-70230309D01*
X115341400Y-72262309D01*
X115394291Y-72389999D01*
X115341400Y-72517690D01*
X115341400Y-72770309D01*
X115341400Y-74802309D01*
X115394291Y-74929999D01*
X115341400Y-75057690D01*
X115341400Y-75310309D01*
X115341400Y-77342309D01*
X115394291Y-77469999D01*
X115341400Y-77597690D01*
X115341400Y-77850309D01*
X115341400Y-79882309D01*
X115394291Y-80009999D01*
X115341400Y-80137690D01*
X115341400Y-80390309D01*
X115341400Y-82422309D01*
X115438073Y-82655698D01*
X115616701Y-82834327D01*
X115850090Y-82931000D01*
X116102709Y-82931000D01*
X117829909Y-82931000D01*
X118063298Y-82834327D01*
X118241927Y-82655699D01*
X118305500Y-82502220D01*
X118320330Y-82524415D01*
X118806511Y-82849271D01*
X119380000Y-82963345D01*
X119953489Y-82849271D01*
X120439670Y-82524415D01*
X120650000Y-82209634D01*
X120860330Y-82524415D01*
X121346511Y-82849271D01*
X121920000Y-82963345D01*
X122493489Y-82849271D01*
X122979670Y-82524415D01*
X123190000Y-82209634D01*
X123400330Y-82524415D01*
X123886511Y-82849271D01*
X124460000Y-82963345D01*
X125033489Y-82849271D01*
X125519670Y-82524415D01*
X125730000Y-82209634D01*
X125940330Y-82524415D01*
X126426511Y-82849271D01*
X127000000Y-82963345D01*
X127573489Y-82849271D01*
X128059670Y-82524415D01*
X128270000Y-82209634D01*
X128480330Y-82524415D01*
X128966511Y-82849271D01*
X129540000Y-82963345D01*
X130113489Y-82849271D01*
X130599670Y-82524415D01*
X130810000Y-82209634D01*
X131020330Y-82524415D01*
X131506511Y-82849271D01*
X132080000Y-82963345D01*
X132653489Y-82849271D01*
X133139670Y-82524415D01*
X133350000Y-82209634D01*
X133560330Y-82524415D01*
X134046511Y-82849271D01*
X134620000Y-82963345D01*
X135193489Y-82849271D01*
X135679670Y-82524415D01*
X135890000Y-82209634D01*
X136100330Y-82524415D01*
X136586511Y-82849271D01*
X137160000Y-82963345D01*
X137733489Y-82849271D01*
X138219670Y-82524415D01*
X138430000Y-82209634D01*
X138640330Y-82524415D01*
X139126511Y-82849271D01*
X139700000Y-82963345D01*
X140273489Y-82849271D01*
X140759670Y-82524415D01*
X141084526Y-82038234D01*
X141198600Y-81464745D01*
X141198600Y-89080471D01*
X140970000Y-89035000D01*
X129540000Y-89035000D01*
X129105654Y-89121397D01*
X128737434Y-89367434D01*
X128491397Y-89735654D01*
X128405000Y-90170000D01*
X128491397Y-90604346D01*
X128737434Y-90972566D01*
X129105654Y-91218603D01*
X129540000Y-91305000D01*
X140970000Y-91305000D01*
X141404346Y-91218603D01*
X141772566Y-90972566D01*
X142018603Y-90604346D01*
X142105000Y-90170000D01*
X142105000Y-103640000D01*
X139065000Y-103640000D01*
X138630654Y-103726397D01*
X138262434Y-103972434D01*
X138016397Y-104340654D01*
X137930000Y-104775000D01*
X138016397Y-105209346D01*
X138262434Y-105577566D01*
X138630654Y-105823603D01*
X139065000Y-105910000D01*
X150940674Y-105910000D01*
X150716397Y-106245654D01*
X150630000Y-106680000D01*
X150630000Y-120650000D01*
X150716397Y-121084346D01*
X150962434Y-121452566D01*
X151330654Y-121698603D01*
X151765000Y-121785000D01*
X151900000Y-121758146D01*
X151900000Y-133985000D01*
X151986397Y-134419346D01*
X152232434Y-134787566D01*
X152600654Y-135033603D01*
X153035000Y-135120000D01*
X153170000Y-135093146D01*
X153170000Y-135419868D01*
X149692434Y-138897434D01*
X149446397Y-139265654D01*
X149360000Y-139700000D01*
X149360000Y-146849868D01*
X148119868Y-148090000D01*
X144284144Y-148090000D01*
X144284144Y-119587698D01*
X144272242Y-119349903D01*
X144272242Y-116563339D01*
X144060010Y-116049697D01*
X143667370Y-115656371D01*
X143459487Y-115570050D01*
X143665303Y-115485010D01*
X144058629Y-115092370D01*
X144271757Y-114579100D01*
X144272242Y-114023339D01*
X144060010Y-113509697D01*
X143667370Y-113116371D01*
X143459487Y-113030050D01*
X143665303Y-112945010D01*
X144058629Y-112552370D01*
X144271757Y-112039100D01*
X144272242Y-111483339D01*
X144060010Y-110969697D01*
X143667370Y-110576371D01*
X143154100Y-110363243D01*
X142598339Y-110362758D01*
X142084697Y-110574990D01*
X141691371Y-110967630D01*
X141478243Y-111480900D01*
X141477758Y-112036661D01*
X141689990Y-112550303D01*
X142082630Y-112943629D01*
X142290512Y-113029949D01*
X142084697Y-113114990D01*
X141691371Y-113507630D01*
X141478243Y-114020900D01*
X141477758Y-114576661D01*
X141689990Y-115090303D01*
X142082630Y-115483629D01*
X142290512Y-115569949D01*
X142084697Y-115654990D01*
X141691371Y-116047630D01*
X141478243Y-116560900D01*
X141477758Y-117116661D01*
X141689990Y-117630303D01*
X142082630Y-118023629D01*
X142274727Y-118103394D01*
X142143857Y-118157603D01*
X142074392Y-118399787D01*
X142875000Y-119200395D01*
X143675608Y-118399787D01*
X143606143Y-118157603D01*
X143465682Y-118107491D01*
X143665303Y-118025010D01*
X144058629Y-117632370D01*
X144271757Y-117119100D01*
X144272242Y-116563339D01*
X144272242Y-119349903D01*
X144256362Y-119032632D01*
X144097397Y-118648857D01*
X143855213Y-118579392D01*
X143054605Y-119380000D01*
X143855213Y-120180608D01*
X144097397Y-120111143D01*
X144284144Y-119587698D01*
X144284144Y-148090000D01*
X144067917Y-148090000D01*
X144271757Y-147599100D01*
X144272242Y-147043339D01*
X144060010Y-146529697D01*
X143667370Y-146136371D01*
X143459487Y-146050050D01*
X143665303Y-145965010D01*
X144058629Y-145572370D01*
X144271757Y-145059100D01*
X144272242Y-144503339D01*
X144060010Y-143989697D01*
X143667370Y-143596371D01*
X143459487Y-143510050D01*
X143665303Y-143425010D01*
X144058629Y-143032370D01*
X144271757Y-142519100D01*
X144272242Y-141963339D01*
X144060010Y-141449697D01*
X143667370Y-141056371D01*
X143459487Y-140970050D01*
X143665303Y-140885010D01*
X144058629Y-140492370D01*
X144271757Y-139979100D01*
X144272242Y-139423339D01*
X144060010Y-138909697D01*
X143667370Y-138516371D01*
X143459487Y-138430050D01*
X143665303Y-138345010D01*
X144058629Y-137952370D01*
X144271757Y-137439100D01*
X144272242Y-136883339D01*
X144060010Y-136369697D01*
X143667370Y-135976371D01*
X143459487Y-135890050D01*
X143665303Y-135805010D01*
X144058629Y-135412370D01*
X144271757Y-134899100D01*
X144272242Y-134343339D01*
X144060010Y-133829697D01*
X143667370Y-133436371D01*
X143459487Y-133350050D01*
X143665303Y-133265010D01*
X144058629Y-132872370D01*
X144271757Y-132359100D01*
X144272242Y-131803339D01*
X144060010Y-131289697D01*
X143667370Y-130896371D01*
X143459487Y-130810050D01*
X143665303Y-130725010D01*
X144058629Y-130332370D01*
X144271757Y-129819100D01*
X144272242Y-129263339D01*
X144060010Y-128749697D01*
X143667370Y-128356371D01*
X143459487Y-128270050D01*
X143665303Y-128185010D01*
X144058629Y-127792370D01*
X144271757Y-127279100D01*
X144272242Y-126723339D01*
X144060010Y-126209697D01*
X143667370Y-125816371D01*
X143459487Y-125730050D01*
X143665303Y-125645010D01*
X144058629Y-125252370D01*
X144271757Y-124739100D01*
X144272242Y-124183339D01*
X144060010Y-123669697D01*
X143667370Y-123276371D01*
X143459487Y-123190050D01*
X143665303Y-123105010D01*
X144058629Y-122712370D01*
X144271757Y-122199100D01*
X144272242Y-121643339D01*
X144060010Y-121129697D01*
X143667370Y-120736371D01*
X143475272Y-120656605D01*
X143606143Y-120602397D01*
X143675608Y-120360213D01*
X142875000Y-119559605D01*
X142695395Y-119739210D01*
X142695395Y-119380000D01*
X141894787Y-118579392D01*
X141652603Y-118648857D01*
X141465856Y-119172302D01*
X141493638Y-119727368D01*
X141652603Y-120111143D01*
X141894787Y-120180608D01*
X142695395Y-119380000D01*
X142695395Y-119739210D01*
X142074392Y-120360213D01*
X142143857Y-120602397D01*
X142284317Y-120652508D01*
X142084697Y-120734990D01*
X141691371Y-121127630D01*
X141478243Y-121640900D01*
X141477758Y-122196661D01*
X141689990Y-122710303D01*
X142082630Y-123103629D01*
X142290512Y-123189949D01*
X142084697Y-123274990D01*
X141691371Y-123667630D01*
X141478243Y-124180900D01*
X141477758Y-124736661D01*
X141689990Y-125250303D01*
X142082630Y-125643629D01*
X142290512Y-125729949D01*
X142084697Y-125814990D01*
X141691371Y-126207630D01*
X141478243Y-126720900D01*
X141477758Y-127276661D01*
X141689990Y-127790303D01*
X142082630Y-128183629D01*
X142290512Y-128269949D01*
X142084697Y-128354990D01*
X141691371Y-128747630D01*
X141478243Y-129260900D01*
X141477758Y-129816661D01*
X141689990Y-130330303D01*
X142082630Y-130723629D01*
X142290512Y-130809949D01*
X142084697Y-130894990D01*
X141691371Y-131287630D01*
X141478243Y-131800900D01*
X141477758Y-132356661D01*
X141689990Y-132870303D01*
X142082630Y-133263629D01*
X142290512Y-133349949D01*
X142084697Y-133434990D01*
X141691371Y-133827630D01*
X141478243Y-134340900D01*
X141477758Y-134896661D01*
X141689990Y-135410303D01*
X142082630Y-135803629D01*
X142290512Y-135889949D01*
X142084697Y-135974990D01*
X141691371Y-136367630D01*
X141478243Y-136880900D01*
X141477758Y-137436661D01*
X141689990Y-137950303D01*
X142082630Y-138343629D01*
X142290512Y-138429949D01*
X142084697Y-138514990D01*
X141691371Y-138907630D01*
X141478243Y-139420900D01*
X141477758Y-139976661D01*
X141689990Y-140490303D01*
X142082630Y-140883629D01*
X142290512Y-140969949D01*
X142084697Y-141054990D01*
X141691371Y-141447630D01*
X141478243Y-141960900D01*
X141477758Y-142516661D01*
X141689990Y-143030303D01*
X142082630Y-143423629D01*
X142290512Y-143509949D01*
X142084697Y-143594990D01*
X141691371Y-143987630D01*
X141478243Y-144500900D01*
X141477758Y-145056661D01*
X141689990Y-145570303D01*
X142082630Y-145963629D01*
X142290512Y-146049949D01*
X142084697Y-146134990D01*
X141691371Y-146527630D01*
X141478243Y-147040900D01*
X141477758Y-147596661D01*
X141681600Y-148090000D01*
X134112000Y-148090000D01*
X134112000Y-147955691D01*
X134112000Y-146431691D01*
X134015327Y-146198302D01*
X133836699Y-146019673D01*
X133603310Y-145923000D01*
X133547386Y-145923000D01*
X133898629Y-145572370D01*
X134111757Y-145059100D01*
X134112242Y-144503339D01*
X133900010Y-143989697D01*
X133507370Y-143596371D01*
X133299487Y-143510050D01*
X133505303Y-143425010D01*
X133898629Y-143032370D01*
X134111757Y-142519100D01*
X134112242Y-141963339D01*
X133900010Y-141449697D01*
X133507370Y-141056371D01*
X133299487Y-140970050D01*
X133505303Y-140885010D01*
X133898629Y-140492370D01*
X134111757Y-139979100D01*
X134112242Y-139423339D01*
X133900010Y-138909697D01*
X133507370Y-138516371D01*
X133299487Y-138430050D01*
X133505303Y-138345010D01*
X133898629Y-137952370D01*
X134111757Y-137439100D01*
X134112242Y-136883339D01*
X133900010Y-136369697D01*
X133507370Y-135976371D01*
X133299487Y-135890050D01*
X133505303Y-135805010D01*
X133898629Y-135412370D01*
X134111757Y-134899100D01*
X134112242Y-134343339D01*
X133900010Y-133829697D01*
X133507370Y-133436371D01*
X133299487Y-133350050D01*
X133505303Y-133265010D01*
X133898629Y-132872370D01*
X134111757Y-132359100D01*
X134112242Y-131803339D01*
X133900010Y-131289697D01*
X133507370Y-130896371D01*
X133299487Y-130810050D01*
X133505303Y-130725010D01*
X133898629Y-130332370D01*
X134111757Y-129819100D01*
X134112242Y-129263339D01*
X134112242Y-119103339D01*
X133900010Y-118589697D01*
X133507370Y-118196371D01*
X133299487Y-118110050D01*
X133505303Y-118025010D01*
X133898629Y-117632370D01*
X134111757Y-117119100D01*
X134112242Y-116563339D01*
X133900010Y-116049697D01*
X133507370Y-115656371D01*
X133299487Y-115570050D01*
X133505303Y-115485010D01*
X133898629Y-115092370D01*
X134111757Y-114579100D01*
X134112242Y-114023339D01*
X133900010Y-113509697D01*
X133507370Y-113116371D01*
X133299487Y-113030050D01*
X133505303Y-112945010D01*
X133898629Y-112552370D01*
X134111757Y-112039100D01*
X134112242Y-111483339D01*
X133900010Y-110969697D01*
X133507370Y-110576371D01*
X133299487Y-110490050D01*
X133505303Y-110405010D01*
X133898629Y-110012370D01*
X134111757Y-109499100D01*
X134112242Y-108943339D01*
X133900010Y-108429697D01*
X133507370Y-108036371D01*
X133299487Y-107950050D01*
X133505303Y-107865010D01*
X133898629Y-107472370D01*
X134111757Y-106959100D01*
X134112242Y-106403339D01*
X133900010Y-105889697D01*
X133507370Y-105496371D01*
X133299487Y-105410050D01*
X133505303Y-105325010D01*
X133898629Y-104932370D01*
X134111757Y-104419100D01*
X134112242Y-103863339D01*
X133900010Y-103349697D01*
X133507370Y-102956371D01*
X132994100Y-102743243D01*
X132438339Y-102742758D01*
X131924697Y-102954990D01*
X131531371Y-103347630D01*
X131318243Y-103860900D01*
X131317758Y-104416661D01*
X131529990Y-104930303D01*
X131922630Y-105323629D01*
X132130512Y-105409949D01*
X131924697Y-105494990D01*
X131531371Y-105887630D01*
X131318243Y-106400900D01*
X131317758Y-106956661D01*
X131529990Y-107470303D01*
X131922630Y-107863629D01*
X132130512Y-107949949D01*
X131924697Y-108034990D01*
X131531371Y-108427630D01*
X131318243Y-108940900D01*
X131317758Y-109496661D01*
X131529990Y-110010303D01*
X131922630Y-110403629D01*
X132130512Y-110489949D01*
X131924697Y-110574990D01*
X131531371Y-110967630D01*
X131318243Y-111480900D01*
X131317758Y-112036661D01*
X131529990Y-112550303D01*
X131922630Y-112943629D01*
X132130512Y-113029949D01*
X131924697Y-113114990D01*
X131531371Y-113507630D01*
X131318243Y-114020900D01*
X131317758Y-114576661D01*
X131529990Y-115090303D01*
X131922630Y-115483629D01*
X132130512Y-115569949D01*
X131924697Y-115654990D01*
X131531371Y-116047630D01*
X131318243Y-116560900D01*
X131317758Y-117116661D01*
X131529990Y-117630303D01*
X131922630Y-118023629D01*
X132130512Y-118109949D01*
X131924697Y-118194990D01*
X131531371Y-118587630D01*
X131318243Y-119100900D01*
X131317758Y-119656661D01*
X131529990Y-120170303D01*
X131882071Y-120523000D01*
X131826691Y-120523000D01*
X131593302Y-120619673D01*
X131414673Y-120798301D01*
X131318000Y-121031690D01*
X131318000Y-121284309D01*
X131318000Y-122808309D01*
X131414673Y-123041698D01*
X131593301Y-123220327D01*
X131826690Y-123317000D01*
X132079309Y-123317000D01*
X133603309Y-123317000D01*
X133836698Y-123220327D01*
X134015327Y-123041699D01*
X134112000Y-122808310D01*
X134112000Y-122555691D01*
X134112000Y-121031691D01*
X134015327Y-120798302D01*
X133836699Y-120619673D01*
X133603310Y-120523000D01*
X133547386Y-120523000D01*
X133898629Y-120172370D01*
X134111757Y-119659100D01*
X134112242Y-119103339D01*
X134112242Y-129263339D01*
X133900010Y-128749697D01*
X133507370Y-128356371D01*
X132994100Y-128143243D01*
X132438339Y-128142758D01*
X131924697Y-128354990D01*
X131531371Y-128747630D01*
X131318243Y-129260900D01*
X131317758Y-129816661D01*
X131529990Y-130330303D01*
X131922630Y-130723629D01*
X132130512Y-130809949D01*
X131924697Y-130894990D01*
X131531371Y-131287630D01*
X131318243Y-131800900D01*
X131317758Y-132356661D01*
X131529990Y-132870303D01*
X131922630Y-133263629D01*
X132130512Y-133349949D01*
X131924697Y-133434990D01*
X131531371Y-133827630D01*
X131318243Y-134340900D01*
X131317758Y-134896661D01*
X131529990Y-135410303D01*
X131922630Y-135803629D01*
X132130512Y-135889949D01*
X131924697Y-135974990D01*
X131531371Y-136367630D01*
X131318243Y-136880900D01*
X131317758Y-137436661D01*
X131529990Y-137950303D01*
X131922630Y-138343629D01*
X132130512Y-138429949D01*
X131924697Y-138514990D01*
X131531371Y-138907630D01*
X131318243Y-139420900D01*
X131317758Y-139976661D01*
X131529990Y-140490303D01*
X131922630Y-140883629D01*
X132130512Y-140969949D01*
X131924697Y-141054990D01*
X131531371Y-141447630D01*
X131318243Y-141960900D01*
X131317758Y-142516661D01*
X131529990Y-143030303D01*
X131922630Y-143423629D01*
X132130512Y-143509949D01*
X131924697Y-143594990D01*
X131531371Y-143987630D01*
X131318243Y-144500900D01*
X131317758Y-145056661D01*
X131529990Y-145570303D01*
X131882071Y-145923000D01*
X131826691Y-145923000D01*
X131593302Y-146019673D01*
X131414673Y-146198301D01*
X131318000Y-146431690D01*
X131318000Y-146684309D01*
X131318000Y-148090000D01*
X127000000Y-148090000D01*
X126565654Y-148176397D01*
X126197434Y-148422434D01*
X125951397Y-148790654D01*
X125865000Y-149225000D01*
X125951397Y-149659346D01*
X126197434Y-150027566D01*
X126565654Y-150273603D01*
X127000000Y-150360000D01*
X127158671Y-150360000D01*
X127135000Y-150479002D01*
X127221397Y-150913348D01*
X127467434Y-151281568D01*
X127835654Y-151527605D01*
X128270000Y-151614002D01*
X149875998Y-151614002D01*
X150310343Y-151527605D01*
X150310344Y-151527605D01*
X150678564Y-151281568D01*
X152567566Y-149392566D01*
X152813603Y-149024346D01*
X152813603Y-149024345D01*
X152900000Y-148590000D01*
X152900000Y-146520132D01*
X153505132Y-145915000D01*
X155494572Y-145915000D01*
X155575000Y-145930998D01*
X156009346Y-145844602D01*
X156377566Y-145598564D01*
X156623604Y-145230344D01*
X156710000Y-144795998D01*
X156623604Y-144361653D01*
X156377566Y-143993432D01*
X156361568Y-143977434D01*
X155993348Y-143731397D01*
X155559002Y-143645000D01*
X153035000Y-143645000D01*
X152600654Y-143731397D01*
X152232434Y-143977434D01*
X151630000Y-144579868D01*
X151630000Y-140170132D01*
X155107566Y-136692566D01*
X155353603Y-136324346D01*
X155353604Y-136324345D01*
X155440000Y-135890000D01*
X155440000Y-123660132D01*
X156377566Y-122722566D01*
X156623603Y-122354346D01*
X156623603Y-122354345D01*
X156710000Y-121920000D01*
X156710000Y-118110000D01*
X156623603Y-117675654D01*
X156377566Y-117307434D01*
X156009346Y-117061397D01*
X155575000Y-116975000D01*
X155440000Y-117001853D01*
X155440000Y-108420132D01*
X165886568Y-97973564D01*
X166132605Y-97605344D01*
X166132605Y-97605343D01*
X166219002Y-97170998D01*
X166219002Y-93196130D01*
X166840132Y-92575000D01*
X169545000Y-92575000D01*
X169979345Y-92488603D01*
X169979346Y-92488603D01*
X170347566Y-92242566D01*
X171617566Y-90972566D01*
X171863603Y-90604345D01*
X171950000Y-90170000D01*
X171863603Y-89735655D01*
X171617566Y-89367434D01*
X171249345Y-89121397D01*
X170815000Y-89035000D01*
X170380655Y-89121397D01*
X170045000Y-89345674D01*
X170045000Y-87630000D01*
X169958603Y-87195654D01*
X169712566Y-86827434D01*
X169344346Y-86581397D01*
X168910000Y-86495000D01*
X168775000Y-86521853D01*
X168775000Y-83655132D01*
X169380132Y-83050000D01*
X172720000Y-83050000D01*
X173154346Y-82963603D01*
X173522566Y-82717566D01*
X173768603Y-82349346D01*
X173855000Y-81915000D01*
X173768603Y-81480654D01*
X173522566Y-81112434D01*
X173154346Y-80866397D01*
X172720000Y-80780000D01*
X169745132Y-80780000D01*
X170982566Y-79542567D01*
X171228603Y-79174346D01*
X171314999Y-78740000D01*
X171228603Y-78305655D01*
X170982566Y-77937434D01*
X170736075Y-77772734D01*
X170753489Y-77769271D01*
X171239670Y-77444415D01*
X171450000Y-77129634D01*
X171660330Y-77444415D01*
X172146511Y-77769271D01*
X172720000Y-77883345D01*
X173293489Y-77769271D01*
X173779670Y-77444415D01*
X173990000Y-77129634D01*
X174200330Y-77444415D01*
X174686511Y-77769271D01*
X175260000Y-77883345D01*
X175833489Y-77769271D01*
X176319670Y-77444415D01*
X176530000Y-77129634D01*
X176740330Y-77444415D01*
X177226511Y-77769271D01*
X177800000Y-77883345D01*
X178373489Y-77769271D01*
X178859670Y-77444415D01*
X179070000Y-77129634D01*
X179280330Y-77444415D01*
X179766511Y-77769271D01*
X180340000Y-77883345D01*
X180913489Y-77769271D01*
X181399670Y-77444415D01*
X181610000Y-77129634D01*
X181820330Y-77444415D01*
X182306511Y-77769271D01*
X182880000Y-77883345D01*
X183453489Y-77769271D01*
X183939670Y-77444415D01*
X184150000Y-77129634D01*
X184360330Y-77444415D01*
X184846511Y-77769271D01*
X185420000Y-77883345D01*
X185993489Y-77769271D01*
X186479670Y-77444415D01*
X186494500Y-77422219D01*
X186558073Y-77575698D01*
X186736701Y-77754327D01*
X186970090Y-77851000D01*
X187222709Y-77851000D01*
X187674250Y-77851000D01*
X187833000Y-77692250D01*
X187833000Y-92446974D01*
X187675673Y-92604301D01*
X187651319Y-92663096D01*
X187554818Y-92573615D01*
X187072944Y-92374025D01*
X186817000Y-92493164D01*
X186817000Y-93853000D01*
X186837000Y-93853000D01*
X186837000Y-94107000D01*
X186817000Y-94107000D01*
X186817000Y-95466836D01*
X187072944Y-95585975D01*
X187554818Y-95386385D01*
X187651319Y-95296903D01*
X187675673Y-95355698D01*
X187854301Y-95534327D01*
X188087690Y-95631000D01*
X188340309Y-95631000D01*
X190372309Y-95631000D01*
X190605698Y-95534327D01*
X190784327Y-95355699D01*
X190881000Y-95122310D01*
X190881000Y-144653331D01*
X189971828Y-144652538D01*
X188991239Y-145057709D01*
X188240345Y-145807293D01*
X187833464Y-146787173D01*
X187832538Y-147848172D01*
X188237709Y-148828761D01*
X188987293Y-149579655D01*
X189967173Y-149986536D01*
X191028172Y-149987462D01*
X192008761Y-149582291D01*
X192759655Y-148832707D01*
X193166536Y-147852827D01*
X193167462Y-146791828D01*
X193167462Y-151690000D01*
X186829144Y-151690000D01*
X186829144Y-111967698D01*
X186801362Y-111412632D01*
X186642397Y-111028857D01*
X186563000Y-111006083D01*
X186563000Y-95466836D01*
X186563000Y-94107000D01*
X186563000Y-93853000D01*
X186563000Y-92493164D01*
X186307056Y-92374025D01*
X185825182Y-92573615D01*
X185352812Y-93011621D01*
X185084017Y-93597054D01*
X185202633Y-93853000D01*
X186563000Y-93853000D01*
X186563000Y-94107000D01*
X185202633Y-94107000D01*
X185084017Y-94362946D01*
X185352812Y-94948379D01*
X185825182Y-95386385D01*
X186307056Y-95585975D01*
X186563000Y-95466836D01*
X186563000Y-111006083D01*
X186400213Y-110959392D01*
X186220608Y-111138997D01*
X186220608Y-110779787D01*
X186151143Y-110537603D01*
X185627698Y-110350856D01*
X185072632Y-110378638D01*
X184688857Y-110537603D01*
X184619392Y-110779787D01*
X185420000Y-111580395D01*
X186220608Y-110779787D01*
X186220608Y-111138997D01*
X185599605Y-111760000D01*
X186400213Y-112560608D01*
X186642397Y-112491143D01*
X186829144Y-111967698D01*
X186829144Y-151690000D01*
X186817242Y-151690000D01*
X186817242Y-116563339D01*
X186605010Y-116049697D01*
X186220608Y-115664623D01*
X186220608Y-112740213D01*
X185420000Y-111939605D01*
X185240395Y-112119210D01*
X185240395Y-111760000D01*
X184439787Y-110959392D01*
X184197603Y-111028857D01*
X184010856Y-111552302D01*
X184038638Y-112107368D01*
X184197603Y-112491143D01*
X184439787Y-112560608D01*
X185240395Y-111760000D01*
X185240395Y-112119210D01*
X184619392Y-112740213D01*
X184688857Y-112982397D01*
X185212302Y-113169144D01*
X185767368Y-113141362D01*
X186151143Y-112982397D01*
X186220608Y-112740213D01*
X186220608Y-115664623D01*
X186212370Y-115656371D01*
X185699100Y-115443243D01*
X185143339Y-115442758D01*
X184629697Y-115654990D01*
X184236371Y-116047630D01*
X184023243Y-116560900D01*
X184022758Y-117116661D01*
X184234990Y-117630303D01*
X184627630Y-118023629D01*
X185140900Y-118236757D01*
X185696661Y-118237242D01*
X186210303Y-118025010D01*
X186603629Y-117632370D01*
X186816757Y-117119100D01*
X186817242Y-116563339D01*
X186817242Y-151690000D01*
X184277000Y-151690000D01*
X184277000Y-127888310D01*
X184277000Y-127635691D01*
X184277000Y-126111691D01*
X184180327Y-125878302D01*
X184001699Y-125699673D01*
X183768310Y-125603000D01*
X183515691Y-125603000D01*
X183108600Y-125603000D01*
X183108600Y-105282309D01*
X183108600Y-104425750D01*
X183108600Y-103854250D01*
X183108600Y-102997691D01*
X183108600Y-101472310D01*
X183108600Y-101219691D01*
X183108600Y-99187691D01*
X183108600Y-95122310D01*
X183108600Y-94869691D01*
X183108600Y-92837691D01*
X183011927Y-92604302D01*
X182833299Y-92425673D01*
X182599910Y-92329000D01*
X182347291Y-92329000D01*
X180620091Y-92329000D01*
X180386702Y-92425673D01*
X180208073Y-92604301D01*
X180144499Y-92757779D01*
X180129670Y-92735585D01*
X179643489Y-92410729D01*
X179070000Y-92296655D01*
X178496511Y-92410729D01*
X178010330Y-92735585D01*
X177800000Y-93050365D01*
X177589670Y-92735585D01*
X177103489Y-92410729D01*
X176530000Y-92296655D01*
X175956511Y-92410729D01*
X175470330Y-92735585D01*
X175263539Y-93045069D01*
X174892036Y-92629268D01*
X174364791Y-92375291D01*
X174349026Y-92372642D01*
X174117000Y-92493783D01*
X174117000Y-93853000D01*
X174137000Y-93853000D01*
X174137000Y-94107000D01*
X174117000Y-94107000D01*
X174117000Y-95466217D01*
X174349026Y-95587358D01*
X174364791Y-95584709D01*
X174892036Y-95330732D01*
X175263539Y-94914930D01*
X175470330Y-95224415D01*
X175956511Y-95549271D01*
X176530000Y-95663345D01*
X177103489Y-95549271D01*
X177589670Y-95224415D01*
X177800000Y-94909634D01*
X178010330Y-95224415D01*
X178496511Y-95549271D01*
X179070000Y-95663345D01*
X179643489Y-95549271D01*
X180129670Y-95224415D01*
X180144500Y-95202219D01*
X180208073Y-95355698D01*
X180386701Y-95534327D01*
X180620090Y-95631000D01*
X180872709Y-95631000D01*
X182599909Y-95631000D01*
X182833298Y-95534327D01*
X183011927Y-95355699D01*
X183108600Y-95122310D01*
X183108600Y-99187691D01*
X183011927Y-98954302D01*
X182833299Y-98775673D01*
X182599910Y-98679000D01*
X182347291Y-98679000D01*
X180620091Y-98679000D01*
X180386702Y-98775673D01*
X180208073Y-98954301D01*
X180144499Y-99107779D01*
X180129670Y-99085585D01*
X179643489Y-98760729D01*
X179070000Y-98646655D01*
X178496511Y-98760729D01*
X178010330Y-99085585D01*
X177800000Y-99400365D01*
X177589670Y-99085585D01*
X177103489Y-98760729D01*
X176530000Y-98646655D01*
X175956511Y-98760729D01*
X175470330Y-99085585D01*
X175260000Y-99400365D01*
X175049670Y-99085585D01*
X174563489Y-98760729D01*
X173990000Y-98646655D01*
X173863000Y-98671916D01*
X173863000Y-95466217D01*
X173863000Y-94107000D01*
X173863000Y-93853000D01*
X173863000Y-92493783D01*
X173630974Y-92372642D01*
X173615209Y-92375291D01*
X173087964Y-92629268D01*
X172698046Y-93065680D01*
X172504816Y-93618087D01*
X172649076Y-93853000D01*
X173863000Y-93853000D01*
X173863000Y-94107000D01*
X172649076Y-94107000D01*
X172504816Y-94341913D01*
X172698046Y-94894320D01*
X173087964Y-95330732D01*
X173615209Y-95584709D01*
X173630974Y-95587358D01*
X173863000Y-95466217D01*
X173863000Y-98671916D01*
X173416511Y-98760729D01*
X172930330Y-99085585D01*
X172605474Y-99571766D01*
X172491400Y-100145255D01*
X172491400Y-100514745D01*
X172605474Y-101088234D01*
X172930330Y-101574415D01*
X173416511Y-101899271D01*
X173990000Y-102013345D01*
X174563489Y-101899271D01*
X175049670Y-101574415D01*
X175260000Y-101259634D01*
X175470330Y-101574415D01*
X175956511Y-101899271D01*
X176530000Y-102013345D01*
X177103489Y-101899271D01*
X177589670Y-101574415D01*
X177800000Y-101259634D01*
X178010330Y-101574415D01*
X178496511Y-101899271D01*
X179070000Y-102013345D01*
X179643489Y-101899271D01*
X180129670Y-101574415D01*
X180144500Y-101552219D01*
X180208073Y-101705698D01*
X180386701Y-101884327D01*
X180620090Y-101981000D01*
X180872709Y-101981000D01*
X182599909Y-101981000D01*
X182833298Y-101884327D01*
X183011927Y-101705699D01*
X183108600Y-101472310D01*
X183108600Y-102997691D01*
X183011927Y-102764302D01*
X182833299Y-102585673D01*
X182599910Y-102489000D01*
X182347291Y-102489000D01*
X181895750Y-102489000D01*
X181737000Y-102647750D01*
X181737000Y-104013000D01*
X182949850Y-104013000D01*
X183108600Y-103854250D01*
X183108600Y-104425750D01*
X182949850Y-104267000D01*
X181737000Y-104267000D01*
X181737000Y-105632250D01*
X181895750Y-105791000D01*
X182347291Y-105791000D01*
X182599910Y-105791000D01*
X182833299Y-105694327D01*
X183011927Y-105515698D01*
X183108600Y-105282309D01*
X183108600Y-125603000D01*
X181991691Y-125603000D01*
X181758302Y-125699673D01*
X181749144Y-125708830D01*
X181749144Y-111967698D01*
X181721362Y-111412632D01*
X181562397Y-111028857D01*
X181483000Y-111006083D01*
X181483000Y-105632250D01*
X181483000Y-104267000D01*
X181483000Y-104013000D01*
X181483000Y-102647750D01*
X181324250Y-102489000D01*
X180872709Y-102489000D01*
X180620090Y-102489000D01*
X180386701Y-102585673D01*
X180208073Y-102764302D01*
X180126241Y-102961860D01*
X179972036Y-102789268D01*
X179444791Y-102535291D01*
X179429026Y-102532642D01*
X179197000Y-102653783D01*
X179197000Y-104013000D01*
X180270150Y-104013000D01*
X180410924Y-104013000D01*
X181483000Y-104013000D01*
X181483000Y-104267000D01*
X180410924Y-104267000D01*
X180270150Y-104267000D01*
X179197000Y-104267000D01*
X179197000Y-105626217D01*
X179429026Y-105747358D01*
X179444791Y-105744709D01*
X179972036Y-105490732D01*
X180126241Y-105318139D01*
X180208073Y-105515698D01*
X180386701Y-105694327D01*
X180620090Y-105791000D01*
X180872709Y-105791000D01*
X181324250Y-105791000D01*
X181483000Y-105632250D01*
X181483000Y-111006083D01*
X181320213Y-110959392D01*
X181140608Y-111138997D01*
X181140608Y-110779787D01*
X181071143Y-110537603D01*
X180547698Y-110350856D01*
X179992632Y-110378638D01*
X179608857Y-110537603D01*
X179539392Y-110779787D01*
X180340000Y-111580395D01*
X181140608Y-110779787D01*
X181140608Y-111138997D01*
X180519605Y-111760000D01*
X181320213Y-112560608D01*
X181562397Y-112491143D01*
X181749144Y-111967698D01*
X181749144Y-125708830D01*
X181737000Y-125720974D01*
X181737000Y-117728310D01*
X181737000Y-117475691D01*
X181737000Y-115951691D01*
X181640327Y-115718302D01*
X181461699Y-115539673D01*
X181228310Y-115443000D01*
X181140608Y-115443000D01*
X181140608Y-112740213D01*
X180340000Y-111939605D01*
X180160395Y-112119210D01*
X180160395Y-111760000D01*
X179359787Y-110959392D01*
X179117603Y-111028857D01*
X178943000Y-111518262D01*
X178943000Y-105626217D01*
X178943000Y-104267000D01*
X178943000Y-104013000D01*
X178943000Y-102653783D01*
X178710974Y-102532642D01*
X178695209Y-102535291D01*
X178167964Y-102789268D01*
X177800000Y-103201108D01*
X177432036Y-102789268D01*
X176904791Y-102535291D01*
X176889026Y-102532642D01*
X176657000Y-102653783D01*
X176657000Y-104013000D01*
X177729076Y-104013000D01*
X177870924Y-104013000D01*
X178943000Y-104013000D01*
X178943000Y-104267000D01*
X177870924Y-104267000D01*
X177729076Y-104267000D01*
X176657000Y-104267000D01*
X176657000Y-105626217D01*
X176889026Y-105747358D01*
X176904791Y-105744709D01*
X177432036Y-105490732D01*
X177800000Y-105078891D01*
X178167964Y-105490732D01*
X178695209Y-105744709D01*
X178710974Y-105747358D01*
X178943000Y-105626217D01*
X178943000Y-111518262D01*
X178930856Y-111552302D01*
X178958638Y-112107368D01*
X179117603Y-112491143D01*
X179359787Y-112560608D01*
X180160395Y-111760000D01*
X180160395Y-112119210D01*
X179539392Y-112740213D01*
X179608857Y-112982397D01*
X180132302Y-113169144D01*
X180687368Y-113141362D01*
X181071143Y-112982397D01*
X181140608Y-112740213D01*
X181140608Y-115443000D01*
X180975691Y-115443000D01*
X179451691Y-115443000D01*
X179218302Y-115539673D01*
X179039673Y-115718301D01*
X178943000Y-115951690D01*
X178943000Y-116204309D01*
X178943000Y-117728309D01*
X179039673Y-117961698D01*
X179218301Y-118140327D01*
X179451690Y-118237000D01*
X179704309Y-118237000D01*
X181228309Y-118237000D01*
X181461698Y-118140327D01*
X181640327Y-117961699D01*
X181737000Y-117728310D01*
X181737000Y-125720974D01*
X181579673Y-125878301D01*
X181483000Y-126111690D01*
X181483000Y-126167613D01*
X181132370Y-125816371D01*
X180619100Y-125603243D01*
X180063339Y-125602758D01*
X179549697Y-125814990D01*
X179156371Y-126207630D01*
X179070050Y-126415512D01*
X178985010Y-126209697D01*
X178592370Y-125816371D01*
X178079100Y-125603243D01*
X177665000Y-125602881D01*
X177665000Y-116840000D01*
X177578603Y-116405654D01*
X177332566Y-116037434D01*
X176964346Y-115791397D01*
X176530000Y-115705000D01*
X176403000Y-115705000D01*
X176403000Y-105626217D01*
X176403000Y-104267000D01*
X176403000Y-104013000D01*
X176403000Y-102653783D01*
X176170974Y-102532642D01*
X176155209Y-102535291D01*
X175627964Y-102789268D01*
X175260000Y-103201108D01*
X174892036Y-102789268D01*
X174364791Y-102535291D01*
X174349026Y-102532642D01*
X174117000Y-102653783D01*
X174117000Y-104013000D01*
X175189076Y-104013000D01*
X175330924Y-104013000D01*
X176403000Y-104013000D01*
X176403000Y-104267000D01*
X175330924Y-104267000D01*
X175189076Y-104267000D01*
X174117000Y-104267000D01*
X174117000Y-105626217D01*
X174349026Y-105747358D01*
X174364791Y-105744709D01*
X174892036Y-105490732D01*
X175260000Y-105078891D01*
X175627964Y-105490732D01*
X176155209Y-105744709D01*
X176170974Y-105747358D01*
X176403000Y-105626217D01*
X176403000Y-115705000D01*
X173863000Y-115705000D01*
X173863000Y-105626217D01*
X173863000Y-104267000D01*
X173863000Y-104013000D01*
X173863000Y-102653783D01*
X173630974Y-102532642D01*
X173615209Y-102535291D01*
X173087964Y-102789268D01*
X172698046Y-103225680D01*
X172504816Y-103778087D01*
X172649076Y-104013000D01*
X173863000Y-104013000D01*
X173863000Y-104267000D01*
X172649076Y-104267000D01*
X172504816Y-104501913D01*
X172698046Y-105054320D01*
X173087964Y-105490732D01*
X173615209Y-105744709D01*
X173630974Y-105747358D01*
X173863000Y-105626217D01*
X173863000Y-115705000D01*
X161290000Y-115705000D01*
X160855654Y-115791397D01*
X160487434Y-116037434D01*
X160241397Y-116405654D01*
X160155000Y-116840000D01*
X160241397Y-117274346D01*
X160487434Y-117642566D01*
X160855654Y-117888603D01*
X161290000Y-117975000D01*
X176530000Y-117975000D01*
X176964346Y-117888603D01*
X177332566Y-117642566D01*
X177578603Y-117274346D01*
X177665000Y-116840000D01*
X177665000Y-125602881D01*
X177523339Y-125602758D01*
X177009697Y-125814990D01*
X176616371Y-126207630D01*
X176530050Y-126415512D01*
X176445010Y-126209697D01*
X176052370Y-125816371D01*
X175539100Y-125603243D01*
X174983339Y-125602758D01*
X174469697Y-125814990D01*
X174076371Y-126207630D01*
X173996605Y-126399727D01*
X173942397Y-126268857D01*
X173700213Y-126199392D01*
X173520608Y-126378997D01*
X173520608Y-126019787D01*
X173451143Y-125777603D01*
X172927698Y-125590856D01*
X172372632Y-125618638D01*
X171988857Y-125777603D01*
X171919392Y-126019787D01*
X172720000Y-126820395D01*
X173520608Y-126019787D01*
X173520608Y-126378997D01*
X172899605Y-127000000D01*
X173700213Y-127800608D01*
X173942397Y-127731143D01*
X173992508Y-127590682D01*
X174074990Y-127790303D01*
X174467630Y-128183629D01*
X174980900Y-128396757D01*
X175536661Y-128397242D01*
X176050303Y-128185010D01*
X176443629Y-127792370D01*
X176529949Y-127584487D01*
X176614990Y-127790303D01*
X177007630Y-128183629D01*
X177520900Y-128396757D01*
X178076661Y-128397242D01*
X178590303Y-128185010D01*
X178983629Y-127792370D01*
X179069949Y-127584487D01*
X179154990Y-127790303D01*
X179547630Y-128183629D01*
X180060900Y-128396757D01*
X180616661Y-128397242D01*
X181130303Y-128185010D01*
X181483000Y-127832928D01*
X181483000Y-127888309D01*
X181579673Y-128121698D01*
X181758301Y-128300327D01*
X181991690Y-128397000D01*
X182244309Y-128397000D01*
X183768309Y-128397000D01*
X184001698Y-128300327D01*
X184180327Y-128121699D01*
X184277000Y-127888310D01*
X184277000Y-151690000D01*
X173520608Y-151690000D01*
X173520608Y-127980213D01*
X172720000Y-127179605D01*
X172540395Y-127359210D01*
X172540395Y-127000000D01*
X171739787Y-126199392D01*
X171497603Y-126268857D01*
X171447491Y-126409317D01*
X171365010Y-126209697D01*
X171315000Y-126159599D01*
X171315000Y-119380000D01*
X171228603Y-118945654D01*
X170982566Y-118577434D01*
X170614346Y-118331397D01*
X170180000Y-118245000D01*
X161290000Y-118245000D01*
X160855654Y-118331397D01*
X160487434Y-118577434D01*
X160241397Y-118945654D01*
X160155000Y-119380000D01*
X160241397Y-119814346D01*
X160487434Y-120182566D01*
X160855654Y-120428603D01*
X161290000Y-120515000D01*
X170180000Y-120515000D01*
X170614346Y-120428603D01*
X170982566Y-120182566D01*
X171228603Y-119814346D01*
X171315000Y-119380000D01*
X171315000Y-126159599D01*
X170972370Y-125816371D01*
X170459100Y-125603243D01*
X169903339Y-125602758D01*
X169389697Y-125814990D01*
X168996371Y-126207630D01*
X168783243Y-126720900D01*
X168782758Y-127276661D01*
X168994990Y-127790303D01*
X169387630Y-128183629D01*
X169900900Y-128396757D01*
X170456661Y-128397242D01*
X170970303Y-128185010D01*
X171363629Y-127792370D01*
X171443394Y-127600272D01*
X171497603Y-127731143D01*
X171739787Y-127800608D01*
X172540395Y-127000000D01*
X172540395Y-127359210D01*
X171919392Y-127980213D01*
X171988857Y-128222397D01*
X172512302Y-128409144D01*
X173067368Y-128381362D01*
X173451143Y-128222397D01*
X173520608Y-127980213D01*
X173520608Y-151690000D01*
X159524144Y-151690000D01*
X159524144Y-114507698D01*
X159512242Y-114269903D01*
X159512242Y-111483339D01*
X159300010Y-110969697D01*
X158907370Y-110576371D01*
X158394100Y-110363243D01*
X157838339Y-110362758D01*
X157324697Y-110574990D01*
X156931371Y-110967630D01*
X156718243Y-111480900D01*
X156717758Y-112036661D01*
X156929990Y-112550303D01*
X157322630Y-112943629D01*
X157514727Y-113023394D01*
X157383857Y-113077603D01*
X157314392Y-113319787D01*
X158115000Y-114120395D01*
X158915608Y-113319787D01*
X158846143Y-113077603D01*
X158705682Y-113027491D01*
X158905303Y-112945010D01*
X159298629Y-112552370D01*
X159511757Y-112039100D01*
X159512242Y-111483339D01*
X159512242Y-114269903D01*
X159496362Y-113952632D01*
X159337397Y-113568857D01*
X159095213Y-113499392D01*
X158294605Y-114300000D01*
X159095213Y-115100608D01*
X159337397Y-115031143D01*
X159524144Y-114507698D01*
X159524144Y-151690000D01*
X159512242Y-151690000D01*
X159512242Y-144503339D01*
X159300010Y-143989697D01*
X158907370Y-143596371D01*
X158699487Y-143510050D01*
X158905303Y-143425010D01*
X159298629Y-143032370D01*
X159511757Y-142519100D01*
X159512242Y-141963339D01*
X159300010Y-141449697D01*
X158907370Y-141056371D01*
X158699487Y-140970050D01*
X158905303Y-140885010D01*
X159298629Y-140492370D01*
X159511757Y-139979100D01*
X159512242Y-139423339D01*
X159300010Y-138909697D01*
X158907370Y-138516371D01*
X158699487Y-138430050D01*
X158905303Y-138345010D01*
X159298629Y-137952370D01*
X159511757Y-137439100D01*
X159512242Y-136883339D01*
X159300010Y-136369697D01*
X158907370Y-135976371D01*
X158699487Y-135890050D01*
X158905303Y-135805010D01*
X159298629Y-135412370D01*
X159511757Y-134899100D01*
X159512242Y-134343339D01*
X159300010Y-133829697D01*
X158907370Y-133436371D01*
X158699487Y-133350050D01*
X158905303Y-133265010D01*
X159298629Y-132872370D01*
X159511757Y-132359100D01*
X159512242Y-131803339D01*
X159300010Y-131289697D01*
X158907370Y-130896371D01*
X158699487Y-130810050D01*
X158905303Y-130725010D01*
X159298629Y-130332370D01*
X159511757Y-129819100D01*
X159512242Y-129263339D01*
X159300010Y-128749697D01*
X158907370Y-128356371D01*
X158699487Y-128270050D01*
X158905303Y-128185010D01*
X159298629Y-127792370D01*
X159511757Y-127279100D01*
X159512242Y-126723339D01*
X159300010Y-126209697D01*
X158907370Y-125816371D01*
X158699487Y-125730050D01*
X158905303Y-125645010D01*
X159298629Y-125252370D01*
X159511757Y-124739100D01*
X159512242Y-124183339D01*
X159300010Y-123669697D01*
X158907370Y-123276371D01*
X158699487Y-123190050D01*
X158905303Y-123105010D01*
X159298629Y-122712370D01*
X159511757Y-122199100D01*
X159512242Y-121643339D01*
X159300010Y-121129697D01*
X158907370Y-120736371D01*
X158699487Y-120650050D01*
X158905303Y-120565010D01*
X159298629Y-120172370D01*
X159511757Y-119659100D01*
X159512242Y-119103339D01*
X159300010Y-118589697D01*
X158907370Y-118196371D01*
X158699487Y-118110050D01*
X158905303Y-118025010D01*
X159298629Y-117632370D01*
X159511757Y-117119100D01*
X159512242Y-116563339D01*
X159300010Y-116049697D01*
X158907370Y-115656371D01*
X158715272Y-115576605D01*
X158846143Y-115522397D01*
X158915608Y-115280213D01*
X158115000Y-114479605D01*
X157935395Y-114659210D01*
X157935395Y-114300000D01*
X157134787Y-113499392D01*
X156892603Y-113568857D01*
X156705856Y-114092302D01*
X156733638Y-114647368D01*
X156892603Y-115031143D01*
X157134787Y-115100608D01*
X157935395Y-114300000D01*
X157935395Y-114659210D01*
X157314392Y-115280213D01*
X157383857Y-115522397D01*
X157524317Y-115572508D01*
X157324697Y-115654990D01*
X156931371Y-116047630D01*
X156718243Y-116560900D01*
X156717758Y-117116661D01*
X156929990Y-117630303D01*
X157322630Y-118023629D01*
X157530512Y-118109949D01*
X157324697Y-118194990D01*
X156931371Y-118587630D01*
X156718243Y-119100900D01*
X156717758Y-119656661D01*
X156929990Y-120170303D01*
X157322630Y-120563629D01*
X157530512Y-120649949D01*
X157324697Y-120734990D01*
X156931371Y-121127630D01*
X156718243Y-121640900D01*
X156717758Y-122196661D01*
X156929990Y-122710303D01*
X157322630Y-123103629D01*
X157530512Y-123189949D01*
X157324697Y-123274990D01*
X156931371Y-123667630D01*
X156718243Y-124180900D01*
X156717758Y-124736661D01*
X156929990Y-125250303D01*
X157322630Y-125643629D01*
X157530512Y-125729949D01*
X157324697Y-125814990D01*
X156931371Y-126207630D01*
X156718243Y-126720900D01*
X156717758Y-127276661D01*
X156929990Y-127790303D01*
X157322630Y-128183629D01*
X157530512Y-128269949D01*
X157324697Y-128354990D01*
X156931371Y-128747630D01*
X156718243Y-129260900D01*
X156717758Y-129816661D01*
X156929990Y-130330303D01*
X157322630Y-130723629D01*
X157530512Y-130809949D01*
X157324697Y-130894990D01*
X156931371Y-131287630D01*
X156718243Y-131800900D01*
X156717758Y-132356661D01*
X156929990Y-132870303D01*
X157322630Y-133263629D01*
X157530512Y-133349949D01*
X157324697Y-133434990D01*
X156931371Y-133827630D01*
X156718243Y-134340900D01*
X156717758Y-134896661D01*
X156929990Y-135410303D01*
X157322630Y-135803629D01*
X157530512Y-135889949D01*
X157324697Y-135974990D01*
X156931371Y-136367630D01*
X156718243Y-136880900D01*
X156717758Y-137436661D01*
X156929990Y-137950303D01*
X157322630Y-138343629D01*
X157530512Y-138429949D01*
X157324697Y-138514990D01*
X156931371Y-138907630D01*
X156718243Y-139420900D01*
X156717758Y-139976661D01*
X156929990Y-140490303D01*
X157322630Y-140883629D01*
X157530512Y-140969949D01*
X157324697Y-141054990D01*
X156931371Y-141447630D01*
X156718243Y-141960900D01*
X156717758Y-142516661D01*
X156929990Y-143030303D01*
X157322630Y-143423629D01*
X157530512Y-143509949D01*
X157324697Y-143594990D01*
X156931371Y-143987630D01*
X156718243Y-144500900D01*
X156717758Y-145056661D01*
X156929990Y-145570303D01*
X157282071Y-145923000D01*
X157226691Y-145923000D01*
X156993302Y-146019673D01*
X156814673Y-146198301D01*
X156718000Y-146431690D01*
X156718000Y-146684309D01*
X156718000Y-148208309D01*
X156814673Y-148441698D01*
X156993301Y-148620327D01*
X157226690Y-148717000D01*
X157479309Y-148717000D01*
X159003309Y-148717000D01*
X159236698Y-148620327D01*
X159415327Y-148441699D01*
X159512000Y-148208310D01*
X159512000Y-147955691D01*
X159512000Y-146431691D01*
X159415327Y-146198302D01*
X159236699Y-146019673D01*
X159003310Y-145923000D01*
X158947386Y-145923000D01*
X159298629Y-145572370D01*
X159511757Y-145059100D01*
X159512242Y-144503339D01*
X159512242Y-151690000D01*
X121424144Y-151690000D01*
X121424144Y-144987698D01*
X121424144Y-129747698D01*
X121424144Y-119587698D01*
X121424144Y-104347698D01*
X121396362Y-103792632D01*
X121237397Y-103408857D01*
X120995213Y-103339392D01*
X120815608Y-103518997D01*
X120815608Y-103159787D01*
X120746143Y-102917603D01*
X120222698Y-102730856D01*
X119667632Y-102758638D01*
X119283857Y-102917603D01*
X119214392Y-103159787D01*
X120015000Y-103960395D01*
X120815608Y-103159787D01*
X120815608Y-103518997D01*
X120194605Y-104140000D01*
X120995213Y-104940608D01*
X121237397Y-104871143D01*
X121424144Y-104347698D01*
X121424144Y-119587698D01*
X121412242Y-119349903D01*
X121412242Y-116563339D01*
X121200010Y-116049697D01*
X120807370Y-115656371D01*
X120599487Y-115570050D01*
X120805303Y-115485010D01*
X121198629Y-115092370D01*
X121411757Y-114579100D01*
X121412242Y-114023339D01*
X121200010Y-113509697D01*
X120807370Y-113116371D01*
X120599487Y-113030050D01*
X120805303Y-112945010D01*
X121198629Y-112552370D01*
X121411757Y-112039100D01*
X121412242Y-111483339D01*
X121200010Y-110969697D01*
X120807370Y-110576371D01*
X120599487Y-110490050D01*
X120805303Y-110405010D01*
X121198629Y-110012370D01*
X121411757Y-109499100D01*
X121412242Y-108943339D01*
X121200010Y-108429697D01*
X120807370Y-108036371D01*
X120599487Y-107950050D01*
X120805303Y-107865010D01*
X121198629Y-107472370D01*
X121411757Y-106959100D01*
X121412242Y-106403339D01*
X121200010Y-105889697D01*
X120807370Y-105496371D01*
X120615272Y-105416605D01*
X120746143Y-105362397D01*
X120815608Y-105120213D01*
X120015000Y-104319605D01*
X119835395Y-104499210D01*
X119835395Y-104140000D01*
X119034787Y-103339392D01*
X118792603Y-103408857D01*
X118605856Y-103932302D01*
X118633638Y-104487368D01*
X118792603Y-104871143D01*
X119034787Y-104940608D01*
X119835395Y-104140000D01*
X119835395Y-104499210D01*
X119214392Y-105120213D01*
X119283857Y-105362397D01*
X119424317Y-105412508D01*
X119224697Y-105494990D01*
X118831371Y-105887630D01*
X118618243Y-106400900D01*
X118617758Y-106956661D01*
X118829990Y-107470303D01*
X119222630Y-107863629D01*
X119430512Y-107949949D01*
X119224697Y-108034990D01*
X118831371Y-108427630D01*
X118618243Y-108940900D01*
X118617758Y-109496661D01*
X118829990Y-110010303D01*
X119222630Y-110403629D01*
X119430512Y-110489949D01*
X119224697Y-110574990D01*
X118831371Y-110967630D01*
X118618243Y-111480900D01*
X118617758Y-112036661D01*
X118829990Y-112550303D01*
X119222630Y-112943629D01*
X119430512Y-113029949D01*
X119224697Y-113114990D01*
X118831371Y-113507630D01*
X118618243Y-114020900D01*
X118617758Y-114576661D01*
X118829990Y-115090303D01*
X119222630Y-115483629D01*
X119430512Y-115569949D01*
X119224697Y-115654990D01*
X118831371Y-116047630D01*
X118618243Y-116560900D01*
X118617758Y-117116661D01*
X118829990Y-117630303D01*
X119222630Y-118023629D01*
X119414727Y-118103394D01*
X119283857Y-118157603D01*
X119214392Y-118399787D01*
X120015000Y-119200395D01*
X120815608Y-118399787D01*
X120746143Y-118157603D01*
X120605682Y-118107491D01*
X120805303Y-118025010D01*
X121198629Y-117632370D01*
X121411757Y-117119100D01*
X121412242Y-116563339D01*
X121412242Y-119349903D01*
X121396362Y-119032632D01*
X121237397Y-118648857D01*
X120995213Y-118579392D01*
X120194605Y-119380000D01*
X120995213Y-120180608D01*
X121237397Y-120111143D01*
X121424144Y-119587698D01*
X121424144Y-129747698D01*
X121412242Y-129509903D01*
X121412242Y-121643339D01*
X121200010Y-121129697D01*
X120807370Y-120736371D01*
X120615272Y-120656605D01*
X120746143Y-120602397D01*
X120815608Y-120360213D01*
X120015000Y-119559605D01*
X119835395Y-119739210D01*
X119835395Y-119380000D01*
X119034787Y-118579392D01*
X118792603Y-118648857D01*
X118605856Y-119172302D01*
X118633638Y-119727368D01*
X118792603Y-120111143D01*
X119034787Y-120180608D01*
X119835395Y-119380000D01*
X119835395Y-119739210D01*
X119214392Y-120360213D01*
X119283857Y-120602397D01*
X119424317Y-120652508D01*
X119224697Y-120734990D01*
X118831371Y-121127630D01*
X118618243Y-121640900D01*
X118617758Y-122196661D01*
X118829990Y-122710303D01*
X119222630Y-123103629D01*
X119735900Y-123316757D01*
X120291661Y-123317242D01*
X120805303Y-123105010D01*
X121198629Y-122712370D01*
X121411757Y-122199100D01*
X121412242Y-121643339D01*
X121412242Y-129509903D01*
X121396362Y-129192632D01*
X121237397Y-128808857D01*
X120995213Y-128739392D01*
X120815608Y-128918997D01*
X120815608Y-128559787D01*
X120746143Y-128317603D01*
X120222698Y-128130856D01*
X119667632Y-128158638D01*
X119283857Y-128317603D01*
X119214392Y-128559787D01*
X120015000Y-129360395D01*
X120815608Y-128559787D01*
X120815608Y-128918997D01*
X120194605Y-129540000D01*
X120995213Y-130340608D01*
X121237397Y-130271143D01*
X121424144Y-129747698D01*
X121424144Y-144987698D01*
X121412242Y-144749903D01*
X121412242Y-141963339D01*
X121200010Y-141449697D01*
X120807370Y-141056371D01*
X120599487Y-140970050D01*
X120805303Y-140885010D01*
X121198629Y-140492370D01*
X121411757Y-139979100D01*
X121412242Y-139423339D01*
X121200010Y-138909697D01*
X120807370Y-138516371D01*
X120599487Y-138430050D01*
X120805303Y-138345010D01*
X121198629Y-137952370D01*
X121411757Y-137439100D01*
X121412242Y-136883339D01*
X121200010Y-136369697D01*
X120807370Y-135976371D01*
X120599487Y-135890050D01*
X120805303Y-135805010D01*
X121198629Y-135412370D01*
X121411757Y-134899100D01*
X121412242Y-134343339D01*
X121200010Y-133829697D01*
X120807370Y-133436371D01*
X120599487Y-133350050D01*
X120805303Y-133265010D01*
X121198629Y-132872370D01*
X121411757Y-132359100D01*
X121412242Y-131803339D01*
X121200010Y-131289697D01*
X120807370Y-130896371D01*
X120615272Y-130816605D01*
X120746143Y-130762397D01*
X120815608Y-130520213D01*
X120015000Y-129719605D01*
X119835395Y-129899210D01*
X119835395Y-129540000D01*
X119034787Y-128739392D01*
X118792603Y-128808857D01*
X118605856Y-129332302D01*
X118633638Y-129887368D01*
X118792603Y-130271143D01*
X119034787Y-130340608D01*
X119835395Y-129540000D01*
X119835395Y-129899210D01*
X119214392Y-130520213D01*
X119283857Y-130762397D01*
X119424317Y-130812508D01*
X119224697Y-130894990D01*
X118831371Y-131287630D01*
X118618243Y-131800900D01*
X118617758Y-132356661D01*
X118829990Y-132870303D01*
X119222630Y-133263629D01*
X119430512Y-133349949D01*
X119224697Y-133434990D01*
X118831371Y-133827630D01*
X118618243Y-134340900D01*
X118617758Y-134896661D01*
X118829990Y-135410303D01*
X119222630Y-135803629D01*
X119430512Y-135889949D01*
X119224697Y-135974990D01*
X118831371Y-136367630D01*
X118618243Y-136880900D01*
X118617758Y-137436661D01*
X118829990Y-137950303D01*
X119222630Y-138343629D01*
X119430512Y-138429949D01*
X119224697Y-138514990D01*
X118831371Y-138907630D01*
X118618243Y-139420900D01*
X118617758Y-139976661D01*
X118829990Y-140490303D01*
X119222630Y-140883629D01*
X119430512Y-140969949D01*
X119224697Y-141054990D01*
X118831371Y-141447630D01*
X118618243Y-141960900D01*
X118617758Y-142516661D01*
X118829990Y-143030303D01*
X119222630Y-143423629D01*
X119414727Y-143503394D01*
X119283857Y-143557603D01*
X119214392Y-143799787D01*
X120015000Y-144600395D01*
X120815608Y-143799787D01*
X120746143Y-143557603D01*
X120605682Y-143507491D01*
X120805303Y-143425010D01*
X121198629Y-143032370D01*
X121411757Y-142519100D01*
X121412242Y-141963339D01*
X121412242Y-144749903D01*
X121396362Y-144432632D01*
X121237397Y-144048857D01*
X120995213Y-143979392D01*
X120194605Y-144780000D01*
X120995213Y-145580608D01*
X121237397Y-145511143D01*
X121424144Y-144987698D01*
X121424144Y-151690000D01*
X121412242Y-151690000D01*
X121412242Y-147043339D01*
X121200010Y-146529697D01*
X120807370Y-146136371D01*
X120615272Y-146056605D01*
X120746143Y-146002397D01*
X120815608Y-145760213D01*
X120015000Y-144959605D01*
X119835395Y-145139210D01*
X119835395Y-144780000D01*
X119034787Y-143979392D01*
X118792603Y-144048857D01*
X118605856Y-144572302D01*
X118633638Y-145127368D01*
X118792603Y-145511143D01*
X119034787Y-145580608D01*
X119835395Y-144780000D01*
X119835395Y-145139210D01*
X119214392Y-145760213D01*
X119283857Y-146002397D01*
X119424317Y-146052508D01*
X119224697Y-146134990D01*
X118831371Y-146527630D01*
X118618243Y-147040900D01*
X118617758Y-147596661D01*
X118829990Y-148110303D01*
X119222630Y-148503629D01*
X119735900Y-148716757D01*
X120291661Y-148717242D01*
X120805303Y-148505010D01*
X121198629Y-148112370D01*
X121411757Y-147599100D01*
X121412242Y-147043339D01*
X121412242Y-151690000D01*
X113674261Y-151690000D01*
X113674261Y-99388964D01*
X113665000Y-99035062D01*
X113665000Y-95376310D01*
X113665000Y-95123691D01*
X113665000Y-92583691D01*
X113568327Y-92350302D01*
X113389699Y-92171673D01*
X113156310Y-92075000D01*
X112903691Y-92075000D01*
X111887462Y-92075000D01*
X111887462Y-68051828D01*
X111482291Y-67071239D01*
X110732707Y-66320345D01*
X109752827Y-65913464D01*
X108691828Y-65912538D01*
X107711239Y-66317709D01*
X106960345Y-67067293D01*
X106553464Y-68047173D01*
X106552538Y-69108172D01*
X106957709Y-70088761D01*
X107707293Y-70839655D01*
X108687173Y-71246536D01*
X109748172Y-71247462D01*
X110728761Y-70842291D01*
X111479655Y-70092707D01*
X111886536Y-69112827D01*
X111887462Y-68051828D01*
X111887462Y-92075000D01*
X110363691Y-92075000D01*
X110130302Y-92171673D01*
X109951673Y-92350301D01*
X109855000Y-92583690D01*
X109855000Y-92836309D01*
X109855000Y-95376309D01*
X109951673Y-95609698D01*
X110130301Y-95788327D01*
X110363690Y-95885000D01*
X110616309Y-95885000D01*
X113156309Y-95885000D01*
X113389698Y-95788327D01*
X113568327Y-95609699D01*
X113665000Y-95376310D01*
X113665000Y-99035062D01*
X113654436Y-98631368D01*
X113402657Y-98023520D01*
X113107777Y-97891828D01*
X112928172Y-98071433D01*
X112928172Y-97712223D01*
X112796480Y-97417343D01*
X112088964Y-97145739D01*
X111331368Y-97165564D01*
X110723520Y-97417343D01*
X110591828Y-97712223D01*
X111760000Y-98880395D01*
X112928172Y-97712223D01*
X112928172Y-98071433D01*
X111939605Y-99060000D01*
X113107777Y-100228172D01*
X113402657Y-100096480D01*
X113674261Y-99388964D01*
X113674261Y-151690000D01*
X113443345Y-151690000D01*
X113443345Y-134620000D01*
X113329271Y-134046511D01*
X113004415Y-133560330D01*
X112689634Y-133350000D01*
X113004415Y-133139670D01*
X113329271Y-132653489D01*
X113443345Y-132080000D01*
X113329271Y-131506511D01*
X113004415Y-131020330D01*
X112689634Y-130810000D01*
X113004415Y-130599670D01*
X113329271Y-130113489D01*
X113443345Y-129540000D01*
X113443345Y-114300000D01*
X113329271Y-113726511D01*
X113004415Y-113240330D01*
X112689634Y-113030000D01*
X113004415Y-112819670D01*
X113329271Y-112333489D01*
X113443345Y-111760000D01*
X113329271Y-111186511D01*
X113004415Y-110700330D01*
X112689634Y-110490000D01*
X113004415Y-110279670D01*
X113329271Y-109793489D01*
X113443345Y-109220000D01*
X113329271Y-108646511D01*
X113004415Y-108160330D01*
X112928172Y-108109386D01*
X112928172Y-100407777D01*
X111760000Y-99239605D01*
X111580395Y-99419210D01*
X111580395Y-99060000D01*
X110412223Y-97891828D01*
X110117343Y-98023520D01*
X109845739Y-98731036D01*
X109865564Y-99488632D01*
X110117343Y-100096480D01*
X110412223Y-100228172D01*
X111580395Y-99060000D01*
X111580395Y-99419210D01*
X110591828Y-100407777D01*
X110723520Y-100702657D01*
X111431036Y-100974261D01*
X112188632Y-100954436D01*
X112796480Y-100702657D01*
X112928172Y-100407777D01*
X112928172Y-108109386D01*
X112518234Y-107835474D01*
X111944745Y-107721400D01*
X111575255Y-107721400D01*
X111001766Y-107835474D01*
X110515585Y-108160330D01*
X110190729Y-108646511D01*
X110076655Y-109220000D01*
X110190729Y-109793489D01*
X110515585Y-110279670D01*
X110830365Y-110490000D01*
X110515585Y-110700330D01*
X110190729Y-111186511D01*
X110076655Y-111760000D01*
X110190729Y-112333489D01*
X110515585Y-112819670D01*
X110830365Y-113030000D01*
X110515585Y-113240330D01*
X110190729Y-113726511D01*
X110076655Y-114300000D01*
X110190729Y-114873489D01*
X110515585Y-115359670D01*
X110537780Y-115374500D01*
X110384302Y-115438073D01*
X110205673Y-115616701D01*
X110109000Y-115850090D01*
X110109000Y-116102709D01*
X110109000Y-117829909D01*
X110205673Y-118063298D01*
X110384301Y-118241927D01*
X110617690Y-118338600D01*
X110870309Y-118338600D01*
X112902309Y-118338600D01*
X113135698Y-118241927D01*
X113314327Y-118063299D01*
X113411000Y-117829910D01*
X113411000Y-117577291D01*
X113411000Y-115850091D01*
X113314327Y-115616702D01*
X113135699Y-115438073D01*
X112982220Y-115374499D01*
X113004415Y-115359670D01*
X113329271Y-114873489D01*
X113443345Y-114300000D01*
X113443345Y-129540000D01*
X113329271Y-128966511D01*
X113004415Y-128480330D01*
X112518234Y-128155474D01*
X111944745Y-128041400D01*
X111575255Y-128041400D01*
X111001766Y-128155474D01*
X110515585Y-128480330D01*
X110190729Y-128966511D01*
X110076655Y-129540000D01*
X110190729Y-130113489D01*
X110515585Y-130599670D01*
X110830365Y-130810000D01*
X110515585Y-131020330D01*
X110190729Y-131506511D01*
X110076655Y-132080000D01*
X110190729Y-132653489D01*
X110515585Y-133139670D01*
X110830365Y-133350000D01*
X110515585Y-133560330D01*
X110190729Y-134046511D01*
X110076655Y-134620000D01*
X110190729Y-135193489D01*
X110515585Y-135679670D01*
X110537780Y-135694500D01*
X110384302Y-135758073D01*
X110205673Y-135936701D01*
X110109000Y-136170090D01*
X110109000Y-136422709D01*
X110109000Y-138149909D01*
X110205673Y-138383298D01*
X110384301Y-138561927D01*
X110617690Y-138658600D01*
X110870309Y-138658600D01*
X112902309Y-138658600D01*
X113135698Y-138561927D01*
X113314327Y-138383299D01*
X113411000Y-138149910D01*
X113411000Y-137897291D01*
X113411000Y-136170091D01*
X113314327Y-135936702D01*
X113135699Y-135758073D01*
X112982220Y-135694499D01*
X113004415Y-135679670D01*
X113329271Y-135193489D01*
X113443345Y-134620000D01*
X113443345Y-151690000D01*
X111887462Y-151690000D01*
X111887462Y-146791828D01*
X111482291Y-145811239D01*
X110732707Y-145060345D01*
X109752827Y-144653464D01*
X108691828Y-144652538D01*
X107711239Y-145057709D01*
X106960345Y-145807293D01*
X106553464Y-146787173D01*
X106552538Y-147848172D01*
X106957709Y-148828761D01*
X107707293Y-149579655D01*
X108687173Y-149986536D01*
X109748172Y-149987462D01*
X110728761Y-149582291D01*
X111479655Y-148832707D01*
X111886536Y-147852827D01*
X111887462Y-146791828D01*
X111887462Y-151690000D01*
X105485000Y-151690000D01*
X105485000Y-64210000D01*
X195505000Y-64210000D01*
X195505000Y-151690000D01*
M02*
