%FSLAX46Y46*%
G04 Gerber Fmt 4.6, Leading zero omitted, Abs format (unit mm)*
G04 Created by KiCad (PCBNEW (2014-jul-16 BZR unknown)-product) date mar. 06 oct. 2015 20:27:54 CEST*
%MOMM*%
G01*
G04 APERTURE LIST*
%ADD10C,0.100000*%
%ADD11R,1.524000X1.524000*%
%ADD12C,1.524000*%
%ADD13R,2.540000X2.540000*%
%ADD14C,2.540000*%
%ADD15R,1.727200X2.032000*%
%ADD16O,1.727200X2.032000*%
%ADD17R,2.032000X1.727200*%
%ADD18O,2.032000X1.727200*%
%ADD19R,2.032000X2.032000*%
%ADD20O,2.032000X2.032000*%
%ADD21C,4.064000*%
%ADD22C,0.889000*%
%ADD23C,0.254000*%
%ADD24C,1.000000*%
%ADD25C,0.500000*%
G04 APERTURE END LIST*
D10*
D11*
X158115000Y-147320000D03*
D12*
X158115000Y-144780000D03*
X158115000Y-142240000D03*
X158115000Y-139700000D03*
X158115000Y-137160000D03*
X158115000Y-134620000D03*
X158115000Y-132080000D03*
X158115000Y-129540000D03*
X158115000Y-127000000D03*
X158115000Y-124460000D03*
X158115000Y-121920000D03*
X158115000Y-119380000D03*
X158115000Y-116840000D03*
X158115000Y-114300000D03*
X158115000Y-111760000D03*
X142875000Y-111760000D03*
X142875000Y-114300000D03*
X142875000Y-116840000D03*
X142875000Y-119380000D03*
X142875000Y-121920000D03*
X142875000Y-124460000D03*
X142875000Y-127000000D03*
X142875000Y-129540000D03*
X142875000Y-132080000D03*
X142875000Y-134620000D03*
X142875000Y-137160000D03*
X142875000Y-139700000D03*
X142875000Y-142240000D03*
X142875000Y-144780000D03*
X142875000Y-147320000D03*
D13*
X111760000Y-93980000D03*
D14*
X111760000Y-99060000D03*
D11*
X132715000Y-147320000D03*
D12*
X132715000Y-144780000D03*
X132715000Y-142240000D03*
X132715000Y-139700000D03*
X132715000Y-137160000D03*
X132715000Y-134620000D03*
X132715000Y-132080000D03*
X132715000Y-129540000D03*
X120015000Y-129540000D03*
X120015000Y-132080000D03*
X120015000Y-134620000D03*
X120015000Y-137160000D03*
X120015000Y-139700000D03*
X120015000Y-142240000D03*
X120015000Y-144780000D03*
X120015000Y-147320000D03*
D11*
X132715000Y-121920000D03*
D12*
X132715000Y-119380000D03*
X132715000Y-116840000D03*
X132715000Y-114300000D03*
X132715000Y-111760000D03*
X132715000Y-109220000D03*
X132715000Y-106680000D03*
X132715000Y-104140000D03*
X120015000Y-104140000D03*
X120015000Y-106680000D03*
X120015000Y-109220000D03*
X120015000Y-111760000D03*
X120015000Y-114300000D03*
X120015000Y-116840000D03*
X120015000Y-119380000D03*
X120015000Y-121920000D03*
D15*
X181610000Y-93980000D03*
D16*
X179070000Y-93980000D03*
X176530000Y-93980000D03*
X173990000Y-93980000D03*
D15*
X160020000Y-76200000D03*
D16*
X157480000Y-76200000D03*
X154940000Y-76200000D03*
X152400000Y-76200000D03*
X149860000Y-76200000D03*
X147320000Y-76200000D03*
D15*
X160020000Y-93980000D03*
D16*
X157480000Y-93980000D03*
X154940000Y-93980000D03*
X152400000Y-93980000D03*
X149860000Y-93980000D03*
X147320000Y-93980000D03*
D17*
X111760000Y-137160000D03*
D18*
X111760000Y-134620000D03*
X111760000Y-132080000D03*
X111760000Y-129540000D03*
D17*
X111760000Y-116840000D03*
D18*
X111760000Y-114300000D03*
X111760000Y-111760000D03*
X111760000Y-109220000D03*
D19*
X189230000Y-93980000D03*
D20*
X186690000Y-93980000D03*
D11*
X180340000Y-116840000D03*
D12*
X180340000Y-111760000D03*
X185420000Y-116840000D03*
X185420000Y-111760000D03*
D11*
X182880000Y-127000000D03*
D12*
X180340000Y-127000000D03*
X177800000Y-127000000D03*
X175260000Y-127000000D03*
X172720000Y-127000000D03*
X170180000Y-127000000D03*
D15*
X187960000Y-76200000D03*
D16*
X185420000Y-76200000D03*
X182880000Y-76200000D03*
X180340000Y-76200000D03*
X177800000Y-76200000D03*
X175260000Y-76200000D03*
X172720000Y-76200000D03*
X170180000Y-76200000D03*
D21*
X109220000Y-68580000D03*
X190500000Y-68580000D03*
X190500000Y-147320000D03*
X109220000Y-147320000D03*
D15*
X116840000Y-66040000D03*
D16*
X119380000Y-66040000D03*
X121920000Y-66040000D03*
X124460000Y-66040000D03*
X127000000Y-66040000D03*
X129540000Y-66040000D03*
X132080000Y-66040000D03*
X134620000Y-66040000D03*
X137160000Y-66040000D03*
X139700000Y-66040000D03*
D15*
X116840000Y-68580000D03*
D16*
X119380000Y-68580000D03*
X121920000Y-68580000D03*
X124460000Y-68580000D03*
X127000000Y-68580000D03*
X129540000Y-68580000D03*
X132080000Y-68580000D03*
X134620000Y-68580000D03*
X137160000Y-68580000D03*
X139700000Y-68580000D03*
D15*
X116840000Y-71120000D03*
D16*
X119380000Y-71120000D03*
X121920000Y-71120000D03*
X124460000Y-71120000D03*
X127000000Y-71120000D03*
X129540000Y-71120000D03*
X132080000Y-71120000D03*
X134620000Y-71120000D03*
X137160000Y-71120000D03*
X139700000Y-71120000D03*
D15*
X116840000Y-73660000D03*
D16*
X119380000Y-73660000D03*
X121920000Y-73660000D03*
X124460000Y-73660000D03*
X127000000Y-73660000D03*
X129540000Y-73660000D03*
X132080000Y-73660000D03*
X134620000Y-73660000D03*
X137160000Y-73660000D03*
X139700000Y-73660000D03*
D15*
X116840000Y-76200000D03*
D16*
X119380000Y-76200000D03*
X121920000Y-76200000D03*
X124460000Y-76200000D03*
X127000000Y-76200000D03*
X129540000Y-76200000D03*
X132080000Y-76200000D03*
X134620000Y-76200000D03*
X137160000Y-76200000D03*
X139700000Y-76200000D03*
D15*
X116840000Y-78740000D03*
D16*
X119380000Y-78740000D03*
X121920000Y-78740000D03*
X124460000Y-78740000D03*
X127000000Y-78740000D03*
X129540000Y-78740000D03*
X132080000Y-78740000D03*
X134620000Y-78740000D03*
X137160000Y-78740000D03*
X139700000Y-78740000D03*
D15*
X116840000Y-81280000D03*
D16*
X119380000Y-81280000D03*
X121920000Y-81280000D03*
X124460000Y-81280000D03*
X127000000Y-81280000D03*
X129540000Y-81280000D03*
X132080000Y-81280000D03*
X134620000Y-81280000D03*
X137160000Y-81280000D03*
X139700000Y-81280000D03*
D15*
X144780000Y-71120000D03*
D16*
X147320000Y-71120000D03*
X149860000Y-71120000D03*
X152400000Y-71120000D03*
D15*
X144780000Y-67310000D03*
D16*
X147320000Y-67310000D03*
X149860000Y-67310000D03*
X152400000Y-67310000D03*
D15*
X181610000Y-100330000D03*
D16*
X179070000Y-100330000D03*
X176530000Y-100330000D03*
X173990000Y-100330000D03*
D15*
X181610000Y-104140000D03*
D16*
X179070000Y-104140000D03*
X176530000Y-104140000D03*
X173990000Y-104140000D03*
D22*
X155575000Y-144795998D03*
X128270000Y-150479002D03*
X140970000Y-90170000D03*
X129540000Y-90170000D03*
X160020000Y-80010000D03*
X147955000Y-80010000D03*
X168910000Y-90170000D03*
X168910000Y-87630000D03*
X172720000Y-81915000D03*
X167640000Y-90170000D03*
X166370000Y-87630000D03*
X153035000Y-133985000D03*
X151765000Y-120650000D03*
X165100000Y-88265000D03*
X154305000Y-120650000D03*
X170815000Y-90170000D03*
X170180000Y-78740000D03*
X160020000Y-81280000D03*
X161290000Y-119380000D03*
X170180000Y-119380000D03*
X151757001Y-104767001D03*
X139065000Y-104775000D03*
X146685000Y-81280000D03*
X127000000Y-149225000D03*
X155575000Y-118110000D03*
X157480000Y-91440000D03*
X176530000Y-116840000D03*
X161290000Y-116840000D03*
D23*
X-90805000Y-102870000D02*
X-90170000Y-102870000D01*
X-91440000Y-71120000D02*
X-91440000Y-71755000D01*
D24*
X158115000Y-147320000D02*
X179070000Y-147320000D01*
X180340000Y-146050000D02*
X180340000Y-127000000D01*
X179070000Y-147320000D02*
X180340000Y-146050000D01*
X128270000Y-91440000D02*
X128270000Y-90805000D01*
X128270000Y-150479002D02*
X128270000Y-91440000D01*
X155590998Y-144780000D02*
X155575000Y-144795998D01*
X158115000Y-144780000D02*
X155590998Y-144780000D01*
X141001996Y-90138004D02*
X140970000Y-90170000D01*
X147955000Y-86995000D02*
X147955000Y-80010000D01*
X142271996Y-90138004D02*
X144145000Y-88265000D01*
X144145000Y-88265000D02*
X146685000Y-88265000D01*
X146685000Y-88265000D02*
X147955000Y-86995000D01*
X160020000Y-80010000D02*
X160020000Y-76200000D01*
X142271996Y-90138004D02*
X141001996Y-90138004D01*
X128905000Y-90170000D02*
X129540000Y-90170000D01*
X128270000Y-90805000D02*
X128905000Y-90170000D01*
X172720000Y-76200000D02*
X172720000Y-79375000D01*
X166370000Y-139700000D02*
X158115000Y-139700000D01*
X167640000Y-138430000D02*
X166370000Y-139700000D01*
X167640000Y-92710000D02*
X167640000Y-138430000D01*
X168910000Y-91440000D02*
X167640000Y-92710000D01*
X168910000Y-90170000D02*
X168910000Y-91440000D01*
X168910000Y-83185000D02*
X168910000Y-87630000D01*
X172720000Y-79375000D02*
X168910000Y-83185000D01*
X158115000Y-137160000D02*
X165100000Y-137160000D01*
X175260000Y-80645000D02*
X175260000Y-76200000D01*
X173990000Y-81915000D02*
X175260000Y-80645000D01*
X172720000Y-81915000D02*
X173990000Y-81915000D01*
X166370000Y-91440000D02*
X167640000Y-90170000D01*
X166370000Y-135890000D02*
X166370000Y-91440000D01*
X165100000Y-137160000D02*
X166370000Y-135890000D01*
X177800000Y-74295000D02*
X176530000Y-73025000D01*
X176530000Y-73025000D02*
X167624002Y-73025000D01*
X167624002Y-73025000D02*
X166370000Y-74279002D01*
X166370000Y-74279002D02*
X166370000Y-87630000D01*
X177800000Y-76200000D02*
X177800000Y-74295000D01*
X153670000Y-134620000D02*
X158115000Y-134620000D01*
X153035000Y-133985000D02*
X153670000Y-134620000D01*
X180340000Y-76200000D02*
X180340000Y-73025000D01*
X153035000Y-132080000D02*
X158115000Y-132080000D01*
X151765000Y-130810000D02*
X153035000Y-132080000D01*
X151765000Y-120650000D02*
X151765000Y-130810000D01*
X165100000Y-73025000D02*
X165100000Y-88265000D01*
X166385998Y-71739002D02*
X165100000Y-73025000D01*
X179054002Y-71739002D02*
X166385998Y-71739002D01*
X180340000Y-73025000D02*
X179054002Y-71739002D01*
X155575000Y-129540000D02*
X154305000Y-128270000D01*
X154305000Y-128270000D02*
X154305000Y-120650000D01*
X158115000Y-129540000D02*
X155575000Y-129540000D01*
X176530000Y-91440000D02*
X176530000Y-93980000D01*
X175244002Y-90154002D02*
X176530000Y-91440000D01*
X170830998Y-90154002D02*
X175244002Y-90154002D01*
X170815000Y-90170000D02*
X170830998Y-90154002D01*
X158115000Y-127000000D02*
X163830000Y-127000000D01*
X179070000Y-90170000D02*
X179070000Y-93980000D01*
X177800000Y-88900000D02*
X179070000Y-90170000D01*
X166370000Y-88900000D02*
X177800000Y-88900000D01*
X165084002Y-90185998D02*
X166370000Y-88900000D01*
X165084002Y-125745998D02*
X165084002Y-90185998D01*
X163830000Y-127000000D02*
X165084002Y-125745998D01*
X182880000Y-76200000D02*
X182880000Y-71755000D01*
X162560000Y-124460000D02*
X158115000Y-124460000D01*
X163830000Y-123190000D02*
X162560000Y-124460000D01*
X163830000Y-71739002D02*
X163830000Y-123190000D01*
X165084002Y-70485000D02*
X163830000Y-71739002D01*
X181610000Y-70485000D02*
X165084002Y-70485000D01*
X182880000Y-71755000D02*
X181610000Y-70485000D01*
X162560000Y-70485000D02*
X163830000Y-69215000D01*
X161290000Y-121920000D02*
X162560000Y-120650000D01*
X162560000Y-120650000D02*
X162560000Y-70485000D01*
X158115000Y-121920000D02*
X161290000Y-121920000D01*
X185420000Y-70485000D02*
X185420000Y-76200000D01*
X184150000Y-69215000D02*
X185420000Y-70485000D01*
X163830000Y-69215000D02*
X184150000Y-69215000D01*
X160020000Y-81280000D02*
X156210000Y-81280000D01*
X154940000Y-80010000D02*
X154940000Y-76200000D01*
X156210000Y-81280000D02*
X154940000Y-80010000D01*
X160020000Y-93980000D02*
X160020000Y-81280000D01*
X170180000Y-78740000D02*
X170180000Y-76200000D01*
X170180000Y-119380000D02*
X170180000Y-115570000D01*
X187960000Y-100330000D02*
X181610000Y-100330000D01*
X189230000Y-101600000D02*
X187960000Y-100330000D01*
X189230000Y-113030000D02*
X189230000Y-101600000D01*
X187960000Y-114300000D02*
X189230000Y-113030000D01*
X171450000Y-114300000D02*
X187960000Y-114300000D01*
X170180000Y-115570000D02*
X171450000Y-114300000D01*
X170180000Y-127000000D02*
X170180000Y-119380000D01*
X161290000Y-119380000D02*
X158115000Y-119380000D01*
X130810000Y-107315000D02*
X132715000Y-109220000D01*
X130810000Y-103505000D02*
X130810000Y-107315000D01*
X132080000Y-102235000D02*
X130810000Y-103505000D01*
X136525000Y-102235000D02*
X132080000Y-102235000D01*
X139065000Y-104775000D02*
X136525000Y-102235000D01*
X160020000Y-96520000D02*
X160004002Y-96520000D01*
X160020000Y-93980000D02*
X160020000Y-96520000D01*
X160004002Y-96520000D02*
X151757001Y-104767001D01*
X158115000Y-119380000D02*
X153035000Y-119380000D01*
X153035000Y-119380000D02*
X151749002Y-118094002D01*
X151749002Y-118094002D02*
X151749002Y-104775000D01*
X152400000Y-71120000D02*
X153670000Y-71120000D01*
X153670000Y-71120000D02*
X154940000Y-72390000D01*
X154940000Y-72390000D02*
X154940000Y-76200000D01*
X149860000Y-71120000D02*
X152400000Y-71120000D01*
X147320000Y-71120000D02*
X149860000Y-71120000D01*
X144780000Y-71120000D02*
X147320000Y-71120000D01*
X132715000Y-111760000D02*
X130810000Y-113665000D01*
X130810000Y-132715000D02*
X132715000Y-134620000D01*
X130810000Y-113665000D02*
X130810000Y-132715000D01*
X181610000Y-100330000D02*
X181610000Y-93980000D01*
X179070000Y-100330000D02*
X181610000Y-100330000D01*
X176530000Y-100330000D02*
X179070000Y-100330000D01*
X173990000Y-100330000D02*
X176530000Y-100330000D01*
X132715000Y-109220000D02*
X132715000Y-111760000D01*
X132715000Y-134620000D02*
X132715000Y-137160000D01*
D25*
X147320000Y-77470000D02*
X147320000Y-76200000D01*
X146685000Y-78105000D02*
X147320000Y-77470000D01*
X146685000Y-81280000D02*
X146685000Y-78105000D01*
D24*
X158115000Y-111760000D02*
X156210000Y-111760000D01*
X123190000Y-148590000D02*
X123190000Y-147320000D01*
X123825000Y-149225000D02*
X123190000Y-148590000D01*
X127000000Y-149225000D02*
X123825000Y-149225000D01*
X155575000Y-112395000D02*
X155575000Y-118110000D01*
X156210000Y-111760000D02*
X155575000Y-112395000D01*
X120015000Y-121920000D02*
X123190000Y-121920000D01*
X111760000Y-93980000D02*
X121920000Y-93980000D01*
X123190000Y-147320000D02*
X120015000Y-147320000D01*
X123190000Y-95250000D02*
X123190000Y-121920000D01*
X123190000Y-121920000D02*
X123190000Y-147320000D01*
X121920000Y-93980000D02*
X123190000Y-95250000D01*
X142875000Y-111760000D02*
X142875000Y-109855000D01*
X149860000Y-88265000D02*
X149860000Y-76200000D01*
X148590000Y-89535000D02*
X149860000Y-88265000D01*
X144780000Y-89535000D02*
X148590000Y-89535000D01*
X143525998Y-90789002D02*
X144780000Y-89535000D01*
X143525998Y-98440998D02*
X143525998Y-90789002D01*
X144160998Y-99075998D02*
X143525998Y-98440998D01*
X144160998Y-108569002D02*
X144160998Y-99075998D01*
X142875000Y-109855000D02*
X144160998Y-108569002D01*
X152400000Y-76200000D02*
X152400000Y-88900000D01*
X144145000Y-114300000D02*
X142875000Y-114300000D01*
X145415000Y-113030000D02*
X144145000Y-114300000D01*
X145415000Y-98425000D02*
X145415000Y-113030000D01*
X144780000Y-97790000D02*
X145415000Y-98425000D01*
X144780000Y-91440000D02*
X144780000Y-97790000D01*
X145415000Y-90805000D02*
X144780000Y-91440000D01*
X150495000Y-90805000D02*
X145415000Y-90805000D01*
X152400000Y-88900000D02*
X150495000Y-90805000D01*
X132715000Y-104140000D02*
X136525000Y-104140000D01*
X139065000Y-121920000D02*
X142875000Y-121920000D01*
X137795000Y-120650000D02*
X139065000Y-121920000D01*
X137795000Y-105410000D02*
X137795000Y-120650000D01*
X136525000Y-104140000D02*
X137795000Y-105410000D01*
X132715000Y-106680000D02*
X135255000Y-106680000D01*
X137795000Y-124460000D02*
X142875000Y-124460000D01*
X136525000Y-123190000D02*
X137795000Y-124460000D01*
X136525000Y-107950000D02*
X136525000Y-123190000D01*
X135255000Y-106680000D02*
X136525000Y-107950000D01*
X142875000Y-127000000D02*
X138430000Y-127000000D01*
X135890000Y-129540000D02*
X132715000Y-129540000D01*
X138430000Y-127000000D02*
X135890000Y-129540000D01*
X142875000Y-129540000D02*
X138430000Y-129540000D01*
X135890000Y-132080000D02*
X132715000Y-132080000D01*
X138430000Y-129540000D02*
X135890000Y-132080000D01*
X149860000Y-93980000D02*
X149860000Y-95250000D01*
X145415000Y-132080000D02*
X142875000Y-132080000D01*
X146669002Y-130825998D02*
X145415000Y-132080000D01*
X146669002Y-98440998D02*
X146669002Y-130825998D01*
X149860000Y-95250000D02*
X146669002Y-98440998D01*
X152400000Y-93980000D02*
X152400000Y-95885000D01*
X146685000Y-134620000D02*
X142875000Y-134620000D01*
X147923004Y-133381996D02*
X146685000Y-134620000D01*
X147923004Y-100361996D02*
X147923004Y-133381996D01*
X152400000Y-95885000D02*
X147923004Y-100361996D01*
X154940000Y-93980000D02*
X154940000Y-96472006D01*
X147955000Y-137160000D02*
X142875000Y-137160000D01*
X149225000Y-135890000D02*
X147955000Y-137160000D01*
X149225000Y-102187006D02*
X149225000Y-135890000D01*
X154940000Y-96472006D02*
X149225000Y-102187006D01*
D25*
X157480000Y-93980000D02*
X157480000Y-91440000D01*
D24*
X157480000Y-93980000D02*
X157480000Y-96520000D01*
X148590000Y-139700000D02*
X142875000Y-139700000D01*
X150495000Y-137795000D02*
X148590000Y-139700000D01*
X150495000Y-103505000D02*
X150495000Y-137795000D01*
X157480000Y-96520000D02*
X150495000Y-103505000D01*
X160020000Y-146050000D02*
X177800000Y-146050000D01*
X142875000Y-142240000D02*
X151130000Y-142240000D01*
X154940000Y-146050000D02*
X156210000Y-146050000D01*
X151130000Y-142240000D02*
X154940000Y-146050000D01*
D25*
X160020000Y-146050000D02*
X156210000Y-146050000D01*
D24*
X177800000Y-128905000D02*
X177800000Y-127000000D01*
X179070000Y-130175000D02*
X177800000Y-128905000D01*
X179070000Y-144780000D02*
X179070000Y-130175000D01*
X177800000Y-146050000D02*
X179070000Y-144780000D01*
X142875000Y-144780000D02*
X140970000Y-146685000D01*
X175260000Y-125730000D02*
X175260000Y-127000000D01*
X175895000Y-125095000D02*
X175260000Y-125730000D01*
X184150000Y-125095000D02*
X175895000Y-125095000D01*
X184785000Y-125730000D02*
X184150000Y-125095000D01*
X184785000Y-128905000D02*
X184785000Y-125730000D01*
X182880000Y-130810000D02*
X184785000Y-128905000D01*
X182880000Y-147320000D02*
X182880000Y-130810000D01*
X180355998Y-149844002D02*
X182880000Y-147320000D01*
X163210998Y-149844002D02*
X180355998Y-149844002D01*
X162560000Y-150495000D02*
X163210998Y-149844002D01*
X155575000Y-150495000D02*
X162560000Y-150495000D01*
X154305000Y-149225000D02*
X155575000Y-150495000D01*
X141605000Y-149225000D02*
X154305000Y-149225000D01*
X140970000Y-148590000D02*
X141605000Y-149225000D01*
X140970000Y-146685000D02*
X140970000Y-148590000D01*
X111760000Y-129540000D02*
X116205000Y-129540000D01*
X118745000Y-134620000D02*
X120015000Y-134620000D01*
X118110000Y-133985000D02*
X118745000Y-134620000D01*
X118110000Y-131445000D02*
X118110000Y-133985000D01*
X116205000Y-129540000D02*
X118110000Y-131445000D01*
X111760000Y-132080000D02*
X115570000Y-132080000D01*
X117475000Y-137160000D02*
X120015000Y-137160000D01*
X116840000Y-136525000D02*
X117475000Y-137160000D01*
X116840000Y-133350000D02*
X116840000Y-136525000D01*
X115570000Y-132080000D02*
X116840000Y-133350000D01*
X111760000Y-134620000D02*
X114300000Y-134620000D01*
X116205000Y-139700000D02*
X120015000Y-139700000D01*
X115570000Y-139065000D02*
X116205000Y-139700000D01*
X115570000Y-135890000D02*
X115570000Y-139065000D01*
X114300000Y-134620000D02*
X115570000Y-135890000D01*
X111760000Y-137160000D02*
X113665000Y-137160000D01*
X116205000Y-142240000D02*
X120015000Y-142240000D01*
X114300000Y-140335000D02*
X116205000Y-142240000D01*
X114300000Y-137795000D02*
X114300000Y-140335000D01*
X113665000Y-137160000D02*
X114300000Y-137795000D01*
X120015000Y-109220000D02*
X111760000Y-109220000D01*
X120015000Y-111760000D02*
X111760000Y-111760000D01*
X120015000Y-114300000D02*
X111760000Y-114300000D01*
X120015000Y-116840000D02*
X111760000Y-116840000D01*
X189230000Y-93980000D02*
X189230000Y-99060000D01*
X189230000Y-116840000D02*
X185420000Y-116840000D01*
X190484002Y-115585998D02*
X189230000Y-116840000D01*
X190484002Y-100314002D02*
X190484002Y-115585998D01*
X189230000Y-99060000D02*
X190484002Y-100314002D01*
X180340000Y-116840000D02*
X185420000Y-116840000D01*
X158115000Y-116840000D02*
X161290000Y-116840000D01*
X176530000Y-116840000D02*
X180340000Y-116840000D01*
X182880000Y-127000000D02*
X182880000Y-128905000D01*
X154305000Y-147320000D02*
X142875000Y-147320000D01*
X156210000Y-149225000D02*
X154305000Y-147320000D01*
X161925000Y-149225000D02*
X156210000Y-149225000D01*
X162560000Y-148590000D02*
X161925000Y-149225000D01*
X179705000Y-148590000D02*
X162560000Y-148590000D01*
X181610000Y-146685000D02*
X179705000Y-148590000D01*
X181610000Y-130175000D02*
X181610000Y-146685000D01*
X182880000Y-128905000D02*
X181610000Y-130175000D01*
D23*
G36*
X158885000Y-92389098D02*
X158796702Y-92425673D01*
X158618073Y-92604301D01*
X158554499Y-92757779D01*
X158539670Y-92735585D01*
X158365000Y-92618874D01*
X158365000Y-92081856D01*
X158394622Y-92052286D01*
X158559313Y-91655668D01*
X158559687Y-91226216D01*
X158395689Y-90829311D01*
X158092286Y-90525378D01*
X157695668Y-90360687D01*
X157266216Y-90360313D01*
X156869311Y-90524311D01*
X156565378Y-90827714D01*
X156400687Y-91224332D01*
X156400313Y-91653784D01*
X156564311Y-92050689D01*
X156595000Y-92081431D01*
X156595000Y-92618874D01*
X156420330Y-92735585D01*
X156210000Y-93050365D01*
X155999670Y-92735585D01*
X155513489Y-92410729D01*
X154940000Y-92296655D01*
X154366511Y-92410729D01*
X153880330Y-92735585D01*
X153670000Y-93050365D01*
X153459670Y-92735585D01*
X152973489Y-92410729D01*
X152400000Y-92296655D01*
X151826511Y-92410729D01*
X151340330Y-92735585D01*
X151130000Y-93050365D01*
X150919670Y-92735585D01*
X150433489Y-92410729D01*
X149860000Y-92296655D01*
X149286511Y-92410729D01*
X148800330Y-92735585D01*
X148593539Y-93045069D01*
X148222036Y-92629268D01*
X147694791Y-92375291D01*
X147679026Y-92372642D01*
X147447000Y-92493783D01*
X147447000Y-93853000D01*
X147467000Y-93853000D01*
X147467000Y-94107000D01*
X147447000Y-94107000D01*
X147447000Y-95466217D01*
X147679026Y-95587358D01*
X147694791Y-95584709D01*
X148129617Y-95375250D01*
X146050000Y-97454868D01*
X145915000Y-97319868D01*
X145915000Y-94571143D01*
X146028046Y-94894320D01*
X146417964Y-95330732D01*
X146945209Y-95584709D01*
X146960974Y-95587358D01*
X147193000Y-95466217D01*
X147193000Y-94107000D01*
X147173000Y-94107000D01*
X147173000Y-93853000D01*
X147193000Y-93853000D01*
X147193000Y-92493783D01*
X146960974Y-92372642D01*
X146945209Y-92375291D01*
X146417964Y-92629268D01*
X146028046Y-93065680D01*
X145915000Y-93388856D01*
X145915000Y-91940000D01*
X150495000Y-91940000D01*
X150929345Y-91853603D01*
X150929346Y-91853603D01*
X151297566Y-91607566D01*
X153202566Y-89702566D01*
X153448603Y-89334346D01*
X153448603Y-89334345D01*
X153535000Y-88900000D01*
X153535000Y-77331675D01*
X153670000Y-77129634D01*
X153805000Y-77331675D01*
X153805000Y-80010000D01*
X153891397Y-80444346D01*
X154137434Y-80812566D01*
X155407434Y-82082566D01*
X155775654Y-82328603D01*
X155775655Y-82328603D01*
X156210000Y-82415000D01*
X158885000Y-82415000D01*
X158885000Y-92389098D01*
X158885000Y-92389098D01*
G37*
X158885000Y-92389098D02*
X158796702Y-92425673D01*
X158618073Y-92604301D01*
X158554499Y-92757779D01*
X158539670Y-92735585D01*
X158365000Y-92618874D01*
X158365000Y-92081856D01*
X158394622Y-92052286D01*
X158559313Y-91655668D01*
X158559687Y-91226216D01*
X158395689Y-90829311D01*
X158092286Y-90525378D01*
X157695668Y-90360687D01*
X157266216Y-90360313D01*
X156869311Y-90524311D01*
X156565378Y-90827714D01*
X156400687Y-91224332D01*
X156400313Y-91653784D01*
X156564311Y-92050689D01*
X156595000Y-92081431D01*
X156595000Y-92618874D01*
X156420330Y-92735585D01*
X156210000Y-93050365D01*
X155999670Y-92735585D01*
X155513489Y-92410729D01*
X154940000Y-92296655D01*
X154366511Y-92410729D01*
X153880330Y-92735585D01*
X153670000Y-93050365D01*
X153459670Y-92735585D01*
X152973489Y-92410729D01*
X152400000Y-92296655D01*
X151826511Y-92410729D01*
X151340330Y-92735585D01*
X151130000Y-93050365D01*
X150919670Y-92735585D01*
X150433489Y-92410729D01*
X149860000Y-92296655D01*
X149286511Y-92410729D01*
X148800330Y-92735585D01*
X148593539Y-93045069D01*
X148222036Y-92629268D01*
X147694791Y-92375291D01*
X147679026Y-92372642D01*
X147447000Y-92493783D01*
X147447000Y-93853000D01*
X147467000Y-93853000D01*
X147467000Y-94107000D01*
X147447000Y-94107000D01*
X147447000Y-95466217D01*
X147679026Y-95587358D01*
X147694791Y-95584709D01*
X148129617Y-95375250D01*
X146050000Y-97454868D01*
X145915000Y-97319868D01*
X145915000Y-94571143D01*
X146028046Y-94894320D01*
X146417964Y-95330732D01*
X146945209Y-95584709D01*
X146960974Y-95587358D01*
X147193000Y-95466217D01*
X147193000Y-94107000D01*
X147173000Y-94107000D01*
X147173000Y-93853000D01*
X147193000Y-93853000D01*
X147193000Y-92493783D01*
X146960974Y-92372642D01*
X146945209Y-92375291D01*
X146417964Y-92629268D01*
X146028046Y-93065680D01*
X145915000Y-93388856D01*
X145915000Y-91940000D01*
X150495000Y-91940000D01*
X150929345Y-91853603D01*
X150929346Y-91853603D01*
X151297566Y-91607566D01*
X153202566Y-89702566D01*
X153448603Y-89334346D01*
X153448603Y-89334345D01*
X153535000Y-88900000D01*
X153535000Y-77331675D01*
X153670000Y-77129634D01*
X153805000Y-77331675D01*
X153805000Y-80010000D01*
X153891397Y-80444346D01*
X154137434Y-80812566D01*
X155407434Y-82082566D01*
X155775654Y-82328603D01*
X155775655Y-82328603D01*
X156210000Y-82415000D01*
X158885000Y-82415000D01*
X158885000Y-92389098D01*
G36*
X161425000Y-115731853D02*
X161290000Y-115705000D01*
X159524144Y-115705000D01*
X159524144Y-114507698D01*
X159496362Y-113952632D01*
X159337397Y-113568857D01*
X159095213Y-113499392D01*
X158294605Y-114300000D01*
X159095213Y-115100608D01*
X159337397Y-115031143D01*
X159524144Y-114507698D01*
X159524144Y-115705000D01*
X158955914Y-115705000D01*
X158907370Y-115656371D01*
X158715272Y-115576605D01*
X158846143Y-115522397D01*
X158915608Y-115280213D01*
X158115000Y-114479605D01*
X157314392Y-115280213D01*
X157383857Y-115522397D01*
X157524317Y-115572508D01*
X157324697Y-115654990D01*
X156931371Y-116047630D01*
X156718243Y-116560900D01*
X156717758Y-117116661D01*
X156929990Y-117630303D01*
X157322630Y-118023629D01*
X157530512Y-118109949D01*
X157324697Y-118194990D01*
X157274599Y-118245000D01*
X156683146Y-118245000D01*
X156710000Y-118110000D01*
X156710000Y-114175096D01*
X156733638Y-114647368D01*
X156892603Y-115031143D01*
X157134787Y-115100608D01*
X157935395Y-114300000D01*
X157134787Y-113499392D01*
X156892603Y-113568857D01*
X156710000Y-114080686D01*
X156710000Y-112895000D01*
X157274085Y-112895000D01*
X157322630Y-112943629D01*
X157514727Y-113023394D01*
X157383857Y-113077603D01*
X157314392Y-113319787D01*
X158115000Y-114120395D01*
X158915608Y-113319787D01*
X158846143Y-113077603D01*
X158705682Y-113027491D01*
X158905303Y-112945010D01*
X159298629Y-112552370D01*
X159511757Y-112039100D01*
X159512242Y-111483339D01*
X159300010Y-110969697D01*
X158907370Y-110576371D01*
X158394100Y-110363243D01*
X157838339Y-110362758D01*
X157324697Y-110574990D01*
X157274599Y-110625000D01*
X156210000Y-110625000D01*
X155775655Y-110711396D01*
X155407434Y-110957434D01*
X154772434Y-111592434D01*
X154526397Y-111960654D01*
X154440000Y-112395000D01*
X154440000Y-118110000D01*
X154466853Y-118245000D01*
X153505132Y-118245000D01*
X152884002Y-117623870D01*
X152884002Y-105245132D01*
X160774353Y-97354780D01*
X160822566Y-97322566D01*
X161068603Y-96954346D01*
X161155000Y-96520000D01*
X161155000Y-95570901D01*
X161243298Y-95534327D01*
X161421927Y-95355699D01*
X161425000Y-95348280D01*
X161425000Y-115731853D01*
X161425000Y-115731853D01*
G37*
X161425000Y-115731853D02*
X161290000Y-115705000D01*
X159524144Y-115705000D01*
X159524144Y-114507698D01*
X159496362Y-113952632D01*
X159337397Y-113568857D01*
X159095213Y-113499392D01*
X158294605Y-114300000D01*
X159095213Y-115100608D01*
X159337397Y-115031143D01*
X159524144Y-114507698D01*
X159524144Y-115705000D01*
X158955914Y-115705000D01*
X158907370Y-115656371D01*
X158715272Y-115576605D01*
X158846143Y-115522397D01*
X158915608Y-115280213D01*
X158115000Y-114479605D01*
X157314392Y-115280213D01*
X157383857Y-115522397D01*
X157524317Y-115572508D01*
X157324697Y-115654990D01*
X156931371Y-116047630D01*
X156718243Y-116560900D01*
X156717758Y-117116661D01*
X156929990Y-117630303D01*
X157322630Y-118023629D01*
X157530512Y-118109949D01*
X157324697Y-118194990D01*
X157274599Y-118245000D01*
X156683146Y-118245000D01*
X156710000Y-118110000D01*
X156710000Y-114175096D01*
X156733638Y-114647368D01*
X156892603Y-115031143D01*
X157134787Y-115100608D01*
X157935395Y-114300000D01*
X157134787Y-113499392D01*
X156892603Y-113568857D01*
X156710000Y-114080686D01*
X156710000Y-112895000D01*
X157274085Y-112895000D01*
X157322630Y-112943629D01*
X157514727Y-113023394D01*
X157383857Y-113077603D01*
X157314392Y-113319787D01*
X158115000Y-114120395D01*
X158915608Y-113319787D01*
X158846143Y-113077603D01*
X158705682Y-113027491D01*
X158905303Y-112945010D01*
X159298629Y-112552370D01*
X159511757Y-112039100D01*
X159512242Y-111483339D01*
X159300010Y-110969697D01*
X158907370Y-110576371D01*
X158394100Y-110363243D01*
X157838339Y-110362758D01*
X157324697Y-110574990D01*
X157274599Y-110625000D01*
X156210000Y-110625000D01*
X155775655Y-110711396D01*
X155407434Y-110957434D01*
X154772434Y-111592434D01*
X154526397Y-111960654D01*
X154440000Y-112395000D01*
X154440000Y-118110000D01*
X154466853Y-118245000D01*
X153505132Y-118245000D01*
X152884002Y-117623870D01*
X152884002Y-105245132D01*
X160774353Y-97354780D01*
X160822566Y-97322566D01*
X161068603Y-96954346D01*
X161155000Y-96520000D01*
X161155000Y-95570901D01*
X161243298Y-95534327D01*
X161421927Y-95355699D01*
X161425000Y-95348280D01*
X161425000Y-115731853D01*
G36*
X195505000Y-151690000D02*
X193167462Y-151690000D01*
X193167462Y-146791828D01*
X193167462Y-68051828D01*
X192762291Y-67071239D01*
X192012707Y-66320345D01*
X191032827Y-65913464D01*
X189971828Y-65912538D01*
X188991239Y-66317709D01*
X188240345Y-67067293D01*
X187833464Y-68047173D01*
X187832538Y-69108172D01*
X188237709Y-70088761D01*
X188987293Y-70839655D01*
X189967173Y-71246536D01*
X191028172Y-71247462D01*
X192008761Y-70842291D01*
X192759655Y-70092707D01*
X193166536Y-69112827D01*
X193167462Y-68051828D01*
X193167462Y-146791828D01*
X192762291Y-145811239D01*
X192012707Y-145060345D01*
X191619002Y-144896864D01*
X191619002Y-115585998D01*
X191619002Y-100314002D01*
X191532606Y-99879657D01*
X191532605Y-99879656D01*
X191286568Y-99511436D01*
X190365000Y-98589868D01*
X190365000Y-95631000D01*
X190372309Y-95631000D01*
X190605698Y-95534327D01*
X190784327Y-95355699D01*
X190881000Y-95122310D01*
X190881000Y-94869691D01*
X190881000Y-92837691D01*
X190784327Y-92604302D01*
X190605699Y-92425673D01*
X190372310Y-92329000D01*
X190119691Y-92329000D01*
X189458600Y-92329000D01*
X189458600Y-77342309D01*
X189458600Y-76485750D01*
X189458600Y-75914250D01*
X189458600Y-75057691D01*
X189361927Y-74824302D01*
X189183299Y-74645673D01*
X188949910Y-74549000D01*
X188697291Y-74549000D01*
X188245750Y-74549000D01*
X188087000Y-74707750D01*
X188087000Y-76073000D01*
X189299850Y-76073000D01*
X189458600Y-75914250D01*
X189458600Y-76485750D01*
X189299850Y-76327000D01*
X188087000Y-76327000D01*
X188087000Y-77692250D01*
X188245750Y-77851000D01*
X188697291Y-77851000D01*
X188949910Y-77851000D01*
X189183299Y-77754327D01*
X189361927Y-77575698D01*
X189458600Y-77342309D01*
X189458600Y-92329000D01*
X188087691Y-92329000D01*
X187854302Y-92425673D01*
X187675673Y-92604301D01*
X187651319Y-92663096D01*
X187554818Y-92573615D01*
X187072944Y-92374025D01*
X186817000Y-92493164D01*
X186817000Y-93853000D01*
X186837000Y-93853000D01*
X186837000Y-94107000D01*
X186817000Y-94107000D01*
X186817000Y-95466836D01*
X187072944Y-95585975D01*
X187554818Y-95386385D01*
X187651319Y-95296903D01*
X187675673Y-95355698D01*
X187854301Y-95534327D01*
X188087690Y-95631000D01*
X188095000Y-95631000D01*
X188095000Y-99060000D01*
X188128520Y-99228520D01*
X187960000Y-99195000D01*
X186563000Y-99195000D01*
X186563000Y-95466836D01*
X186563000Y-94107000D01*
X186563000Y-93853000D01*
X186563000Y-92493164D01*
X186307056Y-92374025D01*
X185825182Y-92573615D01*
X185352812Y-93011621D01*
X185084017Y-93597054D01*
X185202633Y-93853000D01*
X186563000Y-93853000D01*
X186563000Y-94107000D01*
X185202633Y-94107000D01*
X185084017Y-94362946D01*
X185352812Y-94948379D01*
X185825182Y-95386385D01*
X186307056Y-95585975D01*
X186563000Y-95466836D01*
X186563000Y-99195000D01*
X183108600Y-99195000D01*
X183108600Y-99187691D01*
X183011927Y-98954302D01*
X182833299Y-98775673D01*
X182745000Y-98739098D01*
X182745000Y-95570901D01*
X182833298Y-95534327D01*
X183011927Y-95355699D01*
X183108600Y-95122310D01*
X183108600Y-94869691D01*
X183108600Y-92837691D01*
X183011927Y-92604302D01*
X182833299Y-92425673D01*
X182599910Y-92329000D01*
X182347291Y-92329000D01*
X180620091Y-92329000D01*
X180386702Y-92425673D01*
X180208073Y-92604301D01*
X180205000Y-92611719D01*
X180205000Y-90170000D01*
X180118603Y-89735655D01*
X180118603Y-89735654D01*
X179872566Y-89367434D01*
X178602566Y-88097434D01*
X178234346Y-87851397D01*
X177800000Y-87765000D01*
X170018146Y-87765000D01*
X170045000Y-87630000D01*
X170045000Y-83655132D01*
X171618204Y-82081927D01*
X171671397Y-82349346D01*
X171917434Y-82717566D01*
X172285654Y-82963603D01*
X172720000Y-83050000D01*
X173990000Y-83050000D01*
X174424345Y-82963603D01*
X174424346Y-82963603D01*
X174792566Y-82717566D01*
X176062566Y-81447566D01*
X176308603Y-81079346D01*
X176308603Y-81079345D01*
X176395000Y-80645000D01*
X176395000Y-77331675D01*
X176530000Y-77129634D01*
X176740330Y-77444415D01*
X177226511Y-77769271D01*
X177800000Y-77883345D01*
X178373489Y-77769271D01*
X178859670Y-77444415D01*
X179070000Y-77129634D01*
X179280330Y-77444415D01*
X179766511Y-77769271D01*
X180340000Y-77883345D01*
X180913489Y-77769271D01*
X181399670Y-77444415D01*
X181610000Y-77129634D01*
X181820330Y-77444415D01*
X182306511Y-77769271D01*
X182880000Y-77883345D01*
X183453489Y-77769271D01*
X183939670Y-77444415D01*
X184150000Y-77129634D01*
X184360330Y-77444415D01*
X184846511Y-77769271D01*
X185420000Y-77883345D01*
X185993489Y-77769271D01*
X186479670Y-77444415D01*
X186494500Y-77422219D01*
X186558073Y-77575698D01*
X186736701Y-77754327D01*
X186970090Y-77851000D01*
X187222709Y-77851000D01*
X187674250Y-77851000D01*
X187833000Y-77692250D01*
X187833000Y-76327000D01*
X187813000Y-76327000D01*
X187813000Y-76073000D01*
X187833000Y-76073000D01*
X187833000Y-74707750D01*
X187674250Y-74549000D01*
X187222709Y-74549000D01*
X186970090Y-74549000D01*
X186736701Y-74645673D01*
X186558073Y-74824302D01*
X186555000Y-74831720D01*
X186555000Y-70485000D01*
X186468603Y-70050655D01*
X186468603Y-70050654D01*
X186222566Y-69682434D01*
X184952566Y-68412434D01*
X184584346Y-68166397D01*
X184150000Y-68080000D01*
X163830000Y-68080000D01*
X163395654Y-68166397D01*
X163027434Y-68412434D01*
X161757434Y-69682434D01*
X161511397Y-70050654D01*
X161425000Y-70485000D01*
X161425000Y-74831720D01*
X161421927Y-74824302D01*
X161243299Y-74645673D01*
X161009910Y-74549000D01*
X160757291Y-74549000D01*
X159030091Y-74549000D01*
X158796702Y-74645673D01*
X158618073Y-74824301D01*
X158536241Y-75021860D01*
X158382036Y-74849268D01*
X157854791Y-74595291D01*
X157839026Y-74592642D01*
X157607000Y-74713783D01*
X157607000Y-76073000D01*
X157627000Y-76073000D01*
X157627000Y-76327000D01*
X157607000Y-76327000D01*
X157607000Y-77686217D01*
X157839026Y-77807358D01*
X157854791Y-77804709D01*
X158382036Y-77550732D01*
X158536241Y-77378139D01*
X158618073Y-77575698D01*
X158796701Y-77754327D01*
X158885000Y-77790901D01*
X158885000Y-80010000D01*
X158911853Y-80145000D01*
X156680132Y-80145000D01*
X156075000Y-79539868D01*
X156075000Y-77331675D01*
X156206460Y-77134930D01*
X156577964Y-77550732D01*
X157105209Y-77804709D01*
X157120974Y-77807358D01*
X157353000Y-77686217D01*
X157353000Y-76327000D01*
X157333000Y-76327000D01*
X157333000Y-76073000D01*
X157353000Y-76073000D01*
X157353000Y-74713783D01*
X157120974Y-74592642D01*
X157105209Y-74595291D01*
X156577964Y-74849268D01*
X156206460Y-75265069D01*
X156075000Y-75068324D01*
X156075000Y-72390000D01*
X155988603Y-71955655D01*
X155988603Y-71955654D01*
X155742566Y-71587434D01*
X154472566Y-70317434D01*
X154104346Y-70071397D01*
X153885184Y-70027802D01*
X153885184Y-67671913D01*
X153885184Y-66948087D01*
X153691954Y-66395680D01*
X153302036Y-65959268D01*
X152774791Y-65705291D01*
X152759026Y-65702642D01*
X152527000Y-65823783D01*
X152527000Y-67183000D01*
X153740924Y-67183000D01*
X153885184Y-66948087D01*
X153885184Y-67671913D01*
X153740924Y-67437000D01*
X152527000Y-67437000D01*
X152527000Y-68796217D01*
X152759026Y-68917358D01*
X152774791Y-68914709D01*
X153302036Y-68660732D01*
X153691954Y-68224320D01*
X153885184Y-67671913D01*
X153885184Y-70027802D01*
X153670000Y-69985000D01*
X153532778Y-69985000D01*
X153459670Y-69875585D01*
X152973489Y-69550729D01*
X152400000Y-69436655D01*
X152273000Y-69461916D01*
X152273000Y-68796217D01*
X152273000Y-67437000D01*
X152273000Y-67183000D01*
X152273000Y-65823783D01*
X152040974Y-65702642D01*
X152025209Y-65705291D01*
X151497964Y-65959268D01*
X151130000Y-66371108D01*
X150762036Y-65959268D01*
X150234791Y-65705291D01*
X150219026Y-65702642D01*
X149987000Y-65823783D01*
X149987000Y-67183000D01*
X151059076Y-67183000D01*
X151200924Y-67183000D01*
X152273000Y-67183000D01*
X152273000Y-67437000D01*
X151200924Y-67437000D01*
X151059076Y-67437000D01*
X149987000Y-67437000D01*
X149987000Y-68796217D01*
X150219026Y-68917358D01*
X150234791Y-68914709D01*
X150762036Y-68660732D01*
X151130000Y-68248891D01*
X151497964Y-68660732D01*
X152025209Y-68914709D01*
X152040974Y-68917358D01*
X152273000Y-68796217D01*
X152273000Y-69461916D01*
X151826511Y-69550729D01*
X151340330Y-69875585D01*
X151267221Y-69985000D01*
X150992778Y-69985000D01*
X150919670Y-69875585D01*
X150433489Y-69550729D01*
X149860000Y-69436655D01*
X149733000Y-69461916D01*
X149733000Y-68796217D01*
X149733000Y-67437000D01*
X149733000Y-67183000D01*
X149733000Y-65823783D01*
X149500974Y-65702642D01*
X149485209Y-65705291D01*
X148957964Y-65959268D01*
X148590000Y-66371108D01*
X148222036Y-65959268D01*
X147694791Y-65705291D01*
X147679026Y-65702642D01*
X147447000Y-65823783D01*
X147447000Y-67183000D01*
X148519076Y-67183000D01*
X148660924Y-67183000D01*
X149733000Y-67183000D01*
X149733000Y-67437000D01*
X148660924Y-67437000D01*
X148519076Y-67437000D01*
X147447000Y-67437000D01*
X147447000Y-68796217D01*
X147679026Y-68917358D01*
X147694791Y-68914709D01*
X148222036Y-68660732D01*
X148590000Y-68248891D01*
X148957964Y-68660732D01*
X149485209Y-68914709D01*
X149500974Y-68917358D01*
X149733000Y-68796217D01*
X149733000Y-69461916D01*
X149286511Y-69550729D01*
X148800330Y-69875585D01*
X148727221Y-69985000D01*
X148452778Y-69985000D01*
X148379670Y-69875585D01*
X147893489Y-69550729D01*
X147320000Y-69436655D01*
X147193000Y-69461916D01*
X147193000Y-68796217D01*
X147193000Y-67437000D01*
X147193000Y-67183000D01*
X147193000Y-65823783D01*
X146960974Y-65702642D01*
X146945209Y-65705291D01*
X146417964Y-65959268D01*
X146263758Y-66131860D01*
X146181927Y-65934302D01*
X146003299Y-65755673D01*
X145769910Y-65659000D01*
X145517291Y-65659000D01*
X145065750Y-65659000D01*
X144907000Y-65817750D01*
X144907000Y-67183000D01*
X145979076Y-67183000D01*
X146119850Y-67183000D01*
X147193000Y-67183000D01*
X147193000Y-67437000D01*
X146119850Y-67437000D01*
X145979076Y-67437000D01*
X144907000Y-67437000D01*
X144907000Y-68802250D01*
X145065750Y-68961000D01*
X145517291Y-68961000D01*
X145769910Y-68961000D01*
X146003299Y-68864327D01*
X146181927Y-68685698D01*
X146263758Y-68488139D01*
X146417964Y-68660732D01*
X146945209Y-68914709D01*
X146960974Y-68917358D01*
X147193000Y-68796217D01*
X147193000Y-69461916D01*
X146746511Y-69550729D01*
X146260330Y-69875585D01*
X146245499Y-69897780D01*
X146181927Y-69744302D01*
X146003299Y-69565673D01*
X145769910Y-69469000D01*
X145517291Y-69469000D01*
X144653000Y-69469000D01*
X144653000Y-68802250D01*
X144653000Y-67437000D01*
X144653000Y-67183000D01*
X144653000Y-65817750D01*
X144494250Y-65659000D01*
X144042709Y-65659000D01*
X143790090Y-65659000D01*
X143556701Y-65755673D01*
X143378073Y-65934302D01*
X143281400Y-66167691D01*
X143281400Y-67024250D01*
X143440150Y-67183000D01*
X144653000Y-67183000D01*
X144653000Y-67437000D01*
X143440150Y-67437000D01*
X143281400Y-67595750D01*
X143281400Y-68452309D01*
X143378073Y-68685698D01*
X143556701Y-68864327D01*
X143790090Y-68961000D01*
X144042709Y-68961000D01*
X144494250Y-68961000D01*
X144653000Y-68802250D01*
X144653000Y-69469000D01*
X143790091Y-69469000D01*
X143556702Y-69565673D01*
X143378073Y-69744301D01*
X143281400Y-69977690D01*
X143281400Y-70230309D01*
X143281400Y-72262309D01*
X143378073Y-72495698D01*
X143556701Y-72674327D01*
X143790090Y-72771000D01*
X144042709Y-72771000D01*
X145769909Y-72771000D01*
X146003298Y-72674327D01*
X146181927Y-72495699D01*
X146245500Y-72342220D01*
X146260330Y-72364415D01*
X146746511Y-72689271D01*
X147320000Y-72803345D01*
X147893489Y-72689271D01*
X148379670Y-72364415D01*
X148452778Y-72255000D01*
X148727221Y-72255000D01*
X148800330Y-72364415D01*
X149286511Y-72689271D01*
X149860000Y-72803345D01*
X150433489Y-72689271D01*
X150919670Y-72364415D01*
X150992778Y-72255000D01*
X151267221Y-72255000D01*
X151340330Y-72364415D01*
X151826511Y-72689271D01*
X152400000Y-72803345D01*
X152973489Y-72689271D01*
X153369519Y-72424651D01*
X153805000Y-72860132D01*
X153805000Y-75068324D01*
X153670000Y-75270365D01*
X153459670Y-74955585D01*
X152973489Y-74630729D01*
X152400000Y-74516655D01*
X151826511Y-74630729D01*
X151340330Y-74955585D01*
X151130000Y-75270365D01*
X150919670Y-74955585D01*
X150433489Y-74630729D01*
X149860000Y-74516655D01*
X149286511Y-74630729D01*
X148800330Y-74955585D01*
X148593539Y-75265069D01*
X148222036Y-74849268D01*
X147694791Y-74595291D01*
X147679026Y-74592642D01*
X147447000Y-74713783D01*
X147447000Y-76073000D01*
X147467000Y-76073000D01*
X147467000Y-76327000D01*
X147447000Y-76327000D01*
X147447000Y-77686217D01*
X147679026Y-77807358D01*
X147694791Y-77804709D01*
X148222036Y-77550732D01*
X148593539Y-77134930D01*
X148725000Y-77331675D01*
X148725000Y-79185674D01*
X148389346Y-78961397D01*
X147955000Y-78875000D01*
X147520654Y-78961397D01*
X147193000Y-79180328D01*
X147193000Y-77686217D01*
X147193000Y-76327000D01*
X147193000Y-76073000D01*
X147193000Y-74713783D01*
X146960974Y-74592642D01*
X146945209Y-74595291D01*
X146417964Y-74849268D01*
X146028046Y-75285680D01*
X145834816Y-75838087D01*
X145979076Y-76073000D01*
X147193000Y-76073000D01*
X147193000Y-76327000D01*
X145979076Y-76327000D01*
X145834816Y-76561913D01*
X146028046Y-77114320D01*
X146417964Y-77550732D01*
X146945209Y-77804709D01*
X146960974Y-77807358D01*
X147193000Y-77686217D01*
X147193000Y-79180328D01*
X147152434Y-79207434D01*
X146906397Y-79575654D01*
X146820000Y-80010000D01*
X146820000Y-86524868D01*
X146214868Y-87130000D01*
X144145000Y-87130000D01*
X143710655Y-87216396D01*
X143342434Y-87462434D01*
X141801864Y-89003004D01*
X141198600Y-89003004D01*
X141198600Y-81464745D01*
X141198600Y-81095255D01*
X141084526Y-80521766D01*
X140759670Y-80035585D01*
X140721379Y-80010000D01*
X140759670Y-79984415D01*
X141084526Y-79498234D01*
X141198600Y-78924745D01*
X141198600Y-78555255D01*
X141084526Y-77981766D01*
X140759670Y-77495585D01*
X140721379Y-77470000D01*
X140759670Y-77444415D01*
X141084526Y-76958234D01*
X141198600Y-76384745D01*
X141198600Y-76015255D01*
X141084526Y-75441766D01*
X140759670Y-74955585D01*
X140721379Y-74930000D01*
X140759670Y-74904415D01*
X141084526Y-74418234D01*
X141198600Y-73844745D01*
X141198600Y-73475255D01*
X141084526Y-72901766D01*
X140759670Y-72415585D01*
X140721379Y-72390000D01*
X140759670Y-72364415D01*
X141084526Y-71878234D01*
X141198600Y-71304745D01*
X141198600Y-70935255D01*
X141084526Y-70361766D01*
X140759670Y-69875585D01*
X140721379Y-69850000D01*
X140759670Y-69824415D01*
X141084526Y-69338234D01*
X141198600Y-68764745D01*
X141198600Y-68395255D01*
X141084526Y-67821766D01*
X140759670Y-67335585D01*
X140721379Y-67310000D01*
X140759670Y-67284415D01*
X141084526Y-66798234D01*
X141198600Y-66224745D01*
X141198600Y-65855255D01*
X141084526Y-65281766D01*
X140759670Y-64795585D01*
X140273489Y-64470729D01*
X139700000Y-64356655D01*
X139126511Y-64470729D01*
X138640330Y-64795585D01*
X138430000Y-65110365D01*
X138219670Y-64795585D01*
X137733489Y-64470729D01*
X137160000Y-64356655D01*
X136586511Y-64470729D01*
X136100330Y-64795585D01*
X135890000Y-65110365D01*
X135679670Y-64795585D01*
X135193489Y-64470729D01*
X134620000Y-64356655D01*
X134046511Y-64470729D01*
X133560330Y-64795585D01*
X133350000Y-65110365D01*
X133139670Y-64795585D01*
X132653489Y-64470729D01*
X132080000Y-64356655D01*
X131506511Y-64470729D01*
X131020330Y-64795585D01*
X130810000Y-65110365D01*
X130599670Y-64795585D01*
X130113489Y-64470729D01*
X129540000Y-64356655D01*
X128966511Y-64470729D01*
X128480330Y-64795585D01*
X128270000Y-65110365D01*
X128059670Y-64795585D01*
X127573489Y-64470729D01*
X127000000Y-64356655D01*
X126426511Y-64470729D01*
X125940330Y-64795585D01*
X125730000Y-65110365D01*
X125519670Y-64795585D01*
X125033489Y-64470729D01*
X124460000Y-64356655D01*
X123886511Y-64470729D01*
X123400330Y-64795585D01*
X123190000Y-65110365D01*
X122979670Y-64795585D01*
X122493489Y-64470729D01*
X121920000Y-64356655D01*
X121346511Y-64470729D01*
X120860330Y-64795585D01*
X120650000Y-65110365D01*
X120439670Y-64795585D01*
X119953489Y-64470729D01*
X119380000Y-64356655D01*
X118806511Y-64470729D01*
X118320330Y-64795585D01*
X118305499Y-64817780D01*
X118241927Y-64664302D01*
X118063299Y-64485673D01*
X117829910Y-64389000D01*
X117577291Y-64389000D01*
X115850091Y-64389000D01*
X115616702Y-64485673D01*
X115438073Y-64664301D01*
X115341400Y-64897690D01*
X115341400Y-65150309D01*
X115341400Y-67182309D01*
X115394291Y-67309999D01*
X115341400Y-67437690D01*
X115341400Y-67690309D01*
X115341400Y-69722309D01*
X115394291Y-69849999D01*
X115341400Y-69977690D01*
X115341400Y-70230309D01*
X115341400Y-72262309D01*
X115394291Y-72389999D01*
X115341400Y-72517690D01*
X115341400Y-72770309D01*
X115341400Y-74802309D01*
X115394291Y-74929999D01*
X115341400Y-75057690D01*
X115341400Y-75310309D01*
X115341400Y-77342309D01*
X115394291Y-77469999D01*
X115341400Y-77597690D01*
X115341400Y-77850309D01*
X115341400Y-79882309D01*
X115394291Y-80009999D01*
X115341400Y-80137690D01*
X115341400Y-80390309D01*
X115341400Y-82422309D01*
X115438073Y-82655698D01*
X115616701Y-82834327D01*
X115850090Y-82931000D01*
X116102709Y-82931000D01*
X117829909Y-82931000D01*
X118063298Y-82834327D01*
X118241927Y-82655699D01*
X118305500Y-82502220D01*
X118320330Y-82524415D01*
X118806511Y-82849271D01*
X119380000Y-82963345D01*
X119953489Y-82849271D01*
X120439670Y-82524415D01*
X120650000Y-82209634D01*
X120860330Y-82524415D01*
X121346511Y-82849271D01*
X121920000Y-82963345D01*
X122493489Y-82849271D01*
X122979670Y-82524415D01*
X123190000Y-82209634D01*
X123400330Y-82524415D01*
X123886511Y-82849271D01*
X124460000Y-82963345D01*
X125033489Y-82849271D01*
X125519670Y-82524415D01*
X125730000Y-82209634D01*
X125940330Y-82524415D01*
X126426511Y-82849271D01*
X127000000Y-82963345D01*
X127573489Y-82849271D01*
X128059670Y-82524415D01*
X128270000Y-82209634D01*
X128480330Y-82524415D01*
X128966511Y-82849271D01*
X129540000Y-82963345D01*
X130113489Y-82849271D01*
X130599670Y-82524415D01*
X130810000Y-82209634D01*
X131020330Y-82524415D01*
X131506511Y-82849271D01*
X132080000Y-82963345D01*
X132653489Y-82849271D01*
X133139670Y-82524415D01*
X133350000Y-82209634D01*
X133560330Y-82524415D01*
X134046511Y-82849271D01*
X134620000Y-82963345D01*
X135193489Y-82849271D01*
X135679670Y-82524415D01*
X135890000Y-82209634D01*
X136100330Y-82524415D01*
X136586511Y-82849271D01*
X137160000Y-82963345D01*
X137733489Y-82849271D01*
X138219670Y-82524415D01*
X138430000Y-82209634D01*
X138640330Y-82524415D01*
X139126511Y-82849271D01*
X139700000Y-82963345D01*
X140273489Y-82849271D01*
X140759670Y-82524415D01*
X141084526Y-82038234D01*
X141198600Y-81464745D01*
X141198600Y-89003004D01*
X141001996Y-89003004D01*
X140567650Y-89089401D01*
X140199430Y-89335438D01*
X140167434Y-89367434D01*
X139921397Y-89735655D01*
X139835000Y-90170000D01*
X139921397Y-90604345D01*
X140167434Y-90972566D01*
X140535655Y-91218603D01*
X140970000Y-91305000D01*
X141130853Y-91273004D01*
X142271996Y-91273004D01*
X142390998Y-91249332D01*
X142390998Y-98440998D01*
X142477395Y-98875344D01*
X142723432Y-99243564D01*
X143025998Y-99546130D01*
X143025998Y-108098870D01*
X142072434Y-109052434D01*
X141826397Y-109420654D01*
X141740000Y-109855000D01*
X141740000Y-110919085D01*
X141691371Y-110967630D01*
X141478243Y-111480900D01*
X141477758Y-112036661D01*
X141689990Y-112550303D01*
X142082630Y-112943629D01*
X142290512Y-113029949D01*
X142084697Y-113114990D01*
X141691371Y-113507630D01*
X141478243Y-114020900D01*
X141477758Y-114576661D01*
X141689990Y-115090303D01*
X142082630Y-115483629D01*
X142290512Y-115569949D01*
X142084697Y-115654990D01*
X141691371Y-116047630D01*
X141478243Y-116560900D01*
X141477758Y-117116661D01*
X141689990Y-117630303D01*
X142082630Y-118023629D01*
X142274727Y-118103394D01*
X142143857Y-118157603D01*
X142074392Y-118399787D01*
X142875000Y-119200395D01*
X143675608Y-118399787D01*
X143606143Y-118157603D01*
X143465682Y-118107491D01*
X143665303Y-118025010D01*
X144058629Y-117632370D01*
X144271757Y-117119100D01*
X144272242Y-116563339D01*
X144060010Y-116049697D01*
X143667370Y-115656371D01*
X143459487Y-115570050D01*
X143665303Y-115485010D01*
X143715400Y-115435000D01*
X144145000Y-115435000D01*
X144579345Y-115348603D01*
X144579346Y-115348603D01*
X144947566Y-115102566D01*
X145534002Y-114516130D01*
X145534002Y-130355866D01*
X144944868Y-130945000D01*
X144284144Y-130945000D01*
X144284144Y-119587698D01*
X144256362Y-119032632D01*
X144097397Y-118648857D01*
X143855213Y-118579392D01*
X143054605Y-119380000D01*
X143855213Y-120180608D01*
X144097397Y-120111143D01*
X144284144Y-119587698D01*
X144284144Y-130945000D01*
X143715914Y-130945000D01*
X143667370Y-130896371D01*
X143459487Y-130810050D01*
X143665303Y-130725010D01*
X144058629Y-130332370D01*
X144271757Y-129819100D01*
X144272242Y-129263339D01*
X144060010Y-128749697D01*
X143667370Y-128356371D01*
X143459487Y-128270050D01*
X143665303Y-128185010D01*
X144058629Y-127792370D01*
X144271757Y-127279100D01*
X144272242Y-126723339D01*
X144060010Y-126209697D01*
X143667370Y-125816371D01*
X143459487Y-125730050D01*
X143665303Y-125645010D01*
X144058629Y-125252370D01*
X144271757Y-124739100D01*
X144272242Y-124183339D01*
X144060010Y-123669697D01*
X143667370Y-123276371D01*
X143459487Y-123190050D01*
X143665303Y-123105010D01*
X144058629Y-122712370D01*
X144271757Y-122199100D01*
X144272242Y-121643339D01*
X144060010Y-121129697D01*
X143667370Y-120736371D01*
X143475272Y-120656605D01*
X143606143Y-120602397D01*
X143675608Y-120360213D01*
X142875000Y-119559605D01*
X142695395Y-119739210D01*
X142695395Y-119380000D01*
X141894787Y-118579392D01*
X141652603Y-118648857D01*
X141465856Y-119172302D01*
X141493638Y-119727368D01*
X141652603Y-120111143D01*
X141894787Y-120180608D01*
X142695395Y-119380000D01*
X142695395Y-119739210D01*
X142074392Y-120360213D01*
X142143857Y-120602397D01*
X142284317Y-120652508D01*
X142084697Y-120734990D01*
X142034599Y-120785000D01*
X139535132Y-120785000D01*
X138930000Y-120179868D01*
X138930000Y-105883146D01*
X139065000Y-105909999D01*
X139499345Y-105823603D01*
X139867566Y-105577566D01*
X140113603Y-105209345D01*
X140199999Y-104775000D01*
X140113603Y-104340654D01*
X139867566Y-103972433D01*
X137327566Y-101432434D01*
X136959346Y-101186397D01*
X136525000Y-101100000D01*
X132080000Y-101100000D01*
X131645654Y-101186397D01*
X131277434Y-101432434D01*
X130675000Y-102034868D01*
X130675000Y-90170000D01*
X130588603Y-89735654D01*
X130342566Y-89367434D01*
X129974346Y-89121397D01*
X129540000Y-89035000D01*
X128905000Y-89035000D01*
X128470655Y-89121396D01*
X128102434Y-89367434D01*
X127467434Y-90002434D01*
X127221397Y-90370654D01*
X127135000Y-90805000D01*
X127135000Y-91440000D01*
X127135000Y-148116853D01*
X127000000Y-148090000D01*
X124325000Y-148090000D01*
X124325000Y-147320000D01*
X124325000Y-121920000D01*
X124325000Y-95250000D01*
X124238603Y-94815655D01*
X124238603Y-94815654D01*
X123992566Y-94447434D01*
X122722566Y-93177434D01*
X122354346Y-92931397D01*
X121920000Y-92845000D01*
X113665000Y-92845000D01*
X113665000Y-92583691D01*
X113568327Y-92350302D01*
X113389699Y-92171673D01*
X113156310Y-92075000D01*
X112903691Y-92075000D01*
X111887462Y-92075000D01*
X111887462Y-68051828D01*
X111482291Y-67071239D01*
X110732707Y-66320345D01*
X109752827Y-65913464D01*
X108691828Y-65912538D01*
X107711239Y-66317709D01*
X106960345Y-67067293D01*
X106553464Y-68047173D01*
X106552538Y-69108172D01*
X106957709Y-70088761D01*
X107707293Y-70839655D01*
X108687173Y-71246536D01*
X109748172Y-71247462D01*
X110728761Y-70842291D01*
X111479655Y-70092707D01*
X111886536Y-69112827D01*
X111887462Y-68051828D01*
X111887462Y-92075000D01*
X110363691Y-92075000D01*
X110130302Y-92171673D01*
X109951673Y-92350301D01*
X109855000Y-92583690D01*
X109855000Y-92836309D01*
X109855000Y-95376309D01*
X109951673Y-95609698D01*
X110130301Y-95788327D01*
X110363690Y-95885000D01*
X110616309Y-95885000D01*
X113156309Y-95885000D01*
X113389698Y-95788327D01*
X113568327Y-95609699D01*
X113665000Y-95376310D01*
X113665000Y-95123691D01*
X113665000Y-95115000D01*
X121449868Y-95115000D01*
X122055000Y-95720132D01*
X122055000Y-120785000D01*
X121424144Y-120785000D01*
X121424144Y-119587698D01*
X121424144Y-104347698D01*
X121396362Y-103792632D01*
X121237397Y-103408857D01*
X120995213Y-103339392D01*
X120815608Y-103518997D01*
X120815608Y-103159787D01*
X120746143Y-102917603D01*
X120222698Y-102730856D01*
X119667632Y-102758638D01*
X119283857Y-102917603D01*
X119214392Y-103159787D01*
X120015000Y-103960395D01*
X120815608Y-103159787D01*
X120815608Y-103518997D01*
X120194605Y-104140000D01*
X120995213Y-104940608D01*
X121237397Y-104871143D01*
X121424144Y-104347698D01*
X121424144Y-119587698D01*
X121412242Y-119349903D01*
X121412242Y-116563339D01*
X121200010Y-116049697D01*
X120807370Y-115656371D01*
X120599487Y-115570050D01*
X120805303Y-115485010D01*
X121198629Y-115092370D01*
X121411757Y-114579100D01*
X121412242Y-114023339D01*
X121200010Y-113509697D01*
X120807370Y-113116371D01*
X120599487Y-113030050D01*
X120805303Y-112945010D01*
X121198629Y-112552370D01*
X121411757Y-112039100D01*
X121412242Y-111483339D01*
X121200010Y-110969697D01*
X120807370Y-110576371D01*
X120599487Y-110490050D01*
X120805303Y-110405010D01*
X121198629Y-110012370D01*
X121411757Y-109499100D01*
X121412242Y-108943339D01*
X121200010Y-108429697D01*
X120807370Y-108036371D01*
X120599487Y-107950050D01*
X120805303Y-107865010D01*
X121198629Y-107472370D01*
X121411757Y-106959100D01*
X121412242Y-106403339D01*
X121200010Y-105889697D01*
X120807370Y-105496371D01*
X120615272Y-105416605D01*
X120746143Y-105362397D01*
X120815608Y-105120213D01*
X120015000Y-104319605D01*
X119835395Y-104499210D01*
X119835395Y-104140000D01*
X119034787Y-103339392D01*
X118792603Y-103408857D01*
X118605856Y-103932302D01*
X118633638Y-104487368D01*
X118792603Y-104871143D01*
X119034787Y-104940608D01*
X119835395Y-104140000D01*
X119835395Y-104499210D01*
X119214392Y-105120213D01*
X119283857Y-105362397D01*
X119424317Y-105412508D01*
X119224697Y-105494990D01*
X118831371Y-105887630D01*
X118618243Y-106400900D01*
X118617758Y-106956661D01*
X118829990Y-107470303D01*
X119222630Y-107863629D01*
X119430512Y-107949949D01*
X119224697Y-108034990D01*
X119174599Y-108085000D01*
X113674261Y-108085000D01*
X113674261Y-99388964D01*
X113654436Y-98631368D01*
X113402657Y-98023520D01*
X113107777Y-97891828D01*
X112928172Y-98071433D01*
X112928172Y-97712223D01*
X112796480Y-97417343D01*
X112088964Y-97145739D01*
X111331368Y-97165564D01*
X110723520Y-97417343D01*
X110591828Y-97712223D01*
X111760000Y-98880395D01*
X112928172Y-97712223D01*
X112928172Y-98071433D01*
X111939605Y-99060000D01*
X113107777Y-100228172D01*
X113402657Y-100096480D01*
X113674261Y-99388964D01*
X113674261Y-108085000D01*
X112928172Y-108085000D01*
X112928172Y-100407777D01*
X111760000Y-99239605D01*
X111580395Y-99419210D01*
X111580395Y-99060000D01*
X110412223Y-97891828D01*
X110117343Y-98023520D01*
X109845739Y-98731036D01*
X109865564Y-99488632D01*
X110117343Y-100096480D01*
X110412223Y-100228172D01*
X111580395Y-99060000D01*
X111580395Y-99419210D01*
X110591828Y-100407777D01*
X110723520Y-100702657D01*
X111431036Y-100974261D01*
X112188632Y-100954436D01*
X112796480Y-100702657D01*
X112928172Y-100407777D01*
X112928172Y-108085000D01*
X112891675Y-108085000D01*
X112518234Y-107835474D01*
X111944745Y-107721400D01*
X111575255Y-107721400D01*
X111001766Y-107835474D01*
X110515585Y-108160330D01*
X110190729Y-108646511D01*
X110076655Y-109220000D01*
X110190729Y-109793489D01*
X110515585Y-110279670D01*
X110830365Y-110490000D01*
X110515585Y-110700330D01*
X110190729Y-111186511D01*
X110076655Y-111760000D01*
X110190729Y-112333489D01*
X110515585Y-112819670D01*
X110830365Y-113030000D01*
X110515585Y-113240330D01*
X110190729Y-113726511D01*
X110076655Y-114300000D01*
X110190729Y-114873489D01*
X110515585Y-115359670D01*
X110537780Y-115374500D01*
X110384302Y-115438073D01*
X110205673Y-115616701D01*
X110109000Y-115850090D01*
X110109000Y-116102709D01*
X110109000Y-117829909D01*
X110205673Y-118063298D01*
X110384301Y-118241927D01*
X110617690Y-118338600D01*
X110870309Y-118338600D01*
X112902309Y-118338600D01*
X113135698Y-118241927D01*
X113314327Y-118063299D01*
X113350901Y-117975000D01*
X119174085Y-117975000D01*
X119222630Y-118023629D01*
X119414727Y-118103394D01*
X119283857Y-118157603D01*
X119214392Y-118399787D01*
X120015000Y-119200395D01*
X120815608Y-118399787D01*
X120746143Y-118157603D01*
X120605682Y-118107491D01*
X120805303Y-118025010D01*
X121198629Y-117632370D01*
X121411757Y-117119100D01*
X121412242Y-116563339D01*
X121412242Y-119349903D01*
X121396362Y-119032632D01*
X121237397Y-118648857D01*
X120995213Y-118579392D01*
X120194605Y-119380000D01*
X120995213Y-120180608D01*
X121237397Y-120111143D01*
X121424144Y-119587698D01*
X121424144Y-120785000D01*
X120855914Y-120785000D01*
X120807370Y-120736371D01*
X120615272Y-120656605D01*
X120746143Y-120602397D01*
X120815608Y-120360213D01*
X120015000Y-119559605D01*
X119835395Y-119739210D01*
X119835395Y-119380000D01*
X119034787Y-118579392D01*
X118792603Y-118648857D01*
X118605856Y-119172302D01*
X118633638Y-119727368D01*
X118792603Y-120111143D01*
X119034787Y-120180608D01*
X119835395Y-119380000D01*
X119835395Y-119739210D01*
X119214392Y-120360213D01*
X119283857Y-120602397D01*
X119424317Y-120652508D01*
X119224697Y-120734990D01*
X118831371Y-121127630D01*
X118618243Y-121640900D01*
X118617758Y-122196661D01*
X118829990Y-122710303D01*
X119222630Y-123103629D01*
X119735900Y-123316757D01*
X120291661Y-123317242D01*
X120805303Y-123105010D01*
X120855400Y-123055000D01*
X122055000Y-123055000D01*
X122055000Y-146185000D01*
X121424144Y-146185000D01*
X121424144Y-144987698D01*
X121424144Y-129747698D01*
X121396362Y-129192632D01*
X121237397Y-128808857D01*
X120995213Y-128739392D01*
X120815608Y-128918997D01*
X120815608Y-128559787D01*
X120746143Y-128317603D01*
X120222698Y-128130856D01*
X119667632Y-128158638D01*
X119283857Y-128317603D01*
X119214392Y-128559787D01*
X120015000Y-129360395D01*
X120815608Y-128559787D01*
X120815608Y-128918997D01*
X120194605Y-129540000D01*
X120995213Y-130340608D01*
X121237397Y-130271143D01*
X121424144Y-129747698D01*
X121424144Y-144987698D01*
X121412242Y-144749903D01*
X121412242Y-141963339D01*
X121200010Y-141449697D01*
X120807370Y-141056371D01*
X120599487Y-140970050D01*
X120805303Y-140885010D01*
X121198629Y-140492370D01*
X121411757Y-139979100D01*
X121412242Y-139423339D01*
X121200010Y-138909697D01*
X120807370Y-138516371D01*
X120599487Y-138430050D01*
X120805303Y-138345010D01*
X121198629Y-137952370D01*
X121411757Y-137439100D01*
X121412242Y-136883339D01*
X121200010Y-136369697D01*
X120807370Y-135976371D01*
X120599487Y-135890050D01*
X120805303Y-135805010D01*
X121198629Y-135412370D01*
X121411757Y-134899100D01*
X121412242Y-134343339D01*
X121200010Y-133829697D01*
X120807370Y-133436371D01*
X120599487Y-133350050D01*
X120805303Y-133265010D01*
X121198629Y-132872370D01*
X121411757Y-132359100D01*
X121412242Y-131803339D01*
X121200010Y-131289697D01*
X120807370Y-130896371D01*
X120615272Y-130816605D01*
X120746143Y-130762397D01*
X120815608Y-130520213D01*
X120015000Y-129719605D01*
X119835395Y-129899210D01*
X119835395Y-129540000D01*
X119034787Y-128739392D01*
X118792603Y-128808857D01*
X118605856Y-129332302D01*
X118633638Y-129887368D01*
X118792603Y-130271143D01*
X119034787Y-130340608D01*
X119835395Y-129540000D01*
X119835395Y-129899210D01*
X119214392Y-130520213D01*
X119283857Y-130762397D01*
X119424317Y-130812508D01*
X119224697Y-130894990D01*
X119138687Y-130980849D01*
X118912566Y-130642434D01*
X117007566Y-128737434D01*
X116639346Y-128491397D01*
X116205000Y-128405000D01*
X112891675Y-128405000D01*
X112518234Y-128155474D01*
X111944745Y-128041400D01*
X111575255Y-128041400D01*
X111001766Y-128155474D01*
X110515585Y-128480330D01*
X110190729Y-128966511D01*
X110076655Y-129540000D01*
X110190729Y-130113489D01*
X110515585Y-130599670D01*
X110830365Y-130810000D01*
X110515585Y-131020330D01*
X110190729Y-131506511D01*
X110076655Y-132080000D01*
X110190729Y-132653489D01*
X110515585Y-133139670D01*
X110830365Y-133350000D01*
X110515585Y-133560330D01*
X110190729Y-134046511D01*
X110076655Y-134620000D01*
X110190729Y-135193489D01*
X110515585Y-135679670D01*
X110537780Y-135694500D01*
X110384302Y-135758073D01*
X110205673Y-135936701D01*
X110109000Y-136170090D01*
X110109000Y-136422709D01*
X110109000Y-138149909D01*
X110205673Y-138383298D01*
X110384301Y-138561927D01*
X110617690Y-138658600D01*
X110870309Y-138658600D01*
X112902309Y-138658600D01*
X113135698Y-138561927D01*
X113165000Y-138532625D01*
X113165000Y-140335000D01*
X113251397Y-140769346D01*
X113497434Y-141137566D01*
X115402434Y-143042566D01*
X115770654Y-143288603D01*
X115770655Y-143288603D01*
X116205000Y-143375000D01*
X119174085Y-143375000D01*
X119222630Y-143423629D01*
X119414727Y-143503394D01*
X119283857Y-143557603D01*
X119214392Y-143799787D01*
X120015000Y-144600395D01*
X120815608Y-143799787D01*
X120746143Y-143557603D01*
X120605682Y-143507491D01*
X120805303Y-143425010D01*
X121198629Y-143032370D01*
X121411757Y-142519100D01*
X121412242Y-141963339D01*
X121412242Y-144749903D01*
X121396362Y-144432632D01*
X121237397Y-144048857D01*
X120995213Y-143979392D01*
X120194605Y-144780000D01*
X120995213Y-145580608D01*
X121237397Y-145511143D01*
X121424144Y-144987698D01*
X121424144Y-146185000D01*
X120855914Y-146185000D01*
X120807370Y-146136371D01*
X120615272Y-146056605D01*
X120746143Y-146002397D01*
X120815608Y-145760213D01*
X120015000Y-144959605D01*
X119835395Y-145139210D01*
X119835395Y-144780000D01*
X119034787Y-143979392D01*
X118792603Y-144048857D01*
X118605856Y-144572302D01*
X118633638Y-145127368D01*
X118792603Y-145511143D01*
X119034787Y-145580608D01*
X119835395Y-144780000D01*
X119835395Y-145139210D01*
X119214392Y-145760213D01*
X119283857Y-146002397D01*
X119424317Y-146052508D01*
X119224697Y-146134990D01*
X118831371Y-146527630D01*
X118618243Y-147040900D01*
X118617758Y-147596661D01*
X118829990Y-148110303D01*
X119222630Y-148503629D01*
X119735900Y-148716757D01*
X120291661Y-148717242D01*
X120805303Y-148505010D01*
X120855400Y-148455000D01*
X122055000Y-148455000D01*
X122055000Y-148590000D01*
X122141397Y-149024346D01*
X122387434Y-149392566D01*
X123022434Y-150027566D01*
X123390654Y-150273603D01*
X123390655Y-150273604D01*
X123825000Y-150360000D01*
X127000000Y-150360000D01*
X127135000Y-150333146D01*
X127135000Y-150479002D01*
X127221397Y-150913348D01*
X127467434Y-151281568D01*
X127835654Y-151527605D01*
X128270000Y-151614002D01*
X128704346Y-151527605D01*
X129072566Y-151281568D01*
X129318603Y-150913348D01*
X129405000Y-150479002D01*
X129405000Y-91440000D01*
X129405000Y-91305000D01*
X129540000Y-91305000D01*
X129974346Y-91218603D01*
X130342566Y-90972566D01*
X130588603Y-90604346D01*
X130675000Y-90170000D01*
X130675000Y-102034868D01*
X130007434Y-102702434D01*
X129761397Y-103070654D01*
X129675000Y-103505000D01*
X129675000Y-107315000D01*
X129761397Y-107749346D01*
X130007434Y-108117566D01*
X131317817Y-109427949D01*
X131317758Y-109496661D01*
X131529990Y-110010303D01*
X131580000Y-110060400D01*
X131580000Y-110919085D01*
X131531371Y-110967630D01*
X131318243Y-111480900D01*
X131318181Y-111551686D01*
X130007434Y-112862434D01*
X129761397Y-113230654D01*
X129675000Y-113665000D01*
X129675000Y-132715000D01*
X129761397Y-133149346D01*
X130007434Y-133517566D01*
X131317817Y-134827949D01*
X131317758Y-134896661D01*
X131529990Y-135410303D01*
X131580000Y-135460400D01*
X131580000Y-136319085D01*
X131531371Y-136367630D01*
X131318243Y-136880900D01*
X131317758Y-137436661D01*
X131529990Y-137950303D01*
X131922630Y-138343629D01*
X132130512Y-138429949D01*
X131924697Y-138514990D01*
X131531371Y-138907630D01*
X131318243Y-139420900D01*
X131317758Y-139976661D01*
X131529990Y-140490303D01*
X131922630Y-140883629D01*
X132130512Y-140969949D01*
X131924697Y-141054990D01*
X131531371Y-141447630D01*
X131318243Y-141960900D01*
X131317758Y-142516661D01*
X131529990Y-143030303D01*
X131922630Y-143423629D01*
X132130512Y-143509949D01*
X131924697Y-143594990D01*
X131531371Y-143987630D01*
X131318243Y-144500900D01*
X131317758Y-145056661D01*
X131529990Y-145570303D01*
X131882071Y-145923000D01*
X131826691Y-145923000D01*
X131593302Y-146019673D01*
X131414673Y-146198301D01*
X131318000Y-146431690D01*
X131318000Y-146684309D01*
X131318000Y-148208309D01*
X131414673Y-148441698D01*
X131593301Y-148620327D01*
X131826690Y-148717000D01*
X132079309Y-148717000D01*
X133603309Y-148717000D01*
X133836698Y-148620327D01*
X134015327Y-148441699D01*
X134112000Y-148208310D01*
X134112000Y-147955691D01*
X134112000Y-146431691D01*
X134015327Y-146198302D01*
X133836699Y-146019673D01*
X133603310Y-145923000D01*
X133547386Y-145923000D01*
X133898629Y-145572370D01*
X134111757Y-145059100D01*
X134112242Y-144503339D01*
X133900010Y-143989697D01*
X133507370Y-143596371D01*
X133299487Y-143510050D01*
X133505303Y-143425010D01*
X133898629Y-143032370D01*
X134111757Y-142519100D01*
X134112242Y-141963339D01*
X133900010Y-141449697D01*
X133507370Y-141056371D01*
X133299487Y-140970050D01*
X133505303Y-140885010D01*
X133898629Y-140492370D01*
X134111757Y-139979100D01*
X134112242Y-139423339D01*
X133900010Y-138909697D01*
X133507370Y-138516371D01*
X133299487Y-138430050D01*
X133505303Y-138345010D01*
X133898629Y-137952370D01*
X134111757Y-137439100D01*
X134112242Y-136883339D01*
X133900010Y-136369697D01*
X133850000Y-136319599D01*
X133850000Y-135460914D01*
X133898629Y-135412370D01*
X134111757Y-134899100D01*
X134112242Y-134343339D01*
X133900010Y-133829697D01*
X133507370Y-133436371D01*
X133299487Y-133350050D01*
X133505303Y-133265010D01*
X133555400Y-133215000D01*
X135890000Y-133215000D01*
X136324345Y-133128603D01*
X136324346Y-133128603D01*
X136692566Y-132882566D01*
X138900132Y-130675000D01*
X142034085Y-130675000D01*
X142082630Y-130723629D01*
X142290512Y-130809949D01*
X142084697Y-130894990D01*
X141691371Y-131287630D01*
X141478243Y-131800900D01*
X141477758Y-132356661D01*
X141689990Y-132870303D01*
X142082630Y-133263629D01*
X142290512Y-133349949D01*
X142084697Y-133434990D01*
X141691371Y-133827630D01*
X141478243Y-134340900D01*
X141477758Y-134896661D01*
X141689990Y-135410303D01*
X142082630Y-135803629D01*
X142290512Y-135889949D01*
X142084697Y-135974990D01*
X141691371Y-136367630D01*
X141478243Y-136880900D01*
X141477758Y-137436661D01*
X141689990Y-137950303D01*
X142082630Y-138343629D01*
X142290512Y-138429949D01*
X142084697Y-138514990D01*
X141691371Y-138907630D01*
X141478243Y-139420900D01*
X141477758Y-139976661D01*
X141689990Y-140490303D01*
X142082630Y-140883629D01*
X142290512Y-140969949D01*
X142084697Y-141054990D01*
X141691371Y-141447630D01*
X141478243Y-141960900D01*
X141477758Y-142516661D01*
X141689990Y-143030303D01*
X142082630Y-143423629D01*
X142290512Y-143509949D01*
X142084697Y-143594990D01*
X141691371Y-143987630D01*
X141478243Y-144500900D01*
X141478181Y-144571686D01*
X140167434Y-145882434D01*
X139921397Y-146250654D01*
X139835000Y-146685000D01*
X139835000Y-148590000D01*
X139921397Y-149024346D01*
X140167434Y-149392566D01*
X140802434Y-150027566D01*
X141170654Y-150273603D01*
X141170655Y-150273604D01*
X141605000Y-150360000D01*
X153834868Y-150360000D01*
X154772434Y-151297566D01*
X155140654Y-151543603D01*
X155140655Y-151543603D01*
X155575000Y-151630000D01*
X162560000Y-151630000D01*
X162994345Y-151543603D01*
X162994346Y-151543603D01*
X163362566Y-151297566D01*
X163681130Y-150979002D01*
X180355998Y-150979002D01*
X180790343Y-150892605D01*
X180790344Y-150892605D01*
X181158564Y-150646568D01*
X183682566Y-148122566D01*
X183928603Y-147754346D01*
X183928603Y-147754345D01*
X184015000Y-147320000D01*
X184015000Y-131280132D01*
X185587566Y-129707566D01*
X185833603Y-129339346D01*
X185833603Y-129339345D01*
X185920000Y-128905000D01*
X185920000Y-125730000D01*
X185833604Y-125295655D01*
X185833603Y-125295654D01*
X185587566Y-124927434D01*
X184952566Y-124292434D01*
X184584346Y-124046397D01*
X184150000Y-123960000D01*
X175895000Y-123960000D01*
X175460655Y-124046396D01*
X175092434Y-124292434D01*
X174457434Y-124927434D01*
X174211397Y-125295654D01*
X174125000Y-125730000D01*
X174125000Y-126159085D01*
X174076371Y-126207630D01*
X173996605Y-126399727D01*
X173942397Y-126268857D01*
X173700213Y-126199392D01*
X173520608Y-126378997D01*
X173520608Y-126019787D01*
X173451143Y-125777603D01*
X172927698Y-125590856D01*
X172372632Y-125618638D01*
X171988857Y-125777603D01*
X171919392Y-126019787D01*
X172720000Y-126820395D01*
X173520608Y-126019787D01*
X173520608Y-126378997D01*
X172899605Y-127000000D01*
X173700213Y-127800608D01*
X173942397Y-127731143D01*
X173992508Y-127590682D01*
X174074990Y-127790303D01*
X174467630Y-128183629D01*
X174980900Y-128396757D01*
X175536661Y-128397242D01*
X176050303Y-128185010D01*
X176443629Y-127792370D01*
X176529949Y-127584487D01*
X176614990Y-127790303D01*
X176665000Y-127840400D01*
X176665000Y-128905000D01*
X176751397Y-129339346D01*
X176997434Y-129707566D01*
X177935000Y-130645132D01*
X177935000Y-144309868D01*
X177329868Y-144915000D01*
X173520608Y-144915000D01*
X173520608Y-127980213D01*
X172720000Y-127179605D01*
X171919392Y-127980213D01*
X171988857Y-128222397D01*
X172512302Y-128409144D01*
X173067368Y-128381362D01*
X173451143Y-128222397D01*
X173520608Y-127980213D01*
X173520608Y-144915000D01*
X160020000Y-144915000D01*
X159585654Y-145001397D01*
X159511764Y-145050768D01*
X159512242Y-144503339D01*
X159300010Y-143989697D01*
X158907370Y-143596371D01*
X158699487Y-143510050D01*
X158905303Y-143425010D01*
X159298629Y-143032370D01*
X159511757Y-142519100D01*
X159512242Y-141963339D01*
X159300010Y-141449697D01*
X158907370Y-141056371D01*
X158699487Y-140970050D01*
X158905303Y-140885010D01*
X158955400Y-140835000D01*
X166370000Y-140835000D01*
X166804345Y-140748603D01*
X166804346Y-140748603D01*
X167172566Y-140502566D01*
X168442566Y-139232566D01*
X168688603Y-138864346D01*
X168688603Y-138864345D01*
X168775000Y-138430000D01*
X168775000Y-93180132D01*
X169712566Y-92242566D01*
X169958603Y-91874346D01*
X169958603Y-91874345D01*
X170045000Y-91440000D01*
X170045000Y-90994325D01*
X170380655Y-91218603D01*
X170815000Y-91305000D01*
X170895426Y-91289002D01*
X174773870Y-91289002D01*
X175395000Y-91910132D01*
X175395000Y-92848324D01*
X175263539Y-93045069D01*
X174892036Y-92629268D01*
X174364791Y-92375291D01*
X174349026Y-92372642D01*
X174117000Y-92493783D01*
X174117000Y-93853000D01*
X174137000Y-93853000D01*
X174137000Y-94107000D01*
X174117000Y-94107000D01*
X174117000Y-95466217D01*
X174349026Y-95587358D01*
X174364791Y-95584709D01*
X174892036Y-95330732D01*
X175263539Y-94914930D01*
X175470330Y-95224415D01*
X175956511Y-95549271D01*
X176530000Y-95663345D01*
X177103489Y-95549271D01*
X177589670Y-95224415D01*
X177800000Y-94909634D01*
X178010330Y-95224415D01*
X178496511Y-95549271D01*
X179070000Y-95663345D01*
X179643489Y-95549271D01*
X180129670Y-95224415D01*
X180144500Y-95202219D01*
X180208073Y-95355698D01*
X180386701Y-95534327D01*
X180475000Y-95570901D01*
X180475000Y-98739098D01*
X180386702Y-98775673D01*
X180208073Y-98954301D01*
X180144499Y-99107779D01*
X180129670Y-99085585D01*
X179643489Y-98760729D01*
X179070000Y-98646655D01*
X178496511Y-98760729D01*
X178010330Y-99085585D01*
X177937221Y-99195000D01*
X177662778Y-99195000D01*
X177589670Y-99085585D01*
X177103489Y-98760729D01*
X176530000Y-98646655D01*
X175956511Y-98760729D01*
X175470330Y-99085585D01*
X175397221Y-99195000D01*
X175122778Y-99195000D01*
X175049670Y-99085585D01*
X174563489Y-98760729D01*
X173990000Y-98646655D01*
X173863000Y-98671916D01*
X173863000Y-95466217D01*
X173863000Y-94107000D01*
X173863000Y-93853000D01*
X173863000Y-92493783D01*
X173630974Y-92372642D01*
X173615209Y-92375291D01*
X173087964Y-92629268D01*
X172698046Y-93065680D01*
X172504816Y-93618087D01*
X172649076Y-93853000D01*
X173863000Y-93853000D01*
X173863000Y-94107000D01*
X172649076Y-94107000D01*
X172504816Y-94341913D01*
X172698046Y-94894320D01*
X173087964Y-95330732D01*
X173615209Y-95584709D01*
X173630974Y-95587358D01*
X173863000Y-95466217D01*
X173863000Y-98671916D01*
X173416511Y-98760729D01*
X172930330Y-99085585D01*
X172605474Y-99571766D01*
X172491400Y-100145255D01*
X172491400Y-100514745D01*
X172605474Y-101088234D01*
X172930330Y-101574415D01*
X173416511Y-101899271D01*
X173990000Y-102013345D01*
X174563489Y-101899271D01*
X175049670Y-101574415D01*
X175122778Y-101465000D01*
X175397221Y-101465000D01*
X175470330Y-101574415D01*
X175956511Y-101899271D01*
X176530000Y-102013345D01*
X177103489Y-101899271D01*
X177589670Y-101574415D01*
X177662778Y-101465000D01*
X177937221Y-101465000D01*
X178010330Y-101574415D01*
X178496511Y-101899271D01*
X179070000Y-102013345D01*
X179643489Y-101899271D01*
X180129670Y-101574415D01*
X180144500Y-101552219D01*
X180208073Y-101705698D01*
X180386701Y-101884327D01*
X180620090Y-101981000D01*
X180872709Y-101981000D01*
X182599909Y-101981000D01*
X182833298Y-101884327D01*
X183011927Y-101705699D01*
X183108600Y-101472310D01*
X183108600Y-101465000D01*
X187489868Y-101465000D01*
X188095000Y-102070132D01*
X188095000Y-112559868D01*
X187489868Y-113165000D01*
X186829144Y-113165000D01*
X186829144Y-111967698D01*
X186801362Y-111412632D01*
X186642397Y-111028857D01*
X186400213Y-110959392D01*
X186220608Y-111138997D01*
X186220608Y-110779787D01*
X186151143Y-110537603D01*
X185627698Y-110350856D01*
X185072632Y-110378638D01*
X184688857Y-110537603D01*
X184619392Y-110779787D01*
X185420000Y-111580395D01*
X186220608Y-110779787D01*
X186220608Y-111138997D01*
X185599605Y-111760000D01*
X186400213Y-112560608D01*
X186642397Y-112491143D01*
X186829144Y-111967698D01*
X186829144Y-113165000D01*
X185295096Y-113165000D01*
X185767368Y-113141362D01*
X186151143Y-112982397D01*
X186220608Y-112740213D01*
X185420000Y-111939605D01*
X185240395Y-112119210D01*
X185240395Y-111760000D01*
X184439787Y-110959392D01*
X184197603Y-111028857D01*
X184010856Y-111552302D01*
X184038638Y-112107368D01*
X184197603Y-112491143D01*
X184439787Y-112560608D01*
X185240395Y-111760000D01*
X185240395Y-112119210D01*
X184619392Y-112740213D01*
X184688857Y-112982397D01*
X185200686Y-113165000D01*
X183108600Y-113165000D01*
X183108600Y-105282309D01*
X183108600Y-104425750D01*
X183108600Y-103854250D01*
X183108600Y-102997691D01*
X183011927Y-102764302D01*
X182833299Y-102585673D01*
X182599910Y-102489000D01*
X182347291Y-102489000D01*
X181895750Y-102489000D01*
X181737000Y-102647750D01*
X181737000Y-104013000D01*
X182949850Y-104013000D01*
X183108600Y-103854250D01*
X183108600Y-104425750D01*
X182949850Y-104267000D01*
X181737000Y-104267000D01*
X181737000Y-105632250D01*
X181895750Y-105791000D01*
X182347291Y-105791000D01*
X182599910Y-105791000D01*
X182833299Y-105694327D01*
X183011927Y-105515698D01*
X183108600Y-105282309D01*
X183108600Y-113165000D01*
X181749144Y-113165000D01*
X181749144Y-111967698D01*
X181721362Y-111412632D01*
X181562397Y-111028857D01*
X181483000Y-111006083D01*
X181483000Y-105632250D01*
X181483000Y-104267000D01*
X181483000Y-104013000D01*
X181483000Y-102647750D01*
X181324250Y-102489000D01*
X180872709Y-102489000D01*
X180620090Y-102489000D01*
X180386701Y-102585673D01*
X180208073Y-102764302D01*
X180126241Y-102961860D01*
X179972036Y-102789268D01*
X179444791Y-102535291D01*
X179429026Y-102532642D01*
X179197000Y-102653783D01*
X179197000Y-104013000D01*
X180270150Y-104013000D01*
X180410924Y-104013000D01*
X181483000Y-104013000D01*
X181483000Y-104267000D01*
X180410924Y-104267000D01*
X180270150Y-104267000D01*
X179197000Y-104267000D01*
X179197000Y-105626217D01*
X179429026Y-105747358D01*
X179444791Y-105744709D01*
X179972036Y-105490732D01*
X180126241Y-105318139D01*
X180208073Y-105515698D01*
X180386701Y-105694327D01*
X180620090Y-105791000D01*
X180872709Y-105791000D01*
X181324250Y-105791000D01*
X181483000Y-105632250D01*
X181483000Y-111006083D01*
X181320213Y-110959392D01*
X181140608Y-111138997D01*
X181140608Y-110779787D01*
X181071143Y-110537603D01*
X180547698Y-110350856D01*
X179992632Y-110378638D01*
X179608857Y-110537603D01*
X179539392Y-110779787D01*
X180340000Y-111580395D01*
X181140608Y-110779787D01*
X181140608Y-111138997D01*
X180519605Y-111760000D01*
X181320213Y-112560608D01*
X181562397Y-112491143D01*
X181749144Y-111967698D01*
X181749144Y-113165000D01*
X180215096Y-113165000D01*
X180687368Y-113141362D01*
X181071143Y-112982397D01*
X181140608Y-112740213D01*
X180340000Y-111939605D01*
X180160395Y-112119210D01*
X180160395Y-111760000D01*
X179359787Y-110959392D01*
X179117603Y-111028857D01*
X178943000Y-111518262D01*
X178943000Y-105626217D01*
X178943000Y-104267000D01*
X178943000Y-104013000D01*
X178943000Y-102653783D01*
X178710974Y-102532642D01*
X178695209Y-102535291D01*
X178167964Y-102789268D01*
X177800000Y-103201108D01*
X177432036Y-102789268D01*
X176904791Y-102535291D01*
X176889026Y-102532642D01*
X176657000Y-102653783D01*
X176657000Y-104013000D01*
X177729076Y-104013000D01*
X177870924Y-104013000D01*
X178943000Y-104013000D01*
X178943000Y-104267000D01*
X177870924Y-104267000D01*
X177729076Y-104267000D01*
X176657000Y-104267000D01*
X176657000Y-105626217D01*
X176889026Y-105747358D01*
X176904791Y-105744709D01*
X177432036Y-105490732D01*
X177800000Y-105078891D01*
X178167964Y-105490732D01*
X178695209Y-105744709D01*
X178710974Y-105747358D01*
X178943000Y-105626217D01*
X178943000Y-111518262D01*
X178930856Y-111552302D01*
X178958638Y-112107368D01*
X179117603Y-112491143D01*
X179359787Y-112560608D01*
X180160395Y-111760000D01*
X180160395Y-112119210D01*
X179539392Y-112740213D01*
X179608857Y-112982397D01*
X180120686Y-113165000D01*
X176403000Y-113165000D01*
X176403000Y-105626217D01*
X176403000Y-104267000D01*
X176403000Y-104013000D01*
X176403000Y-102653783D01*
X176170974Y-102532642D01*
X176155209Y-102535291D01*
X175627964Y-102789268D01*
X175260000Y-103201108D01*
X174892036Y-102789268D01*
X174364791Y-102535291D01*
X174349026Y-102532642D01*
X174117000Y-102653783D01*
X174117000Y-104013000D01*
X175189076Y-104013000D01*
X175330924Y-104013000D01*
X176403000Y-104013000D01*
X176403000Y-104267000D01*
X175330924Y-104267000D01*
X175189076Y-104267000D01*
X174117000Y-104267000D01*
X174117000Y-105626217D01*
X174349026Y-105747358D01*
X174364791Y-105744709D01*
X174892036Y-105490732D01*
X175260000Y-105078891D01*
X175627964Y-105490732D01*
X176155209Y-105744709D01*
X176170974Y-105747358D01*
X176403000Y-105626217D01*
X176403000Y-113165000D01*
X173863000Y-113165000D01*
X173863000Y-105626217D01*
X173863000Y-104267000D01*
X173863000Y-104013000D01*
X173863000Y-102653783D01*
X173630974Y-102532642D01*
X173615209Y-102535291D01*
X173087964Y-102789268D01*
X172698046Y-103225680D01*
X172504816Y-103778087D01*
X172649076Y-104013000D01*
X173863000Y-104013000D01*
X173863000Y-104267000D01*
X172649076Y-104267000D01*
X172504816Y-104501913D01*
X172698046Y-105054320D01*
X173087964Y-105490732D01*
X173615209Y-105744709D01*
X173630974Y-105747358D01*
X173863000Y-105626217D01*
X173863000Y-113165000D01*
X171450000Y-113165000D01*
X171015654Y-113251397D01*
X170647434Y-113497434D01*
X169377434Y-114767434D01*
X169131397Y-115135654D01*
X169045000Y-115570000D01*
X169045000Y-119380000D01*
X169045000Y-126159085D01*
X168996371Y-126207630D01*
X168783243Y-126720900D01*
X168782758Y-127276661D01*
X168994990Y-127790303D01*
X169387630Y-128183629D01*
X169900900Y-128396757D01*
X170456661Y-128397242D01*
X170970303Y-128185010D01*
X171363629Y-127792370D01*
X171443394Y-127600272D01*
X171497603Y-127731143D01*
X171739787Y-127800608D01*
X172540395Y-127000000D01*
X171739787Y-126199392D01*
X171497603Y-126268857D01*
X171447491Y-126409317D01*
X171365010Y-126209697D01*
X171315000Y-126159599D01*
X171315000Y-119380000D01*
X171315000Y-116040132D01*
X171920132Y-115435000D01*
X187960000Y-115435000D01*
X188394345Y-115348603D01*
X188394346Y-115348603D01*
X188762566Y-115102566D01*
X189349002Y-114516130D01*
X189349002Y-115115866D01*
X188759868Y-115705000D01*
X186260914Y-115705000D01*
X186212370Y-115656371D01*
X185699100Y-115443243D01*
X185143339Y-115442758D01*
X184629697Y-115654990D01*
X184579599Y-115705000D01*
X181627025Y-115705000D01*
X181461699Y-115539673D01*
X181228310Y-115443000D01*
X180975691Y-115443000D01*
X179451691Y-115443000D01*
X179218302Y-115539673D01*
X179052974Y-115705000D01*
X176530000Y-115705000D01*
X176095654Y-115791397D01*
X175727434Y-116037434D01*
X175481397Y-116405654D01*
X175395000Y-116840000D01*
X175481397Y-117274346D01*
X175727434Y-117642566D01*
X176095654Y-117888603D01*
X176530000Y-117975000D01*
X179052974Y-117975000D01*
X179218301Y-118140327D01*
X179451690Y-118237000D01*
X179704309Y-118237000D01*
X181228309Y-118237000D01*
X181461698Y-118140327D01*
X181627025Y-117975000D01*
X184579085Y-117975000D01*
X184627630Y-118023629D01*
X185140900Y-118236757D01*
X185696661Y-118237242D01*
X186210303Y-118025010D01*
X186260400Y-117975000D01*
X189230000Y-117975000D01*
X189664345Y-117888603D01*
X189664346Y-117888603D01*
X190032566Y-117642566D01*
X191286568Y-116388564D01*
X191532605Y-116020344D01*
X191532606Y-116020343D01*
X191619002Y-115585998D01*
X191619002Y-144896864D01*
X191032827Y-144653464D01*
X189971828Y-144652538D01*
X188991239Y-145057709D01*
X188240345Y-145807293D01*
X187833464Y-146787173D01*
X187832538Y-147848172D01*
X188237709Y-148828761D01*
X188987293Y-149579655D01*
X189967173Y-149986536D01*
X191028172Y-149987462D01*
X192008761Y-149582291D01*
X192759655Y-148832707D01*
X193166536Y-147852827D01*
X193167462Y-146791828D01*
X193167462Y-151690000D01*
X111887462Y-151690000D01*
X111887462Y-146791828D01*
X111482291Y-145811239D01*
X110732707Y-145060345D01*
X109752827Y-144653464D01*
X108691828Y-144652538D01*
X107711239Y-145057709D01*
X106960345Y-145807293D01*
X106553464Y-146787173D01*
X106552538Y-147848172D01*
X106957709Y-148828761D01*
X107707293Y-149579655D01*
X108687173Y-149986536D01*
X109748172Y-149987462D01*
X110728761Y-149582291D01*
X111479655Y-148832707D01*
X111886536Y-147852827D01*
X111887462Y-146791828D01*
X111887462Y-151690000D01*
X105485000Y-151690000D01*
X105485000Y-64210000D01*
X195505000Y-64210000D01*
X195505000Y-151690000D01*
X195505000Y-151690000D01*
G37*
X195505000Y-151690000D02*
X193167462Y-151690000D01*
X193167462Y-146791828D01*
X193167462Y-68051828D01*
X192762291Y-67071239D01*
X192012707Y-66320345D01*
X191032827Y-65913464D01*
X189971828Y-65912538D01*
X188991239Y-66317709D01*
X188240345Y-67067293D01*
X187833464Y-68047173D01*
X187832538Y-69108172D01*
X188237709Y-70088761D01*
X188987293Y-70839655D01*
X189967173Y-71246536D01*
X191028172Y-71247462D01*
X192008761Y-70842291D01*
X192759655Y-70092707D01*
X193166536Y-69112827D01*
X193167462Y-68051828D01*
X193167462Y-146791828D01*
X192762291Y-145811239D01*
X192012707Y-145060345D01*
X191619002Y-144896864D01*
X191619002Y-115585998D01*
X191619002Y-100314002D01*
X191532606Y-99879657D01*
X191532605Y-99879656D01*
X191286568Y-99511436D01*
X190365000Y-98589868D01*
X190365000Y-95631000D01*
X190372309Y-95631000D01*
X190605698Y-95534327D01*
X190784327Y-95355699D01*
X190881000Y-95122310D01*
X190881000Y-94869691D01*
X190881000Y-92837691D01*
X190784327Y-92604302D01*
X190605699Y-92425673D01*
X190372310Y-92329000D01*
X190119691Y-92329000D01*
X189458600Y-92329000D01*
X189458600Y-77342309D01*
X189458600Y-76485750D01*
X189458600Y-75914250D01*
X189458600Y-75057691D01*
X189361927Y-74824302D01*
X189183299Y-74645673D01*
X188949910Y-74549000D01*
X188697291Y-74549000D01*
X188245750Y-74549000D01*
X188087000Y-74707750D01*
X188087000Y-76073000D01*
X189299850Y-76073000D01*
X189458600Y-75914250D01*
X189458600Y-76485750D01*
X189299850Y-76327000D01*
X188087000Y-76327000D01*
X188087000Y-77692250D01*
X188245750Y-77851000D01*
X188697291Y-77851000D01*
X188949910Y-77851000D01*
X189183299Y-77754327D01*
X189361927Y-77575698D01*
X189458600Y-77342309D01*
X189458600Y-92329000D01*
X188087691Y-92329000D01*
X187854302Y-92425673D01*
X187675673Y-92604301D01*
X187651319Y-92663096D01*
X187554818Y-92573615D01*
X187072944Y-92374025D01*
X186817000Y-92493164D01*
X186817000Y-93853000D01*
X186837000Y-93853000D01*
X186837000Y-94107000D01*
X186817000Y-94107000D01*
X186817000Y-95466836D01*
X187072944Y-95585975D01*
X187554818Y-95386385D01*
X187651319Y-95296903D01*
X187675673Y-95355698D01*
X187854301Y-95534327D01*
X188087690Y-95631000D01*
X188095000Y-95631000D01*
X188095000Y-99060000D01*
X188128520Y-99228520D01*
X187960000Y-99195000D01*
X186563000Y-99195000D01*
X186563000Y-95466836D01*
X186563000Y-94107000D01*
X186563000Y-93853000D01*
X186563000Y-92493164D01*
X186307056Y-92374025D01*
X185825182Y-92573615D01*
X185352812Y-93011621D01*
X185084017Y-93597054D01*
X185202633Y-93853000D01*
X186563000Y-93853000D01*
X186563000Y-94107000D01*
X185202633Y-94107000D01*
X185084017Y-94362946D01*
X185352812Y-94948379D01*
X185825182Y-95386385D01*
X186307056Y-95585975D01*
X186563000Y-95466836D01*
X186563000Y-99195000D01*
X183108600Y-99195000D01*
X183108600Y-99187691D01*
X183011927Y-98954302D01*
X182833299Y-98775673D01*
X182745000Y-98739098D01*
X182745000Y-95570901D01*
X182833298Y-95534327D01*
X183011927Y-95355699D01*
X183108600Y-95122310D01*
X183108600Y-94869691D01*
X183108600Y-92837691D01*
X183011927Y-92604302D01*
X182833299Y-92425673D01*
X182599910Y-92329000D01*
X182347291Y-92329000D01*
X180620091Y-92329000D01*
X180386702Y-92425673D01*
X180208073Y-92604301D01*
X180205000Y-92611719D01*
X180205000Y-90170000D01*
X180118603Y-89735655D01*
X180118603Y-89735654D01*
X179872566Y-89367434D01*
X178602566Y-88097434D01*
X178234346Y-87851397D01*
X177800000Y-87765000D01*
X170018146Y-87765000D01*
X170045000Y-87630000D01*
X170045000Y-83655132D01*
X171618204Y-82081927D01*
X171671397Y-82349346D01*
X171917434Y-82717566D01*
X172285654Y-82963603D01*
X172720000Y-83050000D01*
X173990000Y-83050000D01*
X174424345Y-82963603D01*
X174424346Y-82963603D01*
X174792566Y-82717566D01*
X176062566Y-81447566D01*
X176308603Y-81079346D01*
X176308603Y-81079345D01*
X176395000Y-80645000D01*
X176395000Y-77331675D01*
X176530000Y-77129634D01*
X176740330Y-77444415D01*
X177226511Y-77769271D01*
X177800000Y-77883345D01*
X178373489Y-77769271D01*
X178859670Y-77444415D01*
X179070000Y-77129634D01*
X179280330Y-77444415D01*
X179766511Y-77769271D01*
X180340000Y-77883345D01*
X180913489Y-77769271D01*
X181399670Y-77444415D01*
X181610000Y-77129634D01*
X181820330Y-77444415D01*
X182306511Y-77769271D01*
X182880000Y-77883345D01*
X183453489Y-77769271D01*
X183939670Y-77444415D01*
X184150000Y-77129634D01*
X184360330Y-77444415D01*
X184846511Y-77769271D01*
X185420000Y-77883345D01*
X185993489Y-77769271D01*
X186479670Y-77444415D01*
X186494500Y-77422219D01*
X186558073Y-77575698D01*
X186736701Y-77754327D01*
X186970090Y-77851000D01*
X187222709Y-77851000D01*
X187674250Y-77851000D01*
X187833000Y-77692250D01*
X187833000Y-76327000D01*
X187813000Y-76327000D01*
X187813000Y-76073000D01*
X187833000Y-76073000D01*
X187833000Y-74707750D01*
X187674250Y-74549000D01*
X187222709Y-74549000D01*
X186970090Y-74549000D01*
X186736701Y-74645673D01*
X186558073Y-74824302D01*
X186555000Y-74831720D01*
X186555000Y-70485000D01*
X186468603Y-70050655D01*
X186468603Y-70050654D01*
X186222566Y-69682434D01*
X184952566Y-68412434D01*
X184584346Y-68166397D01*
X184150000Y-68080000D01*
X163830000Y-68080000D01*
X163395654Y-68166397D01*
X163027434Y-68412434D01*
X161757434Y-69682434D01*
X161511397Y-70050654D01*
X161425000Y-70485000D01*
X161425000Y-74831720D01*
X161421927Y-74824302D01*
X161243299Y-74645673D01*
X161009910Y-74549000D01*
X160757291Y-74549000D01*
X159030091Y-74549000D01*
X158796702Y-74645673D01*
X158618073Y-74824301D01*
X158536241Y-75021860D01*
X158382036Y-74849268D01*
X157854791Y-74595291D01*
X157839026Y-74592642D01*
X157607000Y-74713783D01*
X157607000Y-76073000D01*
X157627000Y-76073000D01*
X157627000Y-76327000D01*
X157607000Y-76327000D01*
X157607000Y-77686217D01*
X157839026Y-77807358D01*
X157854791Y-77804709D01*
X158382036Y-77550732D01*
X158536241Y-77378139D01*
X158618073Y-77575698D01*
X158796701Y-77754327D01*
X158885000Y-77790901D01*
X158885000Y-80010000D01*
X158911853Y-80145000D01*
X156680132Y-80145000D01*
X156075000Y-79539868D01*
X156075000Y-77331675D01*
X156206460Y-77134930D01*
X156577964Y-77550732D01*
X157105209Y-77804709D01*
X157120974Y-77807358D01*
X157353000Y-77686217D01*
X157353000Y-76327000D01*
X157333000Y-76327000D01*
X157333000Y-76073000D01*
X157353000Y-76073000D01*
X157353000Y-74713783D01*
X157120974Y-74592642D01*
X157105209Y-74595291D01*
X156577964Y-74849268D01*
X156206460Y-75265069D01*
X156075000Y-75068324D01*
X156075000Y-72390000D01*
X155988603Y-71955655D01*
X155988603Y-71955654D01*
X155742566Y-71587434D01*
X154472566Y-70317434D01*
X154104346Y-70071397D01*
X153885184Y-70027802D01*
X153885184Y-67671913D01*
X153885184Y-66948087D01*
X153691954Y-66395680D01*
X153302036Y-65959268D01*
X152774791Y-65705291D01*
X152759026Y-65702642D01*
X152527000Y-65823783D01*
X152527000Y-67183000D01*
X153740924Y-67183000D01*
X153885184Y-66948087D01*
X153885184Y-67671913D01*
X153740924Y-67437000D01*
X152527000Y-67437000D01*
X152527000Y-68796217D01*
X152759026Y-68917358D01*
X152774791Y-68914709D01*
X153302036Y-68660732D01*
X153691954Y-68224320D01*
X153885184Y-67671913D01*
X153885184Y-70027802D01*
X153670000Y-69985000D01*
X153532778Y-69985000D01*
X153459670Y-69875585D01*
X152973489Y-69550729D01*
X152400000Y-69436655D01*
X152273000Y-69461916D01*
X152273000Y-68796217D01*
X152273000Y-67437000D01*
X152273000Y-67183000D01*
X152273000Y-65823783D01*
X152040974Y-65702642D01*
X152025209Y-65705291D01*
X151497964Y-65959268D01*
X151130000Y-66371108D01*
X150762036Y-65959268D01*
X150234791Y-65705291D01*
X150219026Y-65702642D01*
X149987000Y-65823783D01*
X149987000Y-67183000D01*
X151059076Y-67183000D01*
X151200924Y-67183000D01*
X152273000Y-67183000D01*
X152273000Y-67437000D01*
X151200924Y-67437000D01*
X151059076Y-67437000D01*
X149987000Y-67437000D01*
X149987000Y-68796217D01*
X150219026Y-68917358D01*
X150234791Y-68914709D01*
X150762036Y-68660732D01*
X151130000Y-68248891D01*
X151497964Y-68660732D01*
X152025209Y-68914709D01*
X152040974Y-68917358D01*
X152273000Y-68796217D01*
X152273000Y-69461916D01*
X151826511Y-69550729D01*
X151340330Y-69875585D01*
X151267221Y-69985000D01*
X150992778Y-69985000D01*
X150919670Y-69875585D01*
X150433489Y-69550729D01*
X149860000Y-69436655D01*
X149733000Y-69461916D01*
X149733000Y-68796217D01*
X149733000Y-67437000D01*
X149733000Y-67183000D01*
X149733000Y-65823783D01*
X149500974Y-65702642D01*
X149485209Y-65705291D01*
X148957964Y-65959268D01*
X148590000Y-66371108D01*
X148222036Y-65959268D01*
X147694791Y-65705291D01*
X147679026Y-65702642D01*
X147447000Y-65823783D01*
X147447000Y-67183000D01*
X148519076Y-67183000D01*
X148660924Y-67183000D01*
X149733000Y-67183000D01*
X149733000Y-67437000D01*
X148660924Y-67437000D01*
X148519076Y-67437000D01*
X147447000Y-67437000D01*
X147447000Y-68796217D01*
X147679026Y-68917358D01*
X147694791Y-68914709D01*
X148222036Y-68660732D01*
X148590000Y-68248891D01*
X148957964Y-68660732D01*
X149485209Y-68914709D01*
X149500974Y-68917358D01*
X149733000Y-68796217D01*
X149733000Y-69461916D01*
X149286511Y-69550729D01*
X148800330Y-69875585D01*
X148727221Y-69985000D01*
X148452778Y-69985000D01*
X148379670Y-69875585D01*
X147893489Y-69550729D01*
X147320000Y-69436655D01*
X147193000Y-69461916D01*
X147193000Y-68796217D01*
X147193000Y-67437000D01*
X147193000Y-67183000D01*
X147193000Y-65823783D01*
X146960974Y-65702642D01*
X146945209Y-65705291D01*
X146417964Y-65959268D01*
X146263758Y-66131860D01*
X146181927Y-65934302D01*
X146003299Y-65755673D01*
X145769910Y-65659000D01*
X145517291Y-65659000D01*
X145065750Y-65659000D01*
X144907000Y-65817750D01*
X144907000Y-67183000D01*
X145979076Y-67183000D01*
X146119850Y-67183000D01*
X147193000Y-67183000D01*
X147193000Y-67437000D01*
X146119850Y-67437000D01*
X145979076Y-67437000D01*
X144907000Y-67437000D01*
X144907000Y-68802250D01*
X145065750Y-68961000D01*
X145517291Y-68961000D01*
X145769910Y-68961000D01*
X146003299Y-68864327D01*
X146181927Y-68685698D01*
X146263758Y-68488139D01*
X146417964Y-68660732D01*
X146945209Y-68914709D01*
X146960974Y-68917358D01*
X147193000Y-68796217D01*
X147193000Y-69461916D01*
X146746511Y-69550729D01*
X146260330Y-69875585D01*
X146245499Y-69897780D01*
X146181927Y-69744302D01*
X146003299Y-69565673D01*
X145769910Y-69469000D01*
X145517291Y-69469000D01*
X144653000Y-69469000D01*
X144653000Y-68802250D01*
X144653000Y-67437000D01*
X144653000Y-67183000D01*
X144653000Y-65817750D01*
X144494250Y-65659000D01*
X144042709Y-65659000D01*
X143790090Y-65659000D01*
X143556701Y-65755673D01*
X143378073Y-65934302D01*
X143281400Y-66167691D01*
X143281400Y-67024250D01*
X143440150Y-67183000D01*
X144653000Y-67183000D01*
X144653000Y-67437000D01*
X143440150Y-67437000D01*
X143281400Y-67595750D01*
X143281400Y-68452309D01*
X143378073Y-68685698D01*
X143556701Y-68864327D01*
X143790090Y-68961000D01*
X144042709Y-68961000D01*
X144494250Y-68961000D01*
X144653000Y-68802250D01*
X144653000Y-69469000D01*
X143790091Y-69469000D01*
X143556702Y-69565673D01*
X143378073Y-69744301D01*
X143281400Y-69977690D01*
X143281400Y-70230309D01*
X143281400Y-72262309D01*
X143378073Y-72495698D01*
X143556701Y-72674327D01*
X143790090Y-72771000D01*
X144042709Y-72771000D01*
X145769909Y-72771000D01*
X146003298Y-72674327D01*
X146181927Y-72495699D01*
X146245500Y-72342220D01*
X146260330Y-72364415D01*
X146746511Y-72689271D01*
X147320000Y-72803345D01*
X147893489Y-72689271D01*
X148379670Y-72364415D01*
X148452778Y-72255000D01*
X148727221Y-72255000D01*
X148800330Y-72364415D01*
X149286511Y-72689271D01*
X149860000Y-72803345D01*
X150433489Y-72689271D01*
X150919670Y-72364415D01*
X150992778Y-72255000D01*
X151267221Y-72255000D01*
X151340330Y-72364415D01*
X151826511Y-72689271D01*
X152400000Y-72803345D01*
X152973489Y-72689271D01*
X153369519Y-72424651D01*
X153805000Y-72860132D01*
X153805000Y-75068324D01*
X153670000Y-75270365D01*
X153459670Y-74955585D01*
X152973489Y-74630729D01*
X152400000Y-74516655D01*
X151826511Y-74630729D01*
X151340330Y-74955585D01*
X151130000Y-75270365D01*
X150919670Y-74955585D01*
X150433489Y-74630729D01*
X149860000Y-74516655D01*
X149286511Y-74630729D01*
X148800330Y-74955585D01*
X148593539Y-75265069D01*
X148222036Y-74849268D01*
X147694791Y-74595291D01*
X147679026Y-74592642D01*
X147447000Y-74713783D01*
X147447000Y-76073000D01*
X147467000Y-76073000D01*
X147467000Y-76327000D01*
X147447000Y-76327000D01*
X147447000Y-77686217D01*
X147679026Y-77807358D01*
X147694791Y-77804709D01*
X148222036Y-77550732D01*
X148593539Y-77134930D01*
X148725000Y-77331675D01*
X148725000Y-79185674D01*
X148389346Y-78961397D01*
X147955000Y-78875000D01*
X147520654Y-78961397D01*
X147193000Y-79180328D01*
X147193000Y-77686217D01*
X147193000Y-76327000D01*
X147193000Y-76073000D01*
X147193000Y-74713783D01*
X146960974Y-74592642D01*
X146945209Y-74595291D01*
X146417964Y-74849268D01*
X146028046Y-75285680D01*
X145834816Y-75838087D01*
X145979076Y-76073000D01*
X147193000Y-76073000D01*
X147193000Y-76327000D01*
X145979076Y-76327000D01*
X145834816Y-76561913D01*
X146028046Y-77114320D01*
X146417964Y-77550732D01*
X146945209Y-77804709D01*
X146960974Y-77807358D01*
X147193000Y-77686217D01*
X147193000Y-79180328D01*
X147152434Y-79207434D01*
X146906397Y-79575654D01*
X146820000Y-80010000D01*
X146820000Y-86524868D01*
X146214868Y-87130000D01*
X144145000Y-87130000D01*
X143710655Y-87216396D01*
X143342434Y-87462434D01*
X141801864Y-89003004D01*
X141198600Y-89003004D01*
X141198600Y-81464745D01*
X141198600Y-81095255D01*
X141084526Y-80521766D01*
X140759670Y-80035585D01*
X140721379Y-80010000D01*
X140759670Y-79984415D01*
X141084526Y-79498234D01*
X141198600Y-78924745D01*
X141198600Y-78555255D01*
X141084526Y-77981766D01*
X140759670Y-77495585D01*
X140721379Y-77470000D01*
X140759670Y-77444415D01*
X141084526Y-76958234D01*
X141198600Y-76384745D01*
X141198600Y-76015255D01*
X141084526Y-75441766D01*
X140759670Y-74955585D01*
X140721379Y-74930000D01*
X140759670Y-74904415D01*
X141084526Y-74418234D01*
X141198600Y-73844745D01*
X141198600Y-73475255D01*
X141084526Y-72901766D01*
X140759670Y-72415585D01*
X140721379Y-72390000D01*
X140759670Y-72364415D01*
X141084526Y-71878234D01*
X141198600Y-71304745D01*
X141198600Y-70935255D01*
X141084526Y-70361766D01*
X140759670Y-69875585D01*
X140721379Y-69850000D01*
X140759670Y-69824415D01*
X141084526Y-69338234D01*
X141198600Y-68764745D01*
X141198600Y-68395255D01*
X141084526Y-67821766D01*
X140759670Y-67335585D01*
X140721379Y-67310000D01*
X140759670Y-67284415D01*
X141084526Y-66798234D01*
X141198600Y-66224745D01*
X141198600Y-65855255D01*
X141084526Y-65281766D01*
X140759670Y-64795585D01*
X140273489Y-64470729D01*
X139700000Y-64356655D01*
X139126511Y-64470729D01*
X138640330Y-64795585D01*
X138430000Y-65110365D01*
X138219670Y-64795585D01*
X137733489Y-64470729D01*
X137160000Y-64356655D01*
X136586511Y-64470729D01*
X136100330Y-64795585D01*
X135890000Y-65110365D01*
X135679670Y-64795585D01*
X135193489Y-64470729D01*
X134620000Y-64356655D01*
X134046511Y-64470729D01*
X133560330Y-64795585D01*
X133350000Y-65110365D01*
X133139670Y-64795585D01*
X132653489Y-64470729D01*
X132080000Y-64356655D01*
X131506511Y-64470729D01*
X131020330Y-64795585D01*
X130810000Y-65110365D01*
X130599670Y-64795585D01*
X130113489Y-64470729D01*
X129540000Y-64356655D01*
X128966511Y-64470729D01*
X128480330Y-64795585D01*
X128270000Y-65110365D01*
X128059670Y-64795585D01*
X127573489Y-64470729D01*
X127000000Y-64356655D01*
X126426511Y-64470729D01*
X125940330Y-64795585D01*
X125730000Y-65110365D01*
X125519670Y-64795585D01*
X125033489Y-64470729D01*
X124460000Y-64356655D01*
X123886511Y-64470729D01*
X123400330Y-64795585D01*
X123190000Y-65110365D01*
X122979670Y-64795585D01*
X122493489Y-64470729D01*
X121920000Y-64356655D01*
X121346511Y-64470729D01*
X120860330Y-64795585D01*
X120650000Y-65110365D01*
X120439670Y-64795585D01*
X119953489Y-64470729D01*
X119380000Y-64356655D01*
X118806511Y-64470729D01*
X118320330Y-64795585D01*
X118305499Y-64817780D01*
X118241927Y-64664302D01*
X118063299Y-64485673D01*
X117829910Y-64389000D01*
X117577291Y-64389000D01*
X115850091Y-64389000D01*
X115616702Y-64485673D01*
X115438073Y-64664301D01*
X115341400Y-64897690D01*
X115341400Y-65150309D01*
X115341400Y-67182309D01*
X115394291Y-67309999D01*
X115341400Y-67437690D01*
X115341400Y-67690309D01*
X115341400Y-69722309D01*
X115394291Y-69849999D01*
X115341400Y-69977690D01*
X115341400Y-70230309D01*
X115341400Y-72262309D01*
X115394291Y-72389999D01*
X115341400Y-72517690D01*
X115341400Y-72770309D01*
X115341400Y-74802309D01*
X115394291Y-74929999D01*
X115341400Y-75057690D01*
X115341400Y-75310309D01*
X115341400Y-77342309D01*
X115394291Y-77469999D01*
X115341400Y-77597690D01*
X115341400Y-77850309D01*
X115341400Y-79882309D01*
X115394291Y-80009999D01*
X115341400Y-80137690D01*
X115341400Y-80390309D01*
X115341400Y-82422309D01*
X115438073Y-82655698D01*
X115616701Y-82834327D01*
X115850090Y-82931000D01*
X116102709Y-82931000D01*
X117829909Y-82931000D01*
X118063298Y-82834327D01*
X118241927Y-82655699D01*
X118305500Y-82502220D01*
X118320330Y-82524415D01*
X118806511Y-82849271D01*
X119380000Y-82963345D01*
X119953489Y-82849271D01*
X120439670Y-82524415D01*
X120650000Y-82209634D01*
X120860330Y-82524415D01*
X121346511Y-82849271D01*
X121920000Y-82963345D01*
X122493489Y-82849271D01*
X122979670Y-82524415D01*
X123190000Y-82209634D01*
X123400330Y-82524415D01*
X123886511Y-82849271D01*
X124460000Y-82963345D01*
X125033489Y-82849271D01*
X125519670Y-82524415D01*
X125730000Y-82209634D01*
X125940330Y-82524415D01*
X126426511Y-82849271D01*
X127000000Y-82963345D01*
X127573489Y-82849271D01*
X128059670Y-82524415D01*
X128270000Y-82209634D01*
X128480330Y-82524415D01*
X128966511Y-82849271D01*
X129540000Y-82963345D01*
X130113489Y-82849271D01*
X130599670Y-82524415D01*
X130810000Y-82209634D01*
X131020330Y-82524415D01*
X131506511Y-82849271D01*
X132080000Y-82963345D01*
X132653489Y-82849271D01*
X133139670Y-82524415D01*
X133350000Y-82209634D01*
X133560330Y-82524415D01*
X134046511Y-82849271D01*
X134620000Y-82963345D01*
X135193489Y-82849271D01*
X135679670Y-82524415D01*
X135890000Y-82209634D01*
X136100330Y-82524415D01*
X136586511Y-82849271D01*
X137160000Y-82963345D01*
X137733489Y-82849271D01*
X138219670Y-82524415D01*
X138430000Y-82209634D01*
X138640330Y-82524415D01*
X139126511Y-82849271D01*
X139700000Y-82963345D01*
X140273489Y-82849271D01*
X140759670Y-82524415D01*
X141084526Y-82038234D01*
X141198600Y-81464745D01*
X141198600Y-89003004D01*
X141001996Y-89003004D01*
X140567650Y-89089401D01*
X140199430Y-89335438D01*
X140167434Y-89367434D01*
X139921397Y-89735655D01*
X139835000Y-90170000D01*
X139921397Y-90604345D01*
X140167434Y-90972566D01*
X140535655Y-91218603D01*
X140970000Y-91305000D01*
X141130853Y-91273004D01*
X142271996Y-91273004D01*
X142390998Y-91249332D01*
X142390998Y-98440998D01*
X142477395Y-98875344D01*
X142723432Y-99243564D01*
X143025998Y-99546130D01*
X143025998Y-108098870D01*
X142072434Y-109052434D01*
X141826397Y-109420654D01*
X141740000Y-109855000D01*
X141740000Y-110919085D01*
X141691371Y-110967630D01*
X141478243Y-111480900D01*
X141477758Y-112036661D01*
X141689990Y-112550303D01*
X142082630Y-112943629D01*
X142290512Y-113029949D01*
X142084697Y-113114990D01*
X141691371Y-113507630D01*
X141478243Y-114020900D01*
X141477758Y-114576661D01*
X141689990Y-115090303D01*
X142082630Y-115483629D01*
X142290512Y-115569949D01*
X142084697Y-115654990D01*
X141691371Y-116047630D01*
X141478243Y-116560900D01*
X141477758Y-117116661D01*
X141689990Y-117630303D01*
X142082630Y-118023629D01*
X142274727Y-118103394D01*
X142143857Y-118157603D01*
X142074392Y-118399787D01*
X142875000Y-119200395D01*
X143675608Y-118399787D01*
X143606143Y-118157603D01*
X143465682Y-118107491D01*
X143665303Y-118025010D01*
X144058629Y-117632370D01*
X144271757Y-117119100D01*
X144272242Y-116563339D01*
X144060010Y-116049697D01*
X143667370Y-115656371D01*
X143459487Y-115570050D01*
X143665303Y-115485010D01*
X143715400Y-115435000D01*
X144145000Y-115435000D01*
X144579345Y-115348603D01*
X144579346Y-115348603D01*
X144947566Y-115102566D01*
X145534002Y-114516130D01*
X145534002Y-130355866D01*
X144944868Y-130945000D01*
X144284144Y-130945000D01*
X144284144Y-119587698D01*
X144256362Y-119032632D01*
X144097397Y-118648857D01*
X143855213Y-118579392D01*
X143054605Y-119380000D01*
X143855213Y-120180608D01*
X144097397Y-120111143D01*
X144284144Y-119587698D01*
X144284144Y-130945000D01*
X143715914Y-130945000D01*
X143667370Y-130896371D01*
X143459487Y-130810050D01*
X143665303Y-130725010D01*
X144058629Y-130332370D01*
X144271757Y-129819100D01*
X144272242Y-129263339D01*
X144060010Y-128749697D01*
X143667370Y-128356371D01*
X143459487Y-128270050D01*
X143665303Y-128185010D01*
X144058629Y-127792370D01*
X144271757Y-127279100D01*
X144272242Y-126723339D01*
X144060010Y-126209697D01*
X143667370Y-125816371D01*
X143459487Y-125730050D01*
X143665303Y-125645010D01*
X144058629Y-125252370D01*
X144271757Y-124739100D01*
X144272242Y-124183339D01*
X144060010Y-123669697D01*
X143667370Y-123276371D01*
X143459487Y-123190050D01*
X143665303Y-123105010D01*
X144058629Y-122712370D01*
X144271757Y-122199100D01*
X144272242Y-121643339D01*
X144060010Y-121129697D01*
X143667370Y-120736371D01*
X143475272Y-120656605D01*
X143606143Y-120602397D01*
X143675608Y-120360213D01*
X142875000Y-119559605D01*
X142695395Y-119739210D01*
X142695395Y-119380000D01*
X141894787Y-118579392D01*
X141652603Y-118648857D01*
X141465856Y-119172302D01*
X141493638Y-119727368D01*
X141652603Y-120111143D01*
X141894787Y-120180608D01*
X142695395Y-119380000D01*
X142695395Y-119739210D01*
X142074392Y-120360213D01*
X142143857Y-120602397D01*
X142284317Y-120652508D01*
X142084697Y-120734990D01*
X142034599Y-120785000D01*
X139535132Y-120785000D01*
X138930000Y-120179868D01*
X138930000Y-105883146D01*
X139065000Y-105909999D01*
X139499345Y-105823603D01*
X139867566Y-105577566D01*
X140113603Y-105209345D01*
X140199999Y-104775000D01*
X140113603Y-104340654D01*
X139867566Y-103972433D01*
X137327566Y-101432434D01*
X136959346Y-101186397D01*
X136525000Y-101100000D01*
X132080000Y-101100000D01*
X131645654Y-101186397D01*
X131277434Y-101432434D01*
X130675000Y-102034868D01*
X130675000Y-90170000D01*
X130588603Y-89735654D01*
X130342566Y-89367434D01*
X129974346Y-89121397D01*
X129540000Y-89035000D01*
X128905000Y-89035000D01*
X128470655Y-89121396D01*
X128102434Y-89367434D01*
X127467434Y-90002434D01*
X127221397Y-90370654D01*
X127135000Y-90805000D01*
X127135000Y-91440000D01*
X127135000Y-148116853D01*
X127000000Y-148090000D01*
X124325000Y-148090000D01*
X124325000Y-147320000D01*
X124325000Y-121920000D01*
X124325000Y-95250000D01*
X124238603Y-94815655D01*
X124238603Y-94815654D01*
X123992566Y-94447434D01*
X122722566Y-93177434D01*
X122354346Y-92931397D01*
X121920000Y-92845000D01*
X113665000Y-92845000D01*
X113665000Y-92583691D01*
X113568327Y-92350302D01*
X113389699Y-92171673D01*
X113156310Y-92075000D01*
X112903691Y-92075000D01*
X111887462Y-92075000D01*
X111887462Y-68051828D01*
X111482291Y-67071239D01*
X110732707Y-66320345D01*
X109752827Y-65913464D01*
X108691828Y-65912538D01*
X107711239Y-66317709D01*
X106960345Y-67067293D01*
X106553464Y-68047173D01*
X106552538Y-69108172D01*
X106957709Y-70088761D01*
X107707293Y-70839655D01*
X108687173Y-71246536D01*
X109748172Y-71247462D01*
X110728761Y-70842291D01*
X111479655Y-70092707D01*
X111886536Y-69112827D01*
X111887462Y-68051828D01*
X111887462Y-92075000D01*
X110363691Y-92075000D01*
X110130302Y-92171673D01*
X109951673Y-92350301D01*
X109855000Y-92583690D01*
X109855000Y-92836309D01*
X109855000Y-95376309D01*
X109951673Y-95609698D01*
X110130301Y-95788327D01*
X110363690Y-95885000D01*
X110616309Y-95885000D01*
X113156309Y-95885000D01*
X113389698Y-95788327D01*
X113568327Y-95609699D01*
X113665000Y-95376310D01*
X113665000Y-95123691D01*
X113665000Y-95115000D01*
X121449868Y-95115000D01*
X122055000Y-95720132D01*
X122055000Y-120785000D01*
X121424144Y-120785000D01*
X121424144Y-119587698D01*
X121424144Y-104347698D01*
X121396362Y-103792632D01*
X121237397Y-103408857D01*
X120995213Y-103339392D01*
X120815608Y-103518997D01*
X120815608Y-103159787D01*
X120746143Y-102917603D01*
X120222698Y-102730856D01*
X119667632Y-102758638D01*
X119283857Y-102917603D01*
X119214392Y-103159787D01*
X120015000Y-103960395D01*
X120815608Y-103159787D01*
X120815608Y-103518997D01*
X120194605Y-104140000D01*
X120995213Y-104940608D01*
X121237397Y-104871143D01*
X121424144Y-104347698D01*
X121424144Y-119587698D01*
X121412242Y-119349903D01*
X121412242Y-116563339D01*
X121200010Y-116049697D01*
X120807370Y-115656371D01*
X120599487Y-115570050D01*
X120805303Y-115485010D01*
X121198629Y-115092370D01*
X121411757Y-114579100D01*
X121412242Y-114023339D01*
X121200010Y-113509697D01*
X120807370Y-113116371D01*
X120599487Y-113030050D01*
X120805303Y-112945010D01*
X121198629Y-112552370D01*
X121411757Y-112039100D01*
X121412242Y-111483339D01*
X121200010Y-110969697D01*
X120807370Y-110576371D01*
X120599487Y-110490050D01*
X120805303Y-110405010D01*
X121198629Y-110012370D01*
X121411757Y-109499100D01*
X121412242Y-108943339D01*
X121200010Y-108429697D01*
X120807370Y-108036371D01*
X120599487Y-107950050D01*
X120805303Y-107865010D01*
X121198629Y-107472370D01*
X121411757Y-106959100D01*
X121412242Y-106403339D01*
X121200010Y-105889697D01*
X120807370Y-105496371D01*
X120615272Y-105416605D01*
X120746143Y-105362397D01*
X120815608Y-105120213D01*
X120015000Y-104319605D01*
X119835395Y-104499210D01*
X119835395Y-104140000D01*
X119034787Y-103339392D01*
X118792603Y-103408857D01*
X118605856Y-103932302D01*
X118633638Y-104487368D01*
X118792603Y-104871143D01*
X119034787Y-104940608D01*
X119835395Y-104140000D01*
X119835395Y-104499210D01*
X119214392Y-105120213D01*
X119283857Y-105362397D01*
X119424317Y-105412508D01*
X119224697Y-105494990D01*
X118831371Y-105887630D01*
X118618243Y-106400900D01*
X118617758Y-106956661D01*
X118829990Y-107470303D01*
X119222630Y-107863629D01*
X119430512Y-107949949D01*
X119224697Y-108034990D01*
X119174599Y-108085000D01*
X113674261Y-108085000D01*
X113674261Y-99388964D01*
X113654436Y-98631368D01*
X113402657Y-98023520D01*
X113107777Y-97891828D01*
X112928172Y-98071433D01*
X112928172Y-97712223D01*
X112796480Y-97417343D01*
X112088964Y-97145739D01*
X111331368Y-97165564D01*
X110723520Y-97417343D01*
X110591828Y-97712223D01*
X111760000Y-98880395D01*
X112928172Y-97712223D01*
X112928172Y-98071433D01*
X111939605Y-99060000D01*
X113107777Y-100228172D01*
X113402657Y-100096480D01*
X113674261Y-99388964D01*
X113674261Y-108085000D01*
X112928172Y-108085000D01*
X112928172Y-100407777D01*
X111760000Y-99239605D01*
X111580395Y-99419210D01*
X111580395Y-99060000D01*
X110412223Y-97891828D01*
X110117343Y-98023520D01*
X109845739Y-98731036D01*
X109865564Y-99488632D01*
X110117343Y-100096480D01*
X110412223Y-100228172D01*
X111580395Y-99060000D01*
X111580395Y-99419210D01*
X110591828Y-100407777D01*
X110723520Y-100702657D01*
X111431036Y-100974261D01*
X112188632Y-100954436D01*
X112796480Y-100702657D01*
X112928172Y-100407777D01*
X112928172Y-108085000D01*
X112891675Y-108085000D01*
X112518234Y-107835474D01*
X111944745Y-107721400D01*
X111575255Y-107721400D01*
X111001766Y-107835474D01*
X110515585Y-108160330D01*
X110190729Y-108646511D01*
X110076655Y-109220000D01*
X110190729Y-109793489D01*
X110515585Y-110279670D01*
X110830365Y-110490000D01*
X110515585Y-110700330D01*
X110190729Y-111186511D01*
X110076655Y-111760000D01*
X110190729Y-112333489D01*
X110515585Y-112819670D01*
X110830365Y-113030000D01*
X110515585Y-113240330D01*
X110190729Y-113726511D01*
X110076655Y-114300000D01*
X110190729Y-114873489D01*
X110515585Y-115359670D01*
X110537780Y-115374500D01*
X110384302Y-115438073D01*
X110205673Y-115616701D01*
X110109000Y-115850090D01*
X110109000Y-116102709D01*
X110109000Y-117829909D01*
X110205673Y-118063298D01*
X110384301Y-118241927D01*
X110617690Y-118338600D01*
X110870309Y-118338600D01*
X112902309Y-118338600D01*
X113135698Y-118241927D01*
X113314327Y-118063299D01*
X113350901Y-117975000D01*
X119174085Y-117975000D01*
X119222630Y-118023629D01*
X119414727Y-118103394D01*
X119283857Y-118157603D01*
X119214392Y-118399787D01*
X120015000Y-119200395D01*
X120815608Y-118399787D01*
X120746143Y-118157603D01*
X120605682Y-118107491D01*
X120805303Y-118025010D01*
X121198629Y-117632370D01*
X121411757Y-117119100D01*
X121412242Y-116563339D01*
X121412242Y-119349903D01*
X121396362Y-119032632D01*
X121237397Y-118648857D01*
X120995213Y-118579392D01*
X120194605Y-119380000D01*
X120995213Y-120180608D01*
X121237397Y-120111143D01*
X121424144Y-119587698D01*
X121424144Y-120785000D01*
X120855914Y-120785000D01*
X120807370Y-120736371D01*
X120615272Y-120656605D01*
X120746143Y-120602397D01*
X120815608Y-120360213D01*
X120015000Y-119559605D01*
X119835395Y-119739210D01*
X119835395Y-119380000D01*
X119034787Y-118579392D01*
X118792603Y-118648857D01*
X118605856Y-119172302D01*
X118633638Y-119727368D01*
X118792603Y-120111143D01*
X119034787Y-120180608D01*
X119835395Y-119380000D01*
X119835395Y-119739210D01*
X119214392Y-120360213D01*
X119283857Y-120602397D01*
X119424317Y-120652508D01*
X119224697Y-120734990D01*
X118831371Y-121127630D01*
X118618243Y-121640900D01*
X118617758Y-122196661D01*
X118829990Y-122710303D01*
X119222630Y-123103629D01*
X119735900Y-123316757D01*
X120291661Y-123317242D01*
X120805303Y-123105010D01*
X120855400Y-123055000D01*
X122055000Y-123055000D01*
X122055000Y-146185000D01*
X121424144Y-146185000D01*
X121424144Y-144987698D01*
X121424144Y-129747698D01*
X121396362Y-129192632D01*
X121237397Y-128808857D01*
X120995213Y-128739392D01*
X120815608Y-128918997D01*
X120815608Y-128559787D01*
X120746143Y-128317603D01*
X120222698Y-128130856D01*
X119667632Y-128158638D01*
X119283857Y-128317603D01*
X119214392Y-128559787D01*
X120015000Y-129360395D01*
X120815608Y-128559787D01*
X120815608Y-128918997D01*
X120194605Y-129540000D01*
X120995213Y-130340608D01*
X121237397Y-130271143D01*
X121424144Y-129747698D01*
X121424144Y-144987698D01*
X121412242Y-144749903D01*
X121412242Y-141963339D01*
X121200010Y-141449697D01*
X120807370Y-141056371D01*
X120599487Y-140970050D01*
X120805303Y-140885010D01*
X121198629Y-140492370D01*
X121411757Y-139979100D01*
X121412242Y-139423339D01*
X121200010Y-138909697D01*
X120807370Y-138516371D01*
X120599487Y-138430050D01*
X120805303Y-138345010D01*
X121198629Y-137952370D01*
X121411757Y-137439100D01*
X121412242Y-136883339D01*
X121200010Y-136369697D01*
X120807370Y-135976371D01*
X120599487Y-135890050D01*
X120805303Y-135805010D01*
X121198629Y-135412370D01*
X121411757Y-134899100D01*
X121412242Y-134343339D01*
X121200010Y-133829697D01*
X120807370Y-133436371D01*
X120599487Y-133350050D01*
X120805303Y-133265010D01*
X121198629Y-132872370D01*
X121411757Y-132359100D01*
X121412242Y-131803339D01*
X121200010Y-131289697D01*
X120807370Y-130896371D01*
X120615272Y-130816605D01*
X120746143Y-130762397D01*
X120815608Y-130520213D01*
X120015000Y-129719605D01*
X119835395Y-129899210D01*
X119835395Y-129540000D01*
X119034787Y-128739392D01*
X118792603Y-128808857D01*
X118605856Y-129332302D01*
X118633638Y-129887368D01*
X118792603Y-130271143D01*
X119034787Y-130340608D01*
X119835395Y-129540000D01*
X119835395Y-129899210D01*
X119214392Y-130520213D01*
X119283857Y-130762397D01*
X119424317Y-130812508D01*
X119224697Y-130894990D01*
X119138687Y-130980849D01*
X118912566Y-130642434D01*
X117007566Y-128737434D01*
X116639346Y-128491397D01*
X116205000Y-128405000D01*
X112891675Y-128405000D01*
X112518234Y-128155474D01*
X111944745Y-128041400D01*
X111575255Y-128041400D01*
X111001766Y-128155474D01*
X110515585Y-128480330D01*
X110190729Y-128966511D01*
X110076655Y-129540000D01*
X110190729Y-130113489D01*
X110515585Y-130599670D01*
X110830365Y-130810000D01*
X110515585Y-131020330D01*
X110190729Y-131506511D01*
X110076655Y-132080000D01*
X110190729Y-132653489D01*
X110515585Y-133139670D01*
X110830365Y-133350000D01*
X110515585Y-133560330D01*
X110190729Y-134046511D01*
X110076655Y-134620000D01*
X110190729Y-135193489D01*
X110515585Y-135679670D01*
X110537780Y-135694500D01*
X110384302Y-135758073D01*
X110205673Y-135936701D01*
X110109000Y-136170090D01*
X110109000Y-136422709D01*
X110109000Y-138149909D01*
X110205673Y-138383298D01*
X110384301Y-138561927D01*
X110617690Y-138658600D01*
X110870309Y-138658600D01*
X112902309Y-138658600D01*
X113135698Y-138561927D01*
X113165000Y-138532625D01*
X113165000Y-140335000D01*
X113251397Y-140769346D01*
X113497434Y-141137566D01*
X115402434Y-143042566D01*
X115770654Y-143288603D01*
X115770655Y-143288603D01*
X116205000Y-143375000D01*
X119174085Y-143375000D01*
X119222630Y-143423629D01*
X119414727Y-143503394D01*
X119283857Y-143557603D01*
X119214392Y-143799787D01*
X120015000Y-144600395D01*
X120815608Y-143799787D01*
X120746143Y-143557603D01*
X120605682Y-143507491D01*
X120805303Y-143425010D01*
X121198629Y-143032370D01*
X121411757Y-142519100D01*
X121412242Y-141963339D01*
X121412242Y-144749903D01*
X121396362Y-144432632D01*
X121237397Y-144048857D01*
X120995213Y-143979392D01*
X120194605Y-144780000D01*
X120995213Y-145580608D01*
X121237397Y-145511143D01*
X121424144Y-144987698D01*
X121424144Y-146185000D01*
X120855914Y-146185000D01*
X120807370Y-146136371D01*
X120615272Y-146056605D01*
X120746143Y-146002397D01*
X120815608Y-145760213D01*
X120015000Y-144959605D01*
X119835395Y-145139210D01*
X119835395Y-144780000D01*
X119034787Y-143979392D01*
X118792603Y-144048857D01*
X118605856Y-144572302D01*
X118633638Y-145127368D01*
X118792603Y-145511143D01*
X119034787Y-145580608D01*
X119835395Y-144780000D01*
X119835395Y-145139210D01*
X119214392Y-145760213D01*
X119283857Y-146002397D01*
X119424317Y-146052508D01*
X119224697Y-146134990D01*
X118831371Y-146527630D01*
X118618243Y-147040900D01*
X118617758Y-147596661D01*
X118829990Y-148110303D01*
X119222630Y-148503629D01*
X119735900Y-148716757D01*
X120291661Y-148717242D01*
X120805303Y-148505010D01*
X120855400Y-148455000D01*
X122055000Y-148455000D01*
X122055000Y-148590000D01*
X122141397Y-149024346D01*
X122387434Y-149392566D01*
X123022434Y-150027566D01*
X123390654Y-150273603D01*
X123390655Y-150273604D01*
X123825000Y-150360000D01*
X127000000Y-150360000D01*
X127135000Y-150333146D01*
X127135000Y-150479002D01*
X127221397Y-150913348D01*
X127467434Y-151281568D01*
X127835654Y-151527605D01*
X128270000Y-151614002D01*
X128704346Y-151527605D01*
X129072566Y-151281568D01*
X129318603Y-150913348D01*
X129405000Y-150479002D01*
X129405000Y-91440000D01*
X129405000Y-91305000D01*
X129540000Y-91305000D01*
X129974346Y-91218603D01*
X130342566Y-90972566D01*
X130588603Y-90604346D01*
X130675000Y-90170000D01*
X130675000Y-102034868D01*
X130007434Y-102702434D01*
X129761397Y-103070654D01*
X129675000Y-103505000D01*
X129675000Y-107315000D01*
X129761397Y-107749346D01*
X130007434Y-108117566D01*
X131317817Y-109427949D01*
X131317758Y-109496661D01*
X131529990Y-110010303D01*
X131580000Y-110060400D01*
X131580000Y-110919085D01*
X131531371Y-110967630D01*
X131318243Y-111480900D01*
X131318181Y-111551686D01*
X130007434Y-112862434D01*
X129761397Y-113230654D01*
X129675000Y-113665000D01*
X129675000Y-132715000D01*
X129761397Y-133149346D01*
X130007434Y-133517566D01*
X131317817Y-134827949D01*
X131317758Y-134896661D01*
X131529990Y-135410303D01*
X131580000Y-135460400D01*
X131580000Y-136319085D01*
X131531371Y-136367630D01*
X131318243Y-136880900D01*
X131317758Y-137436661D01*
X131529990Y-137950303D01*
X131922630Y-138343629D01*
X132130512Y-138429949D01*
X131924697Y-138514990D01*
X131531371Y-138907630D01*
X131318243Y-139420900D01*
X131317758Y-139976661D01*
X131529990Y-140490303D01*
X131922630Y-140883629D01*
X132130512Y-140969949D01*
X131924697Y-141054990D01*
X131531371Y-141447630D01*
X131318243Y-141960900D01*
X131317758Y-142516661D01*
X131529990Y-143030303D01*
X131922630Y-143423629D01*
X132130512Y-143509949D01*
X131924697Y-143594990D01*
X131531371Y-143987630D01*
X131318243Y-144500900D01*
X131317758Y-145056661D01*
X131529990Y-145570303D01*
X131882071Y-145923000D01*
X131826691Y-145923000D01*
X131593302Y-146019673D01*
X131414673Y-146198301D01*
X131318000Y-146431690D01*
X131318000Y-146684309D01*
X131318000Y-148208309D01*
X131414673Y-148441698D01*
X131593301Y-148620327D01*
X131826690Y-148717000D01*
X132079309Y-148717000D01*
X133603309Y-148717000D01*
X133836698Y-148620327D01*
X134015327Y-148441699D01*
X134112000Y-148208310D01*
X134112000Y-147955691D01*
X134112000Y-146431691D01*
X134015327Y-146198302D01*
X133836699Y-146019673D01*
X133603310Y-145923000D01*
X133547386Y-145923000D01*
X133898629Y-145572370D01*
X134111757Y-145059100D01*
X134112242Y-144503339D01*
X133900010Y-143989697D01*
X133507370Y-143596371D01*
X133299487Y-143510050D01*
X133505303Y-143425010D01*
X133898629Y-143032370D01*
X134111757Y-142519100D01*
X134112242Y-141963339D01*
X133900010Y-141449697D01*
X133507370Y-141056371D01*
X133299487Y-140970050D01*
X133505303Y-140885010D01*
X133898629Y-140492370D01*
X134111757Y-139979100D01*
X134112242Y-139423339D01*
X133900010Y-138909697D01*
X133507370Y-138516371D01*
X133299487Y-138430050D01*
X133505303Y-138345010D01*
X133898629Y-137952370D01*
X134111757Y-137439100D01*
X134112242Y-136883339D01*
X133900010Y-136369697D01*
X133850000Y-136319599D01*
X133850000Y-135460914D01*
X133898629Y-135412370D01*
X134111757Y-134899100D01*
X134112242Y-134343339D01*
X133900010Y-133829697D01*
X133507370Y-133436371D01*
X133299487Y-133350050D01*
X133505303Y-133265010D01*
X133555400Y-133215000D01*
X135890000Y-133215000D01*
X136324345Y-133128603D01*
X136324346Y-133128603D01*
X136692566Y-132882566D01*
X138900132Y-130675000D01*
X142034085Y-130675000D01*
X142082630Y-130723629D01*
X142290512Y-130809949D01*
X142084697Y-130894990D01*
X141691371Y-131287630D01*
X141478243Y-131800900D01*
X141477758Y-132356661D01*
X141689990Y-132870303D01*
X142082630Y-133263629D01*
X142290512Y-133349949D01*
X142084697Y-133434990D01*
X141691371Y-133827630D01*
X141478243Y-134340900D01*
X141477758Y-134896661D01*
X141689990Y-135410303D01*
X142082630Y-135803629D01*
X142290512Y-135889949D01*
X142084697Y-135974990D01*
X141691371Y-136367630D01*
X141478243Y-136880900D01*
X141477758Y-137436661D01*
X141689990Y-137950303D01*
X142082630Y-138343629D01*
X142290512Y-138429949D01*
X142084697Y-138514990D01*
X141691371Y-138907630D01*
X141478243Y-139420900D01*
X141477758Y-139976661D01*
X141689990Y-140490303D01*
X142082630Y-140883629D01*
X142290512Y-140969949D01*
X142084697Y-141054990D01*
X141691371Y-141447630D01*
X141478243Y-141960900D01*
X141477758Y-142516661D01*
X141689990Y-143030303D01*
X142082630Y-143423629D01*
X142290512Y-143509949D01*
X142084697Y-143594990D01*
X141691371Y-143987630D01*
X141478243Y-144500900D01*
X141478181Y-144571686D01*
X140167434Y-145882434D01*
X139921397Y-146250654D01*
X139835000Y-146685000D01*
X139835000Y-148590000D01*
X139921397Y-149024346D01*
X140167434Y-149392566D01*
X140802434Y-150027566D01*
X141170654Y-150273603D01*
X141170655Y-150273604D01*
X141605000Y-150360000D01*
X153834868Y-150360000D01*
X154772434Y-151297566D01*
X155140654Y-151543603D01*
X155140655Y-151543603D01*
X155575000Y-151630000D01*
X162560000Y-151630000D01*
X162994345Y-151543603D01*
X162994346Y-151543603D01*
X163362566Y-151297566D01*
X163681130Y-150979002D01*
X180355998Y-150979002D01*
X180790343Y-150892605D01*
X180790344Y-150892605D01*
X181158564Y-150646568D01*
X183682566Y-148122566D01*
X183928603Y-147754346D01*
X183928603Y-147754345D01*
X184015000Y-147320000D01*
X184015000Y-131280132D01*
X185587566Y-129707566D01*
X185833603Y-129339346D01*
X185833603Y-129339345D01*
X185920000Y-128905000D01*
X185920000Y-125730000D01*
X185833604Y-125295655D01*
X185833603Y-125295654D01*
X185587566Y-124927434D01*
X184952566Y-124292434D01*
X184584346Y-124046397D01*
X184150000Y-123960000D01*
X175895000Y-123960000D01*
X175460655Y-124046396D01*
X175092434Y-124292434D01*
X174457434Y-124927434D01*
X174211397Y-125295654D01*
X174125000Y-125730000D01*
X174125000Y-126159085D01*
X174076371Y-126207630D01*
X173996605Y-126399727D01*
X173942397Y-126268857D01*
X173700213Y-126199392D01*
X173520608Y-126378997D01*
X173520608Y-126019787D01*
X173451143Y-125777603D01*
X172927698Y-125590856D01*
X172372632Y-125618638D01*
X171988857Y-125777603D01*
X171919392Y-126019787D01*
X172720000Y-126820395D01*
X173520608Y-126019787D01*
X173520608Y-126378997D01*
X172899605Y-127000000D01*
X173700213Y-127800608D01*
X173942397Y-127731143D01*
X173992508Y-127590682D01*
X174074990Y-127790303D01*
X174467630Y-128183629D01*
X174980900Y-128396757D01*
X175536661Y-128397242D01*
X176050303Y-128185010D01*
X176443629Y-127792370D01*
X176529949Y-127584487D01*
X176614990Y-127790303D01*
X176665000Y-127840400D01*
X176665000Y-128905000D01*
X176751397Y-129339346D01*
X176997434Y-129707566D01*
X177935000Y-130645132D01*
X177935000Y-144309868D01*
X177329868Y-144915000D01*
X173520608Y-144915000D01*
X173520608Y-127980213D01*
X172720000Y-127179605D01*
X171919392Y-127980213D01*
X171988857Y-128222397D01*
X172512302Y-128409144D01*
X173067368Y-128381362D01*
X173451143Y-128222397D01*
X173520608Y-127980213D01*
X173520608Y-144915000D01*
X160020000Y-144915000D01*
X159585654Y-145001397D01*
X159511764Y-145050768D01*
X159512242Y-144503339D01*
X159300010Y-143989697D01*
X158907370Y-143596371D01*
X158699487Y-143510050D01*
X158905303Y-143425010D01*
X159298629Y-143032370D01*
X159511757Y-142519100D01*
X159512242Y-141963339D01*
X159300010Y-141449697D01*
X158907370Y-141056371D01*
X158699487Y-140970050D01*
X158905303Y-140885010D01*
X158955400Y-140835000D01*
X166370000Y-140835000D01*
X166804345Y-140748603D01*
X166804346Y-140748603D01*
X167172566Y-140502566D01*
X168442566Y-139232566D01*
X168688603Y-138864346D01*
X168688603Y-138864345D01*
X168775000Y-138430000D01*
X168775000Y-93180132D01*
X169712566Y-92242566D01*
X169958603Y-91874346D01*
X169958603Y-91874345D01*
X170045000Y-91440000D01*
X170045000Y-90994325D01*
X170380655Y-91218603D01*
X170815000Y-91305000D01*
X170895426Y-91289002D01*
X174773870Y-91289002D01*
X175395000Y-91910132D01*
X175395000Y-92848324D01*
X175263539Y-93045069D01*
X174892036Y-92629268D01*
X174364791Y-92375291D01*
X174349026Y-92372642D01*
X174117000Y-92493783D01*
X174117000Y-93853000D01*
X174137000Y-93853000D01*
X174137000Y-94107000D01*
X174117000Y-94107000D01*
X174117000Y-95466217D01*
X174349026Y-95587358D01*
X174364791Y-95584709D01*
X174892036Y-95330732D01*
X175263539Y-94914930D01*
X175470330Y-95224415D01*
X175956511Y-95549271D01*
X176530000Y-95663345D01*
X177103489Y-95549271D01*
X177589670Y-95224415D01*
X177800000Y-94909634D01*
X178010330Y-95224415D01*
X178496511Y-95549271D01*
X179070000Y-95663345D01*
X179643489Y-95549271D01*
X180129670Y-95224415D01*
X180144500Y-95202219D01*
X180208073Y-95355698D01*
X180386701Y-95534327D01*
X180475000Y-95570901D01*
X180475000Y-98739098D01*
X180386702Y-98775673D01*
X180208073Y-98954301D01*
X180144499Y-99107779D01*
X180129670Y-99085585D01*
X179643489Y-98760729D01*
X179070000Y-98646655D01*
X178496511Y-98760729D01*
X178010330Y-99085585D01*
X177937221Y-99195000D01*
X177662778Y-99195000D01*
X177589670Y-99085585D01*
X177103489Y-98760729D01*
X176530000Y-98646655D01*
X175956511Y-98760729D01*
X175470330Y-99085585D01*
X175397221Y-99195000D01*
X175122778Y-99195000D01*
X175049670Y-99085585D01*
X174563489Y-98760729D01*
X173990000Y-98646655D01*
X173863000Y-98671916D01*
X173863000Y-95466217D01*
X173863000Y-94107000D01*
X173863000Y-93853000D01*
X173863000Y-92493783D01*
X173630974Y-92372642D01*
X173615209Y-92375291D01*
X173087964Y-92629268D01*
X172698046Y-93065680D01*
X172504816Y-93618087D01*
X172649076Y-93853000D01*
X173863000Y-93853000D01*
X173863000Y-94107000D01*
X172649076Y-94107000D01*
X172504816Y-94341913D01*
X172698046Y-94894320D01*
X173087964Y-95330732D01*
X173615209Y-95584709D01*
X173630974Y-95587358D01*
X173863000Y-95466217D01*
X173863000Y-98671916D01*
X173416511Y-98760729D01*
X172930330Y-99085585D01*
X172605474Y-99571766D01*
X172491400Y-100145255D01*
X172491400Y-100514745D01*
X172605474Y-101088234D01*
X172930330Y-101574415D01*
X173416511Y-101899271D01*
X173990000Y-102013345D01*
X174563489Y-101899271D01*
X175049670Y-101574415D01*
X175122778Y-101465000D01*
X175397221Y-101465000D01*
X175470330Y-101574415D01*
X175956511Y-101899271D01*
X176530000Y-102013345D01*
X177103489Y-101899271D01*
X177589670Y-101574415D01*
X177662778Y-101465000D01*
X177937221Y-101465000D01*
X178010330Y-101574415D01*
X178496511Y-101899271D01*
X179070000Y-102013345D01*
X179643489Y-101899271D01*
X180129670Y-101574415D01*
X180144500Y-101552219D01*
X180208073Y-101705698D01*
X180386701Y-101884327D01*
X180620090Y-101981000D01*
X180872709Y-101981000D01*
X182599909Y-101981000D01*
X182833298Y-101884327D01*
X183011927Y-101705699D01*
X183108600Y-101472310D01*
X183108600Y-101465000D01*
X187489868Y-101465000D01*
X188095000Y-102070132D01*
X188095000Y-112559868D01*
X187489868Y-113165000D01*
X186829144Y-113165000D01*
X186829144Y-111967698D01*
X186801362Y-111412632D01*
X186642397Y-111028857D01*
X186400213Y-110959392D01*
X186220608Y-111138997D01*
X186220608Y-110779787D01*
X186151143Y-110537603D01*
X185627698Y-110350856D01*
X185072632Y-110378638D01*
X184688857Y-110537603D01*
X184619392Y-110779787D01*
X185420000Y-111580395D01*
X186220608Y-110779787D01*
X186220608Y-111138997D01*
X185599605Y-111760000D01*
X186400213Y-112560608D01*
X186642397Y-112491143D01*
X186829144Y-111967698D01*
X186829144Y-113165000D01*
X185295096Y-113165000D01*
X185767368Y-113141362D01*
X186151143Y-112982397D01*
X186220608Y-112740213D01*
X185420000Y-111939605D01*
X185240395Y-112119210D01*
X185240395Y-111760000D01*
X184439787Y-110959392D01*
X184197603Y-111028857D01*
X184010856Y-111552302D01*
X184038638Y-112107368D01*
X184197603Y-112491143D01*
X184439787Y-112560608D01*
X185240395Y-111760000D01*
X185240395Y-112119210D01*
X184619392Y-112740213D01*
X184688857Y-112982397D01*
X185200686Y-113165000D01*
X183108600Y-113165000D01*
X183108600Y-105282309D01*
X183108600Y-104425750D01*
X183108600Y-103854250D01*
X183108600Y-102997691D01*
X183011927Y-102764302D01*
X182833299Y-102585673D01*
X182599910Y-102489000D01*
X182347291Y-102489000D01*
X181895750Y-102489000D01*
X181737000Y-102647750D01*
X181737000Y-104013000D01*
X182949850Y-104013000D01*
X183108600Y-103854250D01*
X183108600Y-104425750D01*
X182949850Y-104267000D01*
X181737000Y-104267000D01*
X181737000Y-105632250D01*
X181895750Y-105791000D01*
X182347291Y-105791000D01*
X182599910Y-105791000D01*
X182833299Y-105694327D01*
X183011927Y-105515698D01*
X183108600Y-105282309D01*
X183108600Y-113165000D01*
X181749144Y-113165000D01*
X181749144Y-111967698D01*
X181721362Y-111412632D01*
X181562397Y-111028857D01*
X181483000Y-111006083D01*
X181483000Y-105632250D01*
X181483000Y-104267000D01*
X181483000Y-104013000D01*
X181483000Y-102647750D01*
X181324250Y-102489000D01*
X180872709Y-102489000D01*
X180620090Y-102489000D01*
X180386701Y-102585673D01*
X180208073Y-102764302D01*
X180126241Y-102961860D01*
X179972036Y-102789268D01*
X179444791Y-102535291D01*
X179429026Y-102532642D01*
X179197000Y-102653783D01*
X179197000Y-104013000D01*
X180270150Y-104013000D01*
X180410924Y-104013000D01*
X181483000Y-104013000D01*
X181483000Y-104267000D01*
X180410924Y-104267000D01*
X180270150Y-104267000D01*
X179197000Y-104267000D01*
X179197000Y-105626217D01*
X179429026Y-105747358D01*
X179444791Y-105744709D01*
X179972036Y-105490732D01*
X180126241Y-105318139D01*
X180208073Y-105515698D01*
X180386701Y-105694327D01*
X180620090Y-105791000D01*
X180872709Y-105791000D01*
X181324250Y-105791000D01*
X181483000Y-105632250D01*
X181483000Y-111006083D01*
X181320213Y-110959392D01*
X181140608Y-111138997D01*
X181140608Y-110779787D01*
X181071143Y-110537603D01*
X180547698Y-110350856D01*
X179992632Y-110378638D01*
X179608857Y-110537603D01*
X179539392Y-110779787D01*
X180340000Y-111580395D01*
X181140608Y-110779787D01*
X181140608Y-111138997D01*
X180519605Y-111760000D01*
X181320213Y-112560608D01*
X181562397Y-112491143D01*
X181749144Y-111967698D01*
X181749144Y-113165000D01*
X180215096Y-113165000D01*
X180687368Y-113141362D01*
X181071143Y-112982397D01*
X181140608Y-112740213D01*
X180340000Y-111939605D01*
X180160395Y-112119210D01*
X180160395Y-111760000D01*
X179359787Y-110959392D01*
X179117603Y-111028857D01*
X178943000Y-111518262D01*
X178943000Y-105626217D01*
X178943000Y-104267000D01*
X178943000Y-104013000D01*
X178943000Y-102653783D01*
X178710974Y-102532642D01*
X178695209Y-102535291D01*
X178167964Y-102789268D01*
X177800000Y-103201108D01*
X177432036Y-102789268D01*
X176904791Y-102535291D01*
X176889026Y-102532642D01*
X176657000Y-102653783D01*
X176657000Y-104013000D01*
X177729076Y-104013000D01*
X177870924Y-104013000D01*
X178943000Y-104013000D01*
X178943000Y-104267000D01*
X177870924Y-104267000D01*
X177729076Y-104267000D01*
X176657000Y-104267000D01*
X176657000Y-105626217D01*
X176889026Y-105747358D01*
X176904791Y-105744709D01*
X177432036Y-105490732D01*
X177800000Y-105078891D01*
X178167964Y-105490732D01*
X178695209Y-105744709D01*
X178710974Y-105747358D01*
X178943000Y-105626217D01*
X178943000Y-111518262D01*
X178930856Y-111552302D01*
X178958638Y-112107368D01*
X179117603Y-112491143D01*
X179359787Y-112560608D01*
X180160395Y-111760000D01*
X180160395Y-112119210D01*
X179539392Y-112740213D01*
X179608857Y-112982397D01*
X180120686Y-113165000D01*
X176403000Y-113165000D01*
X176403000Y-105626217D01*
X176403000Y-104267000D01*
X176403000Y-104013000D01*
X176403000Y-102653783D01*
X176170974Y-102532642D01*
X176155209Y-102535291D01*
X175627964Y-102789268D01*
X175260000Y-103201108D01*
X174892036Y-102789268D01*
X174364791Y-102535291D01*
X174349026Y-102532642D01*
X174117000Y-102653783D01*
X174117000Y-104013000D01*
X175189076Y-104013000D01*
X175330924Y-104013000D01*
X176403000Y-104013000D01*
X176403000Y-104267000D01*
X175330924Y-104267000D01*
X175189076Y-104267000D01*
X174117000Y-104267000D01*
X174117000Y-105626217D01*
X174349026Y-105747358D01*
X174364791Y-105744709D01*
X174892036Y-105490732D01*
X175260000Y-105078891D01*
X175627964Y-105490732D01*
X176155209Y-105744709D01*
X176170974Y-105747358D01*
X176403000Y-105626217D01*
X176403000Y-113165000D01*
X173863000Y-113165000D01*
X173863000Y-105626217D01*
X173863000Y-104267000D01*
X173863000Y-104013000D01*
X173863000Y-102653783D01*
X173630974Y-102532642D01*
X173615209Y-102535291D01*
X173087964Y-102789268D01*
X172698046Y-103225680D01*
X172504816Y-103778087D01*
X172649076Y-104013000D01*
X173863000Y-104013000D01*
X173863000Y-104267000D01*
X172649076Y-104267000D01*
X172504816Y-104501913D01*
X172698046Y-105054320D01*
X173087964Y-105490732D01*
X173615209Y-105744709D01*
X173630974Y-105747358D01*
X173863000Y-105626217D01*
X173863000Y-113165000D01*
X171450000Y-113165000D01*
X171015654Y-113251397D01*
X170647434Y-113497434D01*
X169377434Y-114767434D01*
X169131397Y-115135654D01*
X169045000Y-115570000D01*
X169045000Y-119380000D01*
X169045000Y-126159085D01*
X168996371Y-126207630D01*
X168783243Y-126720900D01*
X168782758Y-127276661D01*
X168994990Y-127790303D01*
X169387630Y-128183629D01*
X169900900Y-128396757D01*
X170456661Y-128397242D01*
X170970303Y-128185010D01*
X171363629Y-127792370D01*
X171443394Y-127600272D01*
X171497603Y-127731143D01*
X171739787Y-127800608D01*
X172540395Y-127000000D01*
X171739787Y-126199392D01*
X171497603Y-126268857D01*
X171447491Y-126409317D01*
X171365010Y-126209697D01*
X171315000Y-126159599D01*
X171315000Y-119380000D01*
X171315000Y-116040132D01*
X171920132Y-115435000D01*
X187960000Y-115435000D01*
X188394345Y-115348603D01*
X188394346Y-115348603D01*
X188762566Y-115102566D01*
X189349002Y-114516130D01*
X189349002Y-115115866D01*
X188759868Y-115705000D01*
X186260914Y-115705000D01*
X186212370Y-115656371D01*
X185699100Y-115443243D01*
X185143339Y-115442758D01*
X184629697Y-115654990D01*
X184579599Y-115705000D01*
X181627025Y-115705000D01*
X181461699Y-115539673D01*
X181228310Y-115443000D01*
X180975691Y-115443000D01*
X179451691Y-115443000D01*
X179218302Y-115539673D01*
X179052974Y-115705000D01*
X176530000Y-115705000D01*
X176095654Y-115791397D01*
X175727434Y-116037434D01*
X175481397Y-116405654D01*
X175395000Y-116840000D01*
X175481397Y-117274346D01*
X175727434Y-117642566D01*
X176095654Y-117888603D01*
X176530000Y-117975000D01*
X179052974Y-117975000D01*
X179218301Y-118140327D01*
X179451690Y-118237000D01*
X179704309Y-118237000D01*
X181228309Y-118237000D01*
X181461698Y-118140327D01*
X181627025Y-117975000D01*
X184579085Y-117975000D01*
X184627630Y-118023629D01*
X185140900Y-118236757D01*
X185696661Y-118237242D01*
X186210303Y-118025010D01*
X186260400Y-117975000D01*
X189230000Y-117975000D01*
X189664345Y-117888603D01*
X189664346Y-117888603D01*
X190032566Y-117642566D01*
X191286568Y-116388564D01*
X191532605Y-116020344D01*
X191532606Y-116020343D01*
X191619002Y-115585998D01*
X191619002Y-144896864D01*
X191032827Y-144653464D01*
X189971828Y-144652538D01*
X188991239Y-145057709D01*
X188240345Y-145807293D01*
X187833464Y-146787173D01*
X187832538Y-147848172D01*
X188237709Y-148828761D01*
X188987293Y-149579655D01*
X189967173Y-149986536D01*
X191028172Y-149987462D01*
X192008761Y-149582291D01*
X192759655Y-148832707D01*
X193166536Y-147852827D01*
X193167462Y-146791828D01*
X193167462Y-151690000D01*
X111887462Y-151690000D01*
X111887462Y-146791828D01*
X111482291Y-145811239D01*
X110732707Y-145060345D01*
X109752827Y-144653464D01*
X108691828Y-144652538D01*
X107711239Y-145057709D01*
X106960345Y-145807293D01*
X106553464Y-146787173D01*
X106552538Y-147848172D01*
X106957709Y-148828761D01*
X107707293Y-149579655D01*
X108687173Y-149986536D01*
X109748172Y-149987462D01*
X110728761Y-149582291D01*
X111479655Y-148832707D01*
X111886536Y-147852827D01*
X111887462Y-146791828D01*
X111887462Y-151690000D01*
X105485000Y-151690000D01*
X105485000Y-64210000D01*
X195505000Y-64210000D01*
X195505000Y-151690000D01*
M02*
